{
.appVersion = "899";
copyright = "Copyright ￂﾩ 2016 by Struckby. All rights reserved.";
customParameters = (
{
name = glyphOrder;
value = (
.notdef,
NULL,
CR,
space,
dvA,
dvAA,
dvI,
dvII,
dvU,
dvUU,
dvvR,
dvvRR,
dvvL,
dvvLL,
dvE,
dvAI,
dvO,
dvAU,
dvEcandra,
dvAcandra,
dvOcandra,
dvmAA,
dvmI,
dvmII,
dvmU,
dvmUU,
dvmvR,
dvmvRR,
dvmvL,
dvmvLL,
dvmE,
dvmAI,
dvmO,
dvmAU,
dvmEcandra,
dvmOcandra,
dvKA,
dvKHA,
dvGA,
dvGHA,
dvNGA,
dvCA,
dvCHA,
dvJA,
dvJHA,
dvNYA,
dvTTA,
dvTTHA,
dvDDA,
dvDDHA,
dvNNA,
dvTA,
dvTHA,
dvDA,
dvDHA,
dvNA,
dvPA,
dvPHA,
dvBA,
dvBHA,
dvMA,
dvYA,
dvRA,
dvLA,
dvVA,
dvSHA,
dvSSA,
dvSA,
dvHA,
dvLLA,
dvK_SSA,
dvJ_NYA,
dvKxA,
dvKHxA,
dvGxA,
dvJxA,
dvDDxA,
dvDDHxA,
dvPHxA,
dvRxA,
dvAnusvara,
dvCandrabindu,
dvVisarga,
dvAvagraha,
dvVirama,
dvNukta,
dvZero,
dvOne,
dvTwo,
dvThree,
dvFour,
dvFive,
dvSix,
dvSeven,
dvEight,
dvNine,
dvOm,
dvAbbreviationsign,
danda,
doubledanda,
zerowidthnonjoiner,
zerowidthjoiner,
dottedcircle,
rupee,
indianrupee,
ITF,
dvReph,
dvEyelash,
dvRakar,
dvK,
dvKH,
dvG,
dvGH,
dvNG,
dvC,
dvCH,
dvJ,
dvJH,
dvNY,
dvTT,
dvTTH,
dvDD,
dvDDH,
dvNN,
dvT,
dvTH,
dvD,
dvDH,
dvN,
dvP,
dvPH,
dvB,
dvBH,
dvM,
dvY,
dvR,
dvL,
dvV,
dvSH,
dvSS,
dvS,
dvH,
dvLL,
dvK_SS,
dvJ_NY,
dvKx,
dvKHx,
dvGx,
dvJx,
dvPHx,
dvK_RA,
dvKH_RA,
dvG_RA,
dvGH_RA,
dvNG_RA,
dvC_RA,
dvCH_RA,
dvJ_RA,
dvJH_RA,
dvNY_RA,
dvTT_RA,
dvTTH_RA,
dvDD_RA,
dvDDH_RA,
dvNN_RA,
dvT_RA,
dvTH_RA,
dvD_RA,
dvDH_RA,
dvN_RA,
dvP_RA,
dvPH_RA,
dvB_RA,
dvBH_RA,
dvM_RA,
dvY_RA,
dvL_RA,
dvV_RA,
dvSH_RA,
dvSS_RA,
dvS_RA,
dvH_RA,
dvLL_RA,
dvK_SS_RA,
dvJ_NY_RA,
dvKx_RA,
dvKHx_RA,
dvGx_RA,
dvJx_RA,
dvPHx_RA,
dvK_R,
dvKH_R,
dvG_R,
dvGH_R,
dvNG_R,
dvC_R,
dvCH_R,
dvJ_R,
dvJH_R,
dvNY_R,
dvTT_R,
dvTTH_R,
dvDD_R,
dvDDH_R,
dvNN_R,
dvT_R,
dvTH_R,
dvD_R,
dvDH_R,
dvN_R,
dvP_R,
dvPH_R,
dvB_R,
dvBH_R,
dvM_R,
dvY_R,
dvL_R,
dvV_R,
dvSH_R,
dvSS_R,
dvS_R,
dvH_R,
dvLL_R,
dvK_SS_R,
dvJ_NY_R,
dvKx_R,
dvKHx_R,
dvGx_R,
dvJx_R,
dvPHx_R,
dvK_KA,
dvKx_KxA,
dvK_KHA,
dvK_CA,
dvK_JA,
dvK_TTA,
dvK_NNA,
dvK_TA,
dvKx_TA,
dvK_T_YA,
dvK_T_RA,

glyphs = (
{
color = 6;
glyphname = .notdef;
lastChange = "2016-05-19 21:47:13 +0000";
layers = (
{
background = {
paths = (
{
closed = 1;
nodes = (
"80 0 LINE",
"516 0 LINE",
"516 701 LINE",
"80 701 LINE"
);
},
{
closed = 1;
nodes = (
"161 625 LINE",
"436 625 LINE",
"436 76 LINE",
"161 76 LINE"
);
}
);
};
layerId = "632BC717-227E-41E7-B05B-9781150E6210";
paths = (
{
closed = 1;
nodes = (
"80 0 LINE",
"580 0 LINE",
"580 674 LINE",
"80 674 LINE"
);
},
{
closed = 1;
nodes = (
"180 574 LINE",
"480 574 LINE",
"480 100 LINE",
"180 100 LINE"
);
}
);
width = 660;
}
);
},
{
color = 6;
glyphname = dvA;
lastChange = "2016-05-21 11:19:50 +0000";
layers = (
{
anchors = (
{
name = abvm.bindu;
position = "{682, 607}";
}
);
background = {
paths = (
{
closed = 1;
nodes = (
"92 481 LINE",
"92 588 LINE",
"114 602 OFFCURVE",
"164 620 OFFCURVE",
"218 620 CURVE SMOOTH",
"363 620 OFFCURVE",
"414 569 OFFCURVE",
"414 434 CURVE SMOOTH",
"414 356 OFFCURVE",
"365 300 OFFCURVE",
"303 303 CURVE",
"303 311 LINE",
"366 311 OFFCURVE",
"414 284 OFFCURVE",
"414 208 CURVE SMOOTH",
"414 64 OFFCURVE",
"365 26 OFFCURVE",
"218 26 CURVE SMOOTH",
"146 26 OFFCURVE",
"78 51 OFFCURVE",
"51 79 CURVE",
"51 193 LINE",
"69 193 LINE",
"99 165 OFFCURVE",
"144 145 OFFCURVE",
"191 145 CURVE SMOOTH",
"262 145 OFFCURVE",
"283 163 OFFCURVE",
"283 208 CURVE SMOOTH",
"283 235 OFFCURVE",
"269 261 OFFCURVE",
"209 261 CURVE SMOOTH",
"166 261 LINE",
"166 370 LINE",
"209 370 LINE SMOOTH",
"269 370 OFFCURVE",
"292 382 OFFCURVE",
"292 434 CURVE SMOOTH",
"292 486 OFFCURVE",
"281 500 OFFCURVE",
"211 500 CURVE SMOOTH",
"180 500 OFFCURVE",
"130 493 OFFCURVE",
"100 481 CURVE"
);
}
);
};
guideLines = (
{
angle = 270;
position = "{216, 216}";
}
);
layerId = "632BC717-227E-41E7-B05B-9781150E6210";
paths = (
{
closed = 1;
nodes = (
"534 501 LINE",
"682 501 LINE",
"682 9 LINE",
"534 9 LINE"
);
},
{
closed = 1;
nodes = (
"474 607 LINE",
"782 607 LINE",
"782 500 LINE",
"474 500 LINE"
);
},
{
closed = 1;
nodes = (
"332 283 LINE",
"589 283 LINE",
"589 168 LINE",
"332 168 LINE"
);
},
{
closed = 1;
nodes = (
"62 478 LINE",
"62 590 LINE",
"110 606 OFFCURVE",
"166 616 OFFCURVE",
"227 616 CURVE SMOOTH",
"359 616 OFFCURVE",
"407 561 OFFCURVE",
"407 473 CURVE SMOOTH",
"407 390 OFFCURVE",
"378 343 OFFCURVE",
"285 332 CURVE",
"285 328 LINE",
"378 323 OFFCURVE",
"410 261 OFFCURVE",
"410 187 CURVE SMOOTH",
"410 100 OFFCURVE",
"360 39 OFFCURVE",
"218 35 CURVE SMOOTH",
"142 33 OFFCURVE",
"63 46 OFFCURVE",
"20 68 CURVE",
"20 190 LINE",
"25 190 LINE",
"77 168 OFFCURVE",
"127 160 OFFCURVE",
"183 160 CURVE SMOOTH",
"243 160 OFFCURVE",
"266 173 OFFCURVE",
"266 216 CURVE SMOOTH",
"266 256 OFFCURVE",
"245 270 OFFCURVE",
"193 270 CURVE SMOOTH",
"138 270 LINE",
"138 390 LINE",
"182 390 LINE SMOOTH",
"244 390 OFFCURVE",
"266 403 OFFCURVE",
"266 442 CURVE SMOOTH",
"266 476 OFFCURVE",
"248 494 OFFCURVE",
"186 494 CURVE SMOOTH",
"146 494 OFFCURVE",
"101 487 OFFCURVE",
"65 477 CURVE"
);
}
);
width = 742;
},
{
associatedMasterId = "632BC717-227E-41E7-B05B-9781150E6210";
background = {
paths = (
{
closed = 1;
nodes = (
"47 481 LINE",
"47 588 LINE",
"69 602 OFFCURVE",
"119 620 OFFCURVE",
"173 620 CURVE SMOOTH",
"318 620 OFFCURVE",
"369 569 OFFCURVE",
"369 434 CURVE SMOOTH",
"369 356 OFFCURVE",
"320 300 OFFCURVE",
"258 303 CURVE",
"258 311 LINE",
"321 311 OFFCURVE",
"369 284 OFFCURVE",
"369 208 CURVE SMOOTH",
"369 64 OFFCURVE",
"320 26 OFFCURVE",
"173 26 CURVE SMOOTH",
"101 26 OFFCURVE",
"33 51 OFFCURVE",
"6 79 CURVE",
"6 193 LINE",
"24 193 LINE",
"54 165 OFFCURVE",
"99 145 OFFCURVE",
"146 145 CURVE SMOOTH",
"217 145 OFFCURVE",
"238 163 OFFCURVE",
"238 208 CURVE SMOOTH",
"238 235 OFFCURVE",
"224 261 OFFCURVE",
"164 261 CURVE SMOOTH",
"121 261 LINE",
"121 370 LINE",
"164 370 LINE SMOOTH",
"224 370 OFFCURVE",
"247 382 OFFCURVE",
"247 434 CURVE SMOOTH",
"247 486 OFFCURVE",
"236 500 OFFCURVE",
"166 500 CURVE SMOOTH",
"135 500 OFFCURVE",
"85 493 OFFCURVE",
"55 481 CURVE"
);
}
);
};
layerId = "680E6000-9D3E-46B0-BC2F-F31902F8CED7";
name = "Regular Mar 8 16, 12:01";
paths = (
{
closed = 1;
nodes = (
"489 501 LINE",
"637 501 LINE",
"637 9 LINE",
"489 9 LINE"
);
},
{
closed = 1;
nodes = (
"429 608 LINE",
"727 608 LINE",
"727 501 LINE",
"429 501 LINE"
);
},
{
closed = 1;
nodes = (
"292 243 LINE",
"549 243 LINE",
"549 135 LINE",
"292 135 LINE"
);
},
{
closed = 1;
nodes = (
"47 479 LINE",
"47 590 LINE",
"90 612 OFFCURVE",
"137 620 OFFCURVE",
"187 620 CURVE SMOOTH",
"329 618 OFFCURVE",
"371 562 OFFCURVE",
"369 434 CURVE SMOOTH",
"368 356 OFFCURVE",
"330 310 OFFCURVE",
"278 310 CURVE",
"278 303 LINE",
"330 303 OFFCURVE",
"369 284 OFFCURVE",
"369 198 CURVE SMOOTH",
"369 54 OFFCURVE",
"320 25 OFFCURVE",
"164 25 CURVE SMOOTH",
"101 25 OFFCURVE",
"39 49 OFFCURVE",
"6 77 CURVE",
"6 191 LINE",
"18 191 LINE",
"48 163 OFFCURVE",
"99 145 OFFCURVE",
"146 145 CURVE SMOOTH",
"217 145 OFFCURVE",
"238 153 OFFCURVE",
"238 198 CURVE SMOOTH",
"238 235 OFFCURVE",
"224 261 OFFCURVE",
"164 261 CURVE SMOOTH",
"121 261 LINE",
"121 370 LINE",
"164 370 LINE SMOOTH",
"224 370 OFFCURVE",
"247 382 OFFCURVE",
"247 434 CURVE SMOOTH",
"247 484 OFFCURVE",
"231 501 OFFCURVE",
"168 501 CURVE SMOOTH",
"121 501 OFFCURVE",
"85 492 OFFCURVE",
"55 479 CURVE"
);
}
);
width = 677;
},
{
associatedMasterId = "632BC717-227E-41E7-B05B-9781150E6210";
background = {
paths = (
{
closed = 1;
nodes = (
"47 481 LINE",
"47 588 LINE",
"69 602 OFFCURVE",
"119 620 OFFCURVE",
"173 620 CURVE SMOOTH",
"318 620 OFFCURVE",
"369 569 OFFCURVE",
"369 434 CURVE SMOOTH",
"369 356 OFFCURVE",
"320 300 OFFCURVE",
"258 303 CURVE",
"258 311 LINE",
"321 311 OFFCURVE",
"369 284 OFFCURVE",
"369 208 CURVE SMOOTH",
"369 64 OFFCURVE",
"320 26 OFFCURVE",
"173 26 CURVE SMOOTH",
"101 26 OFFCURVE",
"33 51 OFFCURVE",
"6 79 CURVE",
"6 193 LINE",
"24 193 LINE",
"54 165 OFFCURVE",
"99 145 OFFCURVE",
"146 145 CURVE SMOOTH",
"217 145 OFFCURVE",
"238 163 OFFCURVE",
"238 208 CURVE SMOOTH",
"238 235 OFFCURVE",
"224 261 OFFCURVE",
"164 261 CURVE SMOOTH",
"121 261 LINE",
"121 370 LINE",
"164 370 LINE SMOOTH",
"224 370 OFFCURVE",
"247 382 OFFCURVE",
"247 434 CURVE SMOOTH",
"247 486 OFFCURVE",
"236 500 OFFCURVE",
"166 500 CURVE SMOOTH",
"135 500 OFFCURVE",
"85 493 OFFCURVE",
"55 481 CURVE"
);
}
);
};
layerId = "06993E46-3991-4FDF-8DA4-B12E486BF0A6";
name = "2";
paths = (
{
closed = 1;
nodes = (
"489 501 LINE",
"637 501 LINE",
"637 9 LINE",
"489 9 LINE"
);
},
{
closed = 1;
nodes = (
"429 607 LINE",
"737 607 LINE",
"737 500 LINE",
"429 500 LINE"
);
},
{
closed = 1;
nodes = (
"292 259 LINE",
"549 249 LINE",
"549 135 LINE",
"292 135 LINE"
);
},
{
closed = 1;
nodes = (
"28 469 LINE",
"28 579 LINE",
"72 601 OFFCURVE",
"129 609 OFFCURVE",
"180 609 CURVE SMOOTH",
"323 609 OFFCURVE",
"367 552 OFFCURVE",
"365 434 CURVE SMOOTH",
"364 358 OFFCURVE",
"314 303 OFFCURVE",
"251 306 CURVE",
"251 314 LINE",
"328 314 OFFCURVE",
"366 278 OFFCURVE",
"366 197 CURVE SMOOTH",
"366 73 OFFCURVE",
"319 19 OFFCURVE",
"178 19 CURVE SMOOTH",
"100 19 OFFCURVE",
"26 35 OFFCURVE",
"-21 71 CURVE",
"-21 183 LINE",
"-9 183 LINE",
"29 152 OFFCURVE",
"97 139 OFFCURVE",
"159 139 CURVE SMOOTH",
"216 139 OFFCURVE",
"241 161 OFFCURVE",
"241 196 CURVE SMOOTH",
"241 252 OFFCURVE",
"217 259 OFFCURVE",
"157 259 CURVE SMOOTH",
"114 259 LINE",
"114 381 LINE",
"158 381 LINE SMOOTH",
"217 381 OFFCURVE",
"240 392 OFFCURVE",
"240 434 CURVE SMOOTH",
"240 471 OFFCURVE",
"224 487 OFFCURVE",
"162 487 CURVE SMOOTH",
"114 487 OFFCURVE",
"69 478 OFFCURVE",
"38 466 CURVE"
);
}
);
width = 687;
}
);
rightMetricsKey = dvmAA;
unicode = 0905;
},
{
color = 5;
glyphname = dvI;
lastChange = "2016-05-21 11:09:28 +0000";
layers = (
{
anchors = (
{
name = abvm.bindu;
position = "{446, 607}";
}
);
background = {
paths = (
{
closed = 1;
nodes = (
"48 141 LINE",
"113 123 OFFCURVE",
"178 113 OFFCURVE",
"255 113 CURVE SMOOTH",
"331 113 OFFCURVE",
"339 120 OFFCURVE",
"339 152 CURVE SMOOTH",
"339 182 OFFCURVE",
"331 186 OFFCURVE",
"255 186 CURVE SMOOTH",
"214 186 LINE SMOOTH",
"96 186 OFFCURVE",
"50 212 OFFCURVE",
"50 317 CURVE SMOOTH",
"50 422 OFFCURVE",
"95 447 OFFCURVE",
"213 447 CURVE SMOOTH",
"451 447 LINE",
"451 340 LINE",
"231 340 LINE SMOOTH",
"200 340 OFFCURVE",
"191 338 OFFCURVE",
"191 310 CURVE SMOOTH",
"191 287 OFFCURVE",
"200 281 OFFCURVE",
"231 281 CURVE SMOOTH",
"282 281 LINE SMOOTH",
"436 281 OFFCURVE",
"480 257 OFFCURVE",
"480 147 CURVE SMOOTH",
"480 39 OFFCURVE",
"429 0 OFFCURVE",
"282 0 CURVE SMOOTH",
"193 0 OFFCURVE",
"115 11 OFFCURVE",
"43 28 CURVE",
"43 138 LINE"
);
}
);
};
layerId = "632BC717-227E-41E7-B05B-9781150E6210";
paths = (
{
closed = 1;
nodes = (
"336 501 LINE",
"454 501 LINE",
"454 344 LINE",
"336 344 LINE"
);
},
{
closed = 1;
nodes = (
"-50 607 LINE",
"554 607 LINE",
"554 500 LINE",
"-50 500 LINE"
);
},
{
closed = 1;
nodes = (
"454 340 LINE",
"228 340 LINE SMOOTH",
"205 340 OFFCURVE",
"190 336 OFFCURVE",
"190 311 CURVE SMOOTH",
"190 286 OFFCURVE",
"205 282 OFFCURVE",
"228 282 CURVE SMOOTH",
"280 282 LINE SMOOTH",
"432 282 OFFCURVE",
"479 256 OFFCURVE",
"479 143 CURVE SMOOTH",
"479 36 OFFCURVE",
"425 0 OFFCURVE",
"287 0 CURVE SMOOTH",
"231 0 OFFCURVE",
"192 7 OFFCURVE",
"164 19 CURVE",
"161 16 LINE",
"171 -12 OFFCURVE",
"173 -36 OFFCURVE",
"173 -74 CURVE",
"48 -74 LINE",
"48 157 LINE",
"151 157 LINE",
"151 149 LINE SMOOTH",
"151 120 OFFCURVE",
"168 113 OFFCURVE",
"245 113 CURVE SMOOTH",
"324 113 OFFCURVE",
"339 120 OFFCURVE",
"339 149 CURVE SMOOTH",
"339 178 OFFCURVE",
"326 185 OFFCURVE",
"252 185 CURVE SMOOTH",
"212 185 LINE SMOOTH",
"95 185 OFFCURVE",
"50 222 OFFCURVE",
"50 318 CURVE SMOOTH",
"50 413 OFFCURVE",
"102 447 OFFCURVE",
"224 447 CURVE SMOOTH",
"454 447 LINE"
);
}
);
width = 509;
}
);
unicode = 0907;
},
{
color = 6;
glyphname = dvII;
lastChange = "2016-05-21 11:21:02 +0000";
layers = (
{
components = (
{
name = dvI;
},
{
name = dvReph;
transform = "{1, 0, 0, 1, 522, 0}";
}
);
layerId = "632BC717-227E-41E7-B05B-9781150E6210";
width = 509;
},
{
associatedMasterId = "632BC717-227E-41E7-B05B-9781150E6210";
components = (
{
name = dvI;
}
);
layerId = "F8064968-444E-4ACC-9344-864B00D0955D";
name = "Regular Mar 16 16, 17:52";
paths = (
{
closed = 1;
nodes = (
"529 710 LINE",
"506 723 OFFCURVE",
"482 730 OFFCURVE",
"440 730 CURVE SMOOTH",
"386 730 OFFCURVE",
"378 720 OFFCURVE",
"378 673 CURVE SMOOTH",
"378 618 OFFCURVE",
"395 607 OFFCURVE",
"504 607 CURVE",
"504 528 LINE",
"366 579 LINE",
"339 579 OFFCURVE",
"265 602 OFFCURVE",
"265 703 CURVE SMOOTH",
"265 816 OFFCURVE",
"302 840 OFFCURVE",
"410 840 CURVE SMOOTH",
"465 840 OFFCURVE",
"511 826 OFFCURVE",
"535 802 CURVE",
"535 713 LINE"
);
},
{
closed = 1;
nodes = (
"543 762 LINE",
"519 766 OFFCURVE",
"487 768 OFFCURVE",
"462 768 CURVE SMOOTH",
"409 768 OFFCURVE",
"393 751 OFFCURVE",
"393 697 CURVE SMOOTH",
"393 641 OFFCURVE",
"429 603 OFFCURVE",
"481 576 CURVE",
"347 576 LINE",
"288 609 OFFCURVE",
"258 647 OFFCURVE",
"258 724 CURVE SMOOTH",
"258 849 OFFCURVE",
"307 883 OFFCURVE",
"444 883 CURVE SMOOTH",
"487 883 OFFCURVE",
"525 880 OFFCURVE",
"556 873 CURVE",
"552 766 LINE"
);
}
);
width = 488;
}
);
leftMetricsKey = dvI;
rightMetricsKey = dvI;
unicode = 0908;
},
{
color = 6;
glyphname = dvU;
lastChange = "2016-05-21 11:21:52 +0000";
layers = (
{
anchors = (
{
name = abvm.bindu;
position = "{328, 607}";
}
);
background = {
paths = (
{
closed = 1;
nodes = (
"49 438 LINE",
"49 553 LINE",
"95 569 OFFCURVE",
"140 579 OFFCURVE",
"199 579 CURVE SMOOTH",
"332 579 OFFCURVE",
"394 516 OFFCURVE",
"394 433 CURVE SMOOTH",
"394 350 OFFCURVE",
"365 304 OFFCURVE",
"272 295 CURVE",
"272 291 LINE",
"365 286 OFFCURVE",
"401 244 OFFCURVE",
"401 170 CURVE SMOOTH",
"401 39 OFFCURVE",
"347 4 OFFCURVE",
"205 0 CURVE SMOOTH",
"133 -2 OFFCURVE",
"52 6 OFFCURVE",
"0 22 CURVE",
"0 147 LINE",
"5 147 LINE",
"56 129 OFFCURVE",
"118 122 OFFCURVE",
"170 124 CURVE SMOOTH",
"233 126 OFFCURVE",
"252 136 OFFCURVE",
"252 179 CURVE SMOOTH",
"252 219 OFFCURVE",
"232 232 OFFCURVE",
"180 232 CURVE SMOOTH",
"125 232 LINE",
"125 354 LINE",
"169 354 LINE SMOOTH",
"231 354 OFFCURVE",
"252 366 OFFCURVE",
"252 405 CURVE SMOOTH",
"252 437 OFFCURVE",
"235 454 OFFCURVE",
"173 454 CURVE SMOOTH",
"133 454 OFFCURVE",
"88 447 OFFCURVE",
"52 437 CURVE"
);
}
);
};
layerId = "632BC717-227E-41E7-B05B-9781150E6210";
paths = (
{
closed = 1;
nodes = (
"-70 607 LINE",
"484 607 LINE",
"484 500 LINE",
"-70 500 LINE"
);
},
{
closed = 1;
nodes = (
"154 603 LINE",
"342 502 LINE",
"342 498 LINE",
"369 482 OFFCURVE",
"382 455 OFFCURVE",
"382 406 CURVE SMOOTH",
"382 351 OFFCURVE",
"355 321 OFFCURVE",
"289 312 CURVE",
"289 307 LINE",
"372 302 OFFCURVE",
"408 254 OFFCURVE",
"408 154 CURVE SMOOTH",
"408 58 OFFCURVE",
"347 0 OFFCURVE",
"221 0 CURVE SMOOTH",
"130 0 OFFCURVE",
"73 9 OFFCURVE",
"20 26 CURVE",
"20 148 LINE",
"24 148 LINE",
"66 134 OFFCURVE",
"116 124 OFFCURVE",
"176 124 CURVE SMOOTH",
"253 124 OFFCURVE",
"268 143 OFFCURVE",
"268 186 CURVE SMOOTH",
"268 229 OFFCURVE",
"255 248 OFFCURVE",
"184 248 CURVE SMOOTH",
"132 248 LINE",
"132 371 LINE",
"174 371 LINE SMOOTH",
"215 371 OFFCURVE",
"238 387 OFFCURVE",
"238 437 CURVE SMOOTH",
"238 487 OFFCURVE",
"217 500 OFFCURVE",
"154 500 CURVE"
);
}
);
width = 444;
},
{
associatedMasterId = "632BC717-227E-41E7-B05B-9781150E6210";
layerId = "CB002CB5-4368-4570-AEE5-1768D6882163";
name = "Regular Mar 26 16, 15:45";
paths = (
{
closed = 1;
nodes = (
"-50 607 LINE",
"501 607 LINE",
"501 500 LINE",
"-50 500 LINE"
);
},
{
closed = 1;
nodes = (
"164 603 LINE",
"299 524 LINE",
"309 524 OFFCURVE",
"318 523 OFFCURVE",
"327 522 CURVE SMOOTH",
"366 515 OFFCURVE",
"394 491 OFFCURVE",
"394 429 CURVE SMOOTH",
"394 362 OFFCURVE",
"369 306 OFFCURVE",
"299 308 CURVE",
"299 303 LINE",
"378 299 OFFCURVE",
"425 267 OFFCURVE",
"425 162 CURVE SMOOTH",
"425 40 OFFCURVE",
"357 0 OFFCURVE",
"211 0 CURVE SMOOTH",
"133 0 OFFCURVE",
"79 10 OFFCURVE",
"27 30 CURVE",
"27 145 LINE",
"31 145 LINE",
"69 132 OFFCURVE",
"113 123 OFFCURVE",
"167 123 CURVE SMOOTH",
"256 123 OFFCURVE",
"278 138 OFFCURVE",
"278 190 CURVE SMOOTH",
"278 233 OFFCURVE",
"255 248 OFFCURVE",
"194 248 CURVE SMOOTH",
"142 248 LINE",
"142 371 LINE",
"184 371 LINE SMOOTH",
"225 371 OFFCURVE",
"248 387 OFFCURVE",
"248 437 CURVE SMOOTH",
"248 487 OFFCURVE",
"227 500 OFFCURVE",
"164 500 CURVE"
);
}
);
width = 451;
},
{
associatedMasterId = "632BC717-227E-41E7-B05B-9781150E6210";
background = {
paths = (
{
closed = 1;
nodes = (
"76 456 LINE",
"76 567 LINE",
"122 583 OFFCURVE",
"187 593 OFFCURVE",
"246 593 CURVE SMOOTH",
"379 593 OFFCURVE",
"427 546 OFFCURVE",
"427 435 CURVE SMOOTH",
"427 337 OFFCURVE",
"379 303 OFFCURVE",
"299 303 CURVE",
"299 299 LINE",
"378 299 OFFCURVE",
"428 265 OFFCURVE",
"428 178 CURVE SMOOTH",
"428 41 OFFCURVE",
"374 6 OFFCURVE",
"232 2 CURVE SMOOTH",
"160 0 OFFCURVE",
"89 9 OFFCURVE",
"27 29 CURVE",
"27 155 LINE",
"32 155 LINE",
"83 137 OFFCURVE",
"145 130 OFFCURVE",
"197 132 CURVE SMOOTH",
"260 134 OFFCURVE",
"279 144 OFFCURVE",
"279 187 CURVE SMOOTH",
"279 227 OFFCURVE",
"259 240 OFFCURVE",
"207 240 CURVE SMOOTH",
"152 240 LINE",
"152 362 LINE",
"196 362 LINE SMOOTH",
"258 362 OFFCURVE",
"279 374 OFFCURVE",
"279 413 CURVE SMOOTH",
"279 455 OFFCURVE",
"262 472 OFFCURVE",
"200 472 CURVE SMOOTH",
"160 472 OFFCURVE",
"115 465 OFFCURVE",
"79 455 CURVE"
);
}
);
};
layerId = "83AD52C2-713C-4D87-BD1C-D37CEAB6FEB5";
name = "Regular Mar 31 16, 13:20";
paths = (
{
closed = 1;
nodes = (
"-50 607 LINE",
"501 607 LINE",
"501 500 LINE",
"-50 500 LINE"
);
},
{
closed = 1;
nodes = (
"164 603 LINE",
"354 502 LINE",
"354 498 LINE",
"383 483 OFFCURVE",
"396 455 OFFCURVE",
"394 403 CURVE SMOOTH",
"392 347 OFFCURVE",
"365 316 OFFCURVE",
"299 312 CURVE",
"299 307 LINE",
"388 303 OFFCURVE",
"425 254 OFFCURVE",
"425 154 CURVE SMOOTH",
"425 54 OFFCURVE",
"376 1 OFFCURVE",
"220 1 CURVE SMOOTH",
"142 1 OFFCURVE",
"79 10 OFFCURVE",
"27 29 CURVE",
"27 155 LINE",
"31 155 LINE",
"73 141 OFFCURVE",
"121 132 OFFCURVE",
"186 132 CURVE SMOOTH",
"264 132 OFFCURVE",
"278 147 OFFCURVE",
"278 190 CURVE SMOOTH",
"278 233 OFFCURVE",
"265 248 OFFCURVE",
"194 248 CURVE SMOOTH",
"142 248 LINE",
"142 371 LINE",
"184 371 LINE SMOOTH",
"225 371 OFFCURVE",
"248 387 OFFCURVE",
"248 437 CURVE SMOOTH",
"248 487 OFFCURVE",
"227 500 OFFCURVE",
"164 500 CURVE"
);
}
);
width = 451;
}
);
unicode = 0909;
},
{
color = 6;
glyphname = dvUU;
lastChange = "2016-05-21 11:21:57 +0000";
layers = (
{
anchors = (
{
name = abvm.bindu;
position = "{328, 607}";
}
);
background = {
paths = (
{
closed = 1;
nodes = (
"155 603 LINE",
"343 502 LINE",
"343 498 LINE",
"370 482 OFFCURVE",
"383 455 OFFCURVE",
"383 406 CURVE SMOOTH",
"383 351 OFFCURVE",
"356 321 OFFCURVE",
"290 312 CURVE",
"290 307 LINE",
"373 302 OFFCURVE",
"409 254 OFFCURVE",
"409 154 CURVE SMOOTH",
"409 58 OFFCURVE",
"348 0 OFFCURVE",
"222 0 CURVE SMOOTH",
"135 0 OFFCURVE",
"74 9 OFFCURVE",
"21 26 CURVE",
"21 148 LINE",
"25 148 LINE",
"67 134 OFFCURVE",
"117 124 OFFCURVE",
"177 124 CURVE SMOOTH",
"254 124 OFFCURVE",
"269 143 OFFCURVE",
"269 186 CURVE SMOOTH",
"269 229 OFFCURVE",
"256 248 OFFCURVE",
"185 248 CURVE SMOOTH",
"133 248 LINE",
"133 371 LINE",
"175 371 LINE SMOOTH",
"216 371 OFFCURVE",
"239 387 OFFCURVE",
"239 437 CURVE SMOOTH",
"239 487 OFFCURVE",
"218 500 OFFCURVE",
"155 500 CURVE"
);
}
);
};
layerId = "632BC717-227E-41E7-B05B-9781150E6210";
paths = (
{
closed = 1;
nodes = (
"345 502 LINE",
"345 498 LINE",
"371 485 OFFCURVE",
"385 457 OFFCURVE",
"385 418 CURVE SMOOTH",
"385 372 OFFCURVE",
"357 344 OFFCURVE",
"322 325 CURVE",
"325 320 LINE",
"367 346 OFFCURVE",
"435 365 OFFCURVE",
"493 365 CURVE SMOOTH",
"605 365 OFFCURVE",
"654 322 OFFCURVE",
"654 188 CURVE SMOOTH",
"654 46 OFFCURVE",
"593 17 OFFCURVE",
"496 20 CURVE SMOOTH",
"467 21 LINE",
"467 134 LINE",
"469 137 LINE",
"504 138 OFFCURVE",
"516 159 OFFCURVE",
"516 201 CURVE SMOOTH",
"516 240 OFFCURVE",
"479 259 OFFCURVE",
"417 259 CURVE SMOOTH",
"375 259 OFFCURVE",
"352 255 OFFCURVE",
"318 246 CURVE",
"318 243 LINE",
"372 244 OFFCURVE",
"408 203 OFFCURVE",
"408 139 CURVE SMOOTH",
"408 64 OFFCURVE",
"350 0 OFFCURVE",
"205 0 CURVE SMOOTH",
"117 0 OFFCURVE",
"50 13 OFFCURVE",
"20 25 CURVE",
"20 148 LINE",
"24 148 LINE",
"54 136 OFFCURVE",
"111 124 OFFCURVE",
"158 124 CURVE SMOOTH",
"249 124 OFFCURVE",
"269 139 OFFCURVE",
"269 188 CURVE SMOOTH",
"269 236 OFFCURVE",
"242 248 OFFCURVE",
"186 248 CURVE SMOOTH",
"134 248 LINE",
"134 371 LINE",
"176 371 LINE SMOOTH",
"221 371 OFFCURVE",
"240 393 OFFCURVE",
"240 437 CURVE SMOOTH",
"240 488 OFFCURVE",
"206 500 OFFCURVE",
"144 500 CURVE"
);
},
{
closed = 1;
nodes = (
"-70 500 LINE",
"-70 607 LINE",
"728 607 LINE",
"728 500 LINE"
);
}
);
width = 668;
},
{
associatedMasterId = "632BC717-227E-41E7-B05B-9781150E6210";
background = {
paths = (
{
closed = 1;
nodes = (
"174 603 LINE",
"354 502 LINE",
"354 497 LINE",
"389 488 OFFCURVE",
"404 463 OFFCURVE",
"404 403 CURVE SMOOTH",
"404 343 OFFCURVE",
"382 306 OFFCURVE",
"309 308 CURVE",
"309 303 LINE",
"388 299 OFFCURVE",
"435 267 OFFCURVE",
"435 162 CURVE SMOOTH",
"435 40 OFFCURVE",
"367 0 OFFCURVE",
"221 0 CURVE SMOOTH",
"143 0 OFFCURVE",
"89 10 OFFCURVE",
"37 30 CURVE",
"37 145 LINE",
"41 145 LINE",
"79 132 OFFCURVE",
"123 123 OFFCURVE",
"177 123 CURVE SMOOTH",
"266 123 OFFCURVE",
"288 138 OFFCURVE",
"288 190 CURVE SMOOTH",
"288 233 OFFCURVE",
"265 248 OFFCURVE",
"204 248 CURVE SMOOTH",
"152 248 LINE",
"152 371 LINE",
"194 371 LINE SMOOTH",
"235 371 OFFCURVE",
"258 387 OFFCURVE",
"258 437 CURVE SMOOTH",
"258 487 OFFCURVE",
"237 500 OFFCURVE",
"174 500 CURVE"
);
}
);
};
layerId = "6AFA39BB-CB84-4B44-AFFF-AF7940BB8B46";
name = "Regular Mar 26 16, 15:56";
paths = (
{
closed = 1;
nodes = (
"-50 607 LINE",
"748 607 LINE",
"748 500 LINE",
"-50 500 LINE"
);
},
{
closed = 1;
nodes = (
"487 137 LINE",
"523 138 OFFCURVE",
"534 152 OFFCURVE",
"534 184 CURVE SMOOTH",
"534 237 OFFCURVE",
"523 260 OFFCURVE",
"431 260 CURVE SMOOTH",
"390 260 OFFCURVE",
"332 249 OFFCURVE",
"297 234 CURVE",
"297 319 LINE",
"342 334 OFFCURVE",
"402 365 OFFCURVE",
"474 365 CURVE SMOOTH",
"611 365 OFFCURVE",
"672 322 OFFCURVE",
"672 188 CURVE SMOOTH",
"672 46 OFFCURVE",
"611 20 OFFCURVE",
"514 20 CURVE",
"485 21 LINE",
"485 134 LINE"
);
},
{
closed = 1;
nodes = (
"174 603 LINE",
"352 501 LINE",
"352 497 LINE",
"384 492 OFFCURVE",
"404 462 OFFCURVE",
"404 423 CURVE SMOOTH",
"404 355 OFFCURVE",
"367 341 OFFCURVE",
"312 319 CURVE",
"312 260 LINE",
"387 260 OFFCURVE",
"434 233 OFFCURVE",
"434 149 CURVE SMOOTH",
"434 69 OFFCURVE",
"388 1 OFFCURVE",
"223 1 CURVE SMOOTH",
"132 1 OFFCURVE",
"64 17 OFFCURVE",
"36 30 CURVE",
"36 145 LINE",
"40 145 LINE",
"70 134 OFFCURVE",
"114 123 OFFCURVE",
"181 123 CURVE SMOOTH",
"272 123 OFFCURVE",
"287 139 OFFCURVE",
"287 188 CURVE SMOOTH",
"287 236 OFFCURVE",
"260 248 OFFCURVE",
"204 248 CURVE SMOOTH",
"152 248 LINE",
"152 371 LINE",
"194 371 LINE SMOOTH",
"239 371 OFFCURVE",
"258 393 OFFCURVE",
"258 437 CURVE SMOOTH",
"258 482 OFFCURVE",
"241 500 OFFCURVE",
"174 500 CURVE"
);
}
);
width = 698;
},
{
associatedMasterId = "632BC717-227E-41E7-B05B-9781150E6210";
background = {
paths = (
{
closed = 1;
nodes = (
"173 603 LINE",
"363 502 LINE",
"363 498 LINE",
"392 483 OFFCURVE",
"405 455 OFFCURVE",
"403 403 CURVE SMOOTH",
"401 347 OFFCURVE",
"374 316 OFFCURVE",
"308 312 CURVE",
"308 307 LINE",
"397 303 OFFCURVE",
"434 254 OFFCURVE",
"434 154 CURVE SMOOTH",
"434 54 OFFCURVE",
"385 1 OFFCURVE",
"229 1 CURVE SMOOTH",
"151 1 OFFCURVE",
"88 10 OFFCURVE",
"36 29 CURVE",
"36 155 LINE",
"40 155 LINE",
"82 141 OFFCURVE",
"130 132 OFFCURVE",
"195 132 CURVE SMOOTH",
"273 132 OFFCURVE",
"287 147 OFFCURVE",
"287 190 CURVE SMOOTH",
"287 233 OFFCURVE",
"274 248 OFFCURVE",
"203 248 CURVE SMOOTH",
"151 248 LINE",
"151 371 LINE",
"193 371 LINE SMOOTH",
"234 371 OFFCURVE",
"257 387 OFFCURVE",
"257 437 CURVE SMOOTH",
"257 487 OFFCURVE",
"236 500 OFFCURVE",
"173 500 CURVE"
);
}
);
};
layerId = "52843EEA-B70D-4BBD-8B41-E35E14FB6074";
name = "Regular Mar 31 16, 13:25";
paths = (
{
closed = 1;
nodes = (
"363 502 LINE",
"363 498 LINE",
"391 485 OFFCURVE",
"405 457 OFFCURVE",
"405 418 CURVE SMOOTH",
"405 372 OFFCURVE",
"377 344 OFFCURVE",
"340 325 CURVE",
"343 320 LINE",
"385 346 OFFCURVE",
"453 365 OFFCURVE",
"511 365 CURVE SMOOTH",
"623 365 OFFCURVE",
"672 322 OFFCURVE",
"672 188 CURVE SMOOTH",
"672 46 OFFCURVE",
"611 20 OFFCURVE",
"514 20 CURVE SMOOTH",
"485 21 LINE",
"485 134 LINE",
"487 137 LINE",
"522 138 OFFCURVE",
"534 159 OFFCURVE",
"534 201 CURVE SMOOTH",
"534 240 OFFCURVE",
"497 259 OFFCURVE",
"435 259 CURVE SMOOTH",
"393 259 OFFCURVE",
"370 255 OFFCURVE",
"336 246 CURVE",
"336 243 LINE",
"395 244 OFFCURVE",
"434 203 OFFCURVE",
"434 139 CURVE SMOOTH",
"434 44 OFFCURVE",
"388 1 OFFCURVE",
"223 1 CURVE SMOOTH",
"132 1 OFFCURVE",
"64 17 OFFCURVE",
"36 30 CURVE",
"36 145 LINE",
"40 145 LINE",
"70 134 OFFCURVE",
"114 123 OFFCURVE",
"181 123 CURVE SMOOTH",
"272 123 OFFCURVE",
"287 139 OFFCURVE",
"287 188 CURVE SMOOTH",
"287 236 OFFCURVE",
"260 248 OFFCURVE",
"204 248 CURVE SMOOTH",
"152 248 LINE",
"152 371 LINE",
"194 371 LINE SMOOTH",
"239 371 OFFCURVE",
"258 393 OFFCURVE",
"258 437 CURVE SMOOTH",
"258 488 OFFCURVE",
"224 500 OFFCURVE",
"162 500 CURVE"
);
},
{
closed = 1;
nodes = (
"-50 500 LINE",
"-50 607 LINE",
"748 607 LINE",
"748 500 LINE"
);
}
);
width = 698;
}
);
leftMetricsKey = dvU;
unicode = 090A;
},
{
color = 6;
glyphname = dvvR;
lastChange = "2016-05-21 11:22:55 +0000";
layers = (
{
anchors = (
{
name = abvm.bindu;
position = "{520, 607}";
},
{
name = abvm.e;
position = "{523, 607}";
}
);
layerId = "632BC717-227E-41E7-B05B-9781150E6210";
paths = (
{
closed = 1;
nodes = (
"214 7 LINE",
"368 125 LINE",
"375 125 LINE",
"375 254 LINE",
"265 198 OFFCURVE",
"101 88 OFFCURVE",
"1 12 CURVE",
"1 7 LINE"
);
},
{
closed = 1;
nodes = (
"181 213 LINE",
"181 266 OFFCURVE",
"207 279 OFFCURVE",
"286 279 CURVE SMOOTH",
"335 279 OFFCURVE",
"370 268 OFFCURVE",
"386 239 CURVE",
"386 366 LINE",
"370 388 OFFCURVE",
"300 407 OFFCURVE",
"223 407 CURVE SMOOTH",
"90 407 OFFCURVE",
"33 370 OFFCURVE",
"33 213 CURVE"
);
},
{
closed = 1;
nodes = (
"520 9 LINE",
"520 501 LINE",
"372 501 LINE",
"372 9 LINE"
);
},
{
closed = 1;
nodes = (
"930 500 LINE",
"930 607 LINE",
"-8 607 LINE",
"-8 500 LINE"
);
},
{
closed = 1;
nodes = (
"873 201 LINE",
"873 420 LINE",
"732 420 LINE",
"732 403 LINE SMOOTH",
"732 379 OFFCURVE",
"726 375 OFFCURVE",
"693 375 CURVE SMOOTH",
"418 375 LINE",
"418 250 LINE",
"664 250 LINE SMOOTH",
"698 250 OFFCURVE",
"721 253 OFFCURVE",
"735 260 CURVE",
"737 259 LINE",
"737 201 LINE"
);
},
{
closed = 1;
nodes = (
"870 45 LINE",
"843 39 OFFCURVE",
"813 36 OFFCURVE",
"785 36 CURVE SMOOTH",
"732 36 OFFCURVE",
"712 42 OFFCURVE",
"712 73 CURVE SMOOTH",
"712 103 OFFCURVE",
"730 110 OFFCURVE",
"766 110 CURVE SMOOTH",
"873 110 LINE",
"873 206 LINE",
"783 206 LINE SMOOTH",
"647 206 OFFCURVE",
"593 173 OFFCURVE",
"593 72 CURVE SMOOTH",
"593 -32 OFFCURVE",
"647 -61 OFFCURVE",
"783 -61 CURVE SMOOTH",
"813 -61 OFFCURVE",
"845 -58 OFFCURVE",
"873 -51 CURVE",
"873 43 LINE"
);
}
);
width = 920;
}
);
unicode = 090B;
},
{
color = 6;
glyphname = dvvRR;
lastChange = "2016-05-21 11:23:10 +0000";
layers = (
{
anchors = (
{
name = abvm.bindu;
position = "{520, 607}";
},
{
name = abvm.e;
position = "{523, 607}";
}
);
layerId = "632BC717-227E-41E7-B05B-9781150E6210";
paths = (
{
closed = 1;
nodes = (
"214 7 LINE",
"368 125 LINE",
"375 125 LINE",
"375 254 LINE",
"265 198 OFFCURVE",
"101 88 OFFCURVE",
"1 12 CURVE",
"1 7 LINE"
);
},
{
closed = 1;
nodes = (
"181 213 LINE",
"181 266 OFFCURVE",
"207 279 OFFCURVE",
"286 279 CURVE SMOOTH",
"335 279 OFFCURVE",
"370 268 OFFCURVE",
"386 239 CURVE",
"386 366 LINE",
"370 388 OFFCURVE",
"300 407 OFFCURVE",
"223 407 CURVE SMOOTH",
"90 407 OFFCURVE",
"33 370 OFFCURVE",
"33 213 CURVE"
);
},
{
closed = 1;
nodes = (
"520 9 LINE",
"520 501 LINE",
"372 501 LINE",
"372 9 LINE"
);
},
{
closed = 1;
nodes = (
"930 500 LINE",
"930 607 LINE",
"-8 607 LINE",
"-8 500 LINE"
);
},
{
closed = 1;
nodes = (
"623 -188 OFFCURVE",
"677 -217 OFFCURVE",
"813 -217 CURVE SMOOTH",
"843 -217 OFFCURVE",
"875 -214 OFFCURVE",
"903 -207 CURVE",
"903 -113 LINE",
"900 -111 LINE",
"873 -117 OFFCURVE",
"843 -120 OFFCURVE",
"815 -120 CURVE SMOOTH",
"762 -120 OFFCURVE",
"742 -114 OFFCURVE",
"742 -78 CURVE SMOOTH",
"742 -48 OFFCURVE",
"755 -38 OFFCURVE",
"782 -37 CURVE",
"807 -37 LINE",
"863 -37 LINE",
"863 50 LINE",
"813 50 LINE",
"807 50 LINE SMOOTH",
"760 50 OFFCURVE",
"742 54 OFFCURVE",
"742 93 CURVE SMOOTH",
"742 123 OFFCURVE",
"760 134 OFFCURVE",
"796 134 CURVE SMOOTH",
"873 134 LINE",
"873 220 LINE",
"813 220 LINE SMOOTH",
"677 220 OFFCURVE",
"623 190 OFFCURVE",
"623 86 CURVE SMOOTH",
"623 46 OFFCURVE",
"639 21 OFFCURVE",
"669 2 CURVE",
"669 0 LINE",
"640 -20 OFFCURVE",
"623 -44 OFFCURVE",
"623 -84 CURVE SMOOTH"
);
},
{
closed = 1;
nodes = (
"873 201 LINE",
"873 420 LINE",
"732 420 LINE",
"732 403 LINE SMOOTH",
"732 379 OFFCURVE",
"726 375 OFFCURVE",
"693 375 CURVE SMOOTH",
"418 375 LINE",
"418 250 LINE",
"664 250 LINE SMOOTH",
"698 250 OFFCURVE",
"721 253 OFFCURVE",
"735 260 CURVE",
"737 259 LINE",
"737 201 LINE"
);
}
);
width = 920;
}
);
unicode = 0960;
},
{
color = 6;
glyphname = dvvL;
lastChange = "2016-05-19 21:47:13 +0000";
layers = (
{
layerId = "632BC717-227E-41E7-B05B-9781150E6210";
paths = (
{
closed = 1;
nodes = (
"236 9 LINE",
"236 14 LINE",
"197 79 OFFCURVE",
"181 138 OFFCURVE",
"181 203 CURVE SMOOTH",
"181 270 OFFCURVE",
"200 294 OFFCURVE",
"252 294 CURVE SMOOTH",
"299 294 OFFCURVE",
"320 274 OFFCURVE",
"320 193 CURVE SMOOTH",
"320 146 LINE",
"452 146 LINE",
"452 193 LINE SMOOTH",
"452 277 OFFCURVE",
"469 294 OFFCURVE",
"520 294 CURVE SMOOTH",
"567 294 OFFCURVE",
"586 277 OFFCURVE",
"586 193 CURVE",
"706 193 LINE",
"704 317 OFFCURVE",
"704 333 OFFCURVE",
"635 358 CURVE",
"631 374 OFFCURVE",
"599 393 OFFCURVE",
"585 395 CURVE",
"583 393 LINE",
"568 410 OFFCURVE",
"543 419 OFFCURVE",
"512 419 CURVE SMOOTH",
"426 419 OFFCURVE",
"392 383 OFFCURVE",
"382 326 CURVE",
"379 326 LINE",
"370 383 OFFCURVE",
"323 420 OFFCURVE",
"218 420 CURVE SMOOTH",
"97 420 OFFCURVE",
"33 366 OFFCURVE",
"33 236 CURVE SMOOTH",
"33 159 OFFCURVE",
"55 81 OFFCURVE",
"94 9 CURVE"
);
},
{
closed = 1;
nodes = (
"834 500 LINE",
"834 607 LINE",
"-10 607 LINE",
"-10 500 LINE"
);
},
{
closed = 1;
nodes = (
"733 99 LINE",
"733 501 LINE",
"585 501 LINE",
"585 99 LINE"
);
},
{
closed = 1;
nodes = (
"730 -5 LINE",
"703 -11 OFFCURVE",
"673 -14 OFFCURVE",
"645 -14 CURVE SMOOTH",
"592 -14 OFFCURVE",
"572 -8 OFFCURVE",
"572 23 CURVE SMOOTH",
"572 53 OFFCURVE",
"590 60 OFFCURVE",
"626 60 CURVE SMOOTH",
"733 60 LINE",
"733 156 LINE",
"643 156 LINE SMOOTH",
"507 156 OFFCURVE",
"453 126 OFFCURVE",
"453 22 CURVE SMOOTH",
"453 -82 OFFCURVE",
"507 -111 OFFCURVE",
"643 -111 CURVE SMOOTH",
"673 -111 OFFCURVE",
"705 -108 OFFCURVE",
"733 -101 CURVE",
"733 -7 LINE"
);
}
);
width = 799;
},
{
associatedMasterId = "632BC717-227E-41E7-B05B-9781150E6210";
layerId = "5D4DF4B8-4762-4D19-9633-35392EF59214";
name = "Regular May 17 16, 06:58";
paths = (
{
closed = 1;
nodes = (
"236 9 LINE",
"236 14 LINE",
"197 79 OFFCURVE",
"181 138 OFFCURVE",
"181 203 CURVE SMOOTH",
"181 270 OFFCURVE",
"200 294 OFFCURVE",
"252 294 CURVE SMOOTH",
"299 294 OFFCURVE",
"320 274 OFFCURVE",
"320 193 CURVE SMOOTH",
"320 126 LINE",
"452 126 LINE",
"452 193 LINE SMOOTH",
"452 277 OFFCURVE",
"469 294 OFFCURVE",
"520 294 CURVE SMOOTH",
"567 294 OFFCURVE",
"586 277 OFFCURVE",
"586 193 CURVE",
"706 193 LINE",
"704 317 OFFCURVE",
"704 333 OFFCURVE",
"635 358 CURVE",
"631 374 OFFCURVE",
"599 393 OFFCURVE",
"585 395 CURVE",
"583 393 LINE",
"568 410 OFFCURVE",
"543 419 OFFCURVE",
"512 419 CURVE SMOOTH",
"426 419 OFFCURVE",
"392 383 OFFCURVE",
"382 326 CURVE",
"379 326 LINE",
"370 383 OFFCURVE",
"323 420 OFFCURVE",
"218 420 CURVE SMOOTH",
"97 420 OFFCURVE",
"33 366 OFFCURVE",
"33 236 CURVE SMOOTH",
"33 159 OFFCURVE",
"55 81 OFFCURVE",
"94 9 CURVE"
);
},
{
closed = 1;
nodes = (
"714 -88 OFFCURVE",
"731 -87 OFFCURVE",
"747 -84 CURVE",
"748 24 LINE",
"746 28 LINE",
"735 26 OFFCURVE",
"725 25 OFFCURVE",
"713 25 CURVE SMOOTH",
"661 25 OFFCURVE",
"645 43 OFFCURVE",
"645 85 CURVE SMOOTH",
"645 131 OFFCURVE",
"690 186 OFFCURVE",
"734 199 CURVE",
"585 199 LINE",
"585 194 LINE",
"546 165 OFFCURVE",
"519 110 OFFCURVE",
"519 53 CURVE SMOOTH",
"519 -40 OFFCURVE",
"567 -88 OFFCURVE",
"696 -88 CURVE SMOOTH"
);
},
{
closed = 1;
nodes = (
"834 500 LINE",
"834 607 LINE",
"-10 607 LINE",
"-10 500 LINE"
);
},
{
closed = 1;
nodes = (
"734 199 LINE",
"734 501 LINE",
"585 501 LINE",
"585 199 LINE"
);
}
);
width = 799;
}
);
unicode = 090C;
},
{
color = 6;
glyphname = dvvLL;
lastChange = "2016-05-21 11:23:31 +0000";
layers = (
{
layerId = "632BC717-227E-41E7-B05B-9781150E6210";
paths = (
{
closed = 1;
nodes = (
"833 500 LINE",
"833 607 LINE",
"-10 607 LINE",
"-10 500 LINE"
);
},
{
closed = 1;
nodes = (
"733 149 LINE",
"733 501 LINE",
"585 501 LINE",
"585 149 LINE"
);
},
{
closed = 1;
nodes = (
"236 14 LINE",
"197 79 OFFCURVE",
"181 138 OFFCURVE",
"181 203 CURVE SMOOTH",
"181 270 OFFCURVE",
"200 294 OFFCURVE",
"252 294 CURVE SMOOTH",
"299 294 OFFCURVE",
"320 274 OFFCURVE",
"320 193 CURVE SMOOTH",
"320 156 LINE",
"452 156 LINE",
"452 193 LINE SMOOTH",
"452 277 OFFCURVE",
"469 294 OFFCURVE",
"520 294 CURVE SMOOTH",
"567 294 OFFCURVE",
"586 277 OFFCURVE",
"586 193 CURVE",
"706 193 LINE",
"704 317 OFFCURVE",
"704 333 OFFCURVE",
"635 358 CURVE",
"631 374 OFFCURVE",
"599 393 OFFCURVE",
"585 395 CURVE",
"583 393 LINE",
"568 410 OFFCURVE",
"543 419 OFFCURVE",
"512 419 CURVE SMOOTH",
"426 419 OFFCURVE",
"392 383 OFFCURVE",
"382 326 CURVE",
"379 326 LINE",
"370 383 OFFCURVE",
"323 420 OFFCURVE",
"218 420 CURVE SMOOTH",
"97 420 OFFCURVE",
"33 366 OFFCURVE",
"33 236 CURVE SMOOTH",
"33 159 OFFCURVE",
"55 81 OFFCURVE",
"94 9 CURVE",
"236 9 LINE"
);
},
{
closed = 1;
nodes = (
"473 -248 OFFCURVE",
"527 -277 OFFCURVE",
"663 -277 CURVE SMOOTH",
"693 -277 OFFCURVE",
"725 -274 OFFCURVE",
"753 -267 CURVE",
"753 -173 LINE",
"750 -171 LINE",
"723 -177 OFFCURVE",
"693 -180 OFFCURVE",
"665 -180 CURVE SMOOTH",
"612 -180 OFFCURVE",
"592 -174 OFFCURVE",
"592 -138 CURVE SMOOTH",
"592 -108 OFFCURVE",
"605 -98 OFFCURVE",
"632 -97 CURVE",
"657 -97 LINE",
"713 -97 LINE",
"713 -10 LINE",
"663 -10 LINE",
"657 -10 LINE SMOOTH",
"610 -10 OFFCURVE",
"592 -6 OFFCURVE",
"592 33 CURVE SMOOTH",
"592 63 OFFCURVE",
"610 74 OFFCURVE",
"646 74 CURVE SMOOTH",
"733 74 LINE",
"733 160 LINE",
"663 160 LINE SMOOTH",
"527 160 OFFCURVE",
"473 130 OFFCURVE",
"473 26 CURVE SMOOTH",
"473 -14 OFFCURVE",
"489 -39 OFFCURVE",
"519 -58 CURVE",
"519 -60 LINE",
"490 -80 OFFCURVE",
"473 -104 OFFCURVE",
"473 -144 CURVE SMOOTH"
);
}
);
width = 793;
},
{
associatedMasterId = "632BC717-227E-41E7-B05B-9781150E6210";
layerId = "0F1A1246-772C-4B0A-B4DB-3052EBA97293";
name = "Regular Apr 25 16, 18:29";
paths = (
{
closed = 1;
nodes = (
"-25 607 LINE",
"881 607 LINE",
"881 500 LINE",
"-25 500 LINE"
);
},
{
closed = 1;
nodes = (
"633 501 LINE",
"781 501 LINE",
"781 9 LINE",
"633 9 LINE"
);
},
{
closed = 1;
nodes = (
"586 333 LINE",
"574 336 OFFCURVE",
"559 337 OFFCURVE",
"539 337 CURVE SMOOTH",
"505 337 OFFCURVE",
"474 324 OFFCURVE",
"474 288 CURVE SMOOTH",
"474 249 OFFCURVE",
"505 240 OFFCURVE",
"540 240 CURVE SMOOTH",
"598 240 OFFCURVE",
"626 249 OFFCURVE",
"644 266 CURVE",
"646 264 LINE",
"633 93 LINE",
"629 95 LINE",
"608 25 OFFCURVE",
"562 -9 OFFCURVE",
"350 -9 CURVE SMOOTH",
"64 -9 OFFCURVE",
"18 51 OFFCURVE",
"18 211 CURVE SMOOTH",
"18 351 LINE",
"66 351 LINE SMOOTH",
"172 351 OFFCURVE",
"189 365 OFFCURVE",
"189 433 CURVE SMOOTH",
"189 556 LINE",
"331 556 LINE",
"331 407 LINE SMOOTH",
"331 294 OFFCURVE",
"276 241 OFFCURVE",
"161 241 CURVE SMOOTH",
"157 241 LINE",
"157 212 LINE SMOOTH",
"157 137 OFFCURVE",
"196 114 OFFCURVE",
"336 114 CURVE SMOOTH",
"501 114 OFFCURVE",
"524 121 OFFCURVE",
"533 145 CURVE",
"533 148 LINE",
"517 145 OFFCURVE",
"501 144 OFFCURVE",
"486 144 CURVE SMOOTH",
"403 144 OFFCURVE",
"346 188 OFFCURVE",
"346 289 CURVE SMOOTH",
"346 415 OFFCURVE",
"419 445 OFFCURVE",
"508 445 CURVE SMOOTH",
"537 445 OFFCURVE",
"563 443 OFFCURVE",
"586 438 CURVE"
);
}
);
width = 846;
},
{
associatedMasterId = "632BC717-227E-41E7-B05B-9781150E6210";
layerId = "BC6A278A-41F5-4421-84C2-1BB5E6D1AB2F";
name = "Regular May 17 16, 07:00";
paths = (
{
closed = 1;
nodes = (
"834 500 LINE",
"834 607 LINE",
"-10 607 LINE",
"-10 500 LINE"
);
},
{
closed = 1;
nodes = (
"734 149 LINE",
"734 501 LINE",
"585 501 LINE",
"585 199 LINE"
);
},
{
closed = 1;
nodes = (
"236 14 LINE",
"197 79 OFFCURVE",
"181 138 OFFCURVE",
"181 203 CURVE SMOOTH",
"181 270 OFFCURVE",
"200 294 OFFCURVE",
"252 294 CURVE SMOOTH",
"299 294 OFFCURVE",
"320 274 OFFCURVE",
"320 193 CURVE SMOOTH",
"320 126 LINE",
"452 126 LINE",
"452 193 LINE SMOOTH",
"452 277 OFFCURVE",
"469 294 OFFCURVE",
"520 294 CURVE SMOOTH",
"567 294 OFFCURVE",
"586 277 OFFCURVE",
"586 193 CURVE",
"706 193 LINE",
"704 317 OFFCURVE",
"704 333 OFFCURVE",
"635 358 CURVE",
"631 374 OFFCURVE",
"599 393 OFFCURVE",
"585 395 CURVE",
"583 393 LINE",
"568 410 OFFCURVE",
"543 419 OFFCURVE",
"512 419 CURVE SMOOTH",
"426 419 OFFCURVE",
"392 383 OFFCURVE",
"382 326 CURVE",
"379 326 LINE",
"370 383 OFFCURVE",
"323 420 OFFCURVE",
"218 420 CURVE SMOOTH",
"97 420 OFFCURVE",
"33 366 OFFCURVE",
"33 236 CURVE SMOOTH",
"33 159 OFFCURVE",
"55 81 OFFCURVE",
"94 9 CURVE",
"236 9 LINE"
);
},
{
closed = 1;
nodes = (
"781 -114 LINE",
"760 -121 OFFCURVE",
"736 -124 OFFCURVE",
"709 -125 CURVE SMOOTH",
"647 -127 OFFCURVE",
"628 -113 OFFCURVE",
"629 -83 CURVE SMOOTH",
"630 -59 OFFCURVE",
"647 -45 OFFCURVE",
"709 -49 CURVE SMOOTH",
"724 -50 LINE",
"724 46 LINE",
"710 45 LINE SMOOTH",
"641 40 OFFCURVE",
"623 58 OFFCURVE",
"623 99 CURVE SMOOTH",
"623 147 OFFCURVE",
"710 146 OFFCURVE",
"734 149 CURVE",
"585 204 LINE",
"585 199 LINE",
"553 196 OFFCURVE",
"502 154 OFFCURVE",
"502 100 CURVE SMOOTH",
"502 41 OFFCURVE",
"539 6 OFFCURVE",
"604 4 CURVE",
"605 1 LINE",
"543 -3 OFFCURVE",
"509 -39 OFFCURVE",
"509 -93 CURVE SMOOTH",
"509 -185 OFFCURVE",
"558 -227 OFFCURVE",
"675 -227 CURVE SMOOTH",
"716 -227 OFFCURVE",
"751 -222 OFFCURVE",
"781 -214 CURVE"
);
}
);
width = 794;
}
);
rightMetricsKey = dvmAA;
unicode = 0961;
},
{
color = 6;
glyphname = dvE;
lastChange = "2016-05-21 11:24:00 +0000";
layers = (
{
anchors = (
{
name = abvm.bindu;
position = "{506, 607}";
}
);
background = {
paths = (
{
closed = 1;
nodes = (
"255 500 OFFCURVE",
"244 487 OFFCURVE",
"244 437 CURVE SMOOTH",
"244 387 OFFCURVE",
"257 371 OFFCURVE",
"308 371 CURVE SMOOTH",
"350 371 LINE",
"350 248 LINE",
"298 248 LINE SMOOTH",
"237 248 OFFCURVE",
"214 233 OFFCURVE",
"214 190 CURVE SMOOTH",
"214 138 OFFCURVE",
"236 123 OFFCURVE",
"325 123 CURVE SMOOTH",
"379 123 OFFCURVE",
"423 132 OFFCURVE",
"461 145 CURVE",
"465 145 LINE",
"465 30 LINE",
"413 10 OFFCURVE",
"359 0 OFFCURVE",
"281 0 CURVE SMOOTH",
"135 0 OFFCURVE",
"67 40 OFFCURVE",
"67 162 CURVE SMOOTH",
"67 267 OFFCURVE",
"114 299 OFFCURVE",
"193 303 CURVE",
"193 308 LINE",
"123 306 OFFCURVE",
"98 362 OFFCURVE",
"98 429 CURVE SMOOTH",
"98 505 OFFCURVE",
"125 524 OFFCURVE",
"199 524 CURVE",
"233 562 OFFCURVE",
"241 603 OFFCURVE",
"328 603 CURVE",
"328 500 LINE"
);
}
);
};
layerId = "632BC717-227E-41E7-B05B-9781150E6210";
paths = (
{
closed = 1;
nodes = (
"242 336 LINE",
"242 227 LINE",
"270 219 OFFCURVE",
"305 213 OFFCURVE",
"345 213 CURVE SMOOTH",
"449 213 OFFCURVE",
"506 266 OFFCURVE",
"506 395 CURVE SMOOTH",
"506 515 LINE",
"369 515 LINE",
"369 400 LINE SMOOTH",
"369 345 OFFCURVE",
"358 330 OFFCURVE",
"308 330 CURVE SMOOTH",
"286 330 OFFCURVE",
"263 333 OFFCURVE",
"246 337 CURVE"
);
},
{
closed = 1;
nodes = (
"606 500 LINE",
"606 607 LINE",
"-40 607 LINE",
"-40 500 LINE"
);
},
{
closed = 1;
nodes = (
"502 152 LINE",
"461 142 OFFCURVE",
"398 132 OFFCURVE",
"331 132 CURVE SMOOTH",
"219 132 OFFCURVE",
"196 153 OFFCURVE",
"196 246 CURVE SMOOTH",
"196 525 LINE",
"49 525 LINE",
"49 267 LINE SMOOTH",
"49 78 OFFCURVE",
"116 6 OFFCURVE",
"280 6 CURVE SMOOTH",
"377 6 OFFCURVE",
"451 20 OFFCURVE",
"506 33 CURVE",
"506 150 LINE"
);
}
);
width = 549;
}
);
unicode = 090F;
},
{
color = 6;
glyphname = dvmAA;
lastChange = "2016-05-21 11:20:47 +0000";
layers = (
{
anchors = (
{
name = abvm.bindu;
position = "{208, 607}";
},
{
name = abvm.e;
position = "{211, 607}";
}
);
layerId = "632BC717-227E-41E7-B05B-9781150E6210";
paths = (
{
closed = 1;
nodes = (
"60 501 LINE",
"208 501 LINE",
"208 9 LINE",
"60 9 LINE"
);
},
{
closed = 1;
nodes = (
"-40 607 LINE",
"308 607 LINE",
"308 500 LINE",
"-40 500 LINE"
);
}
);
width = 268;
}
);
unicode = 093E;
},
{
color = 6;
glyphname = dvmI;
lastChange = "2016-05-19 21:47:13 +0000";
layers = (
{
layerId = "632BC717-227E-41E7-B05B-9781150E6210";
paths = (
{
closed = 1;
nodes = (
"60 501 LINE",
"208 501 LINE",
"208 9 LINE",
"60 9 LINE"
);
},
{
closed = 1;
nodes = (
"-40 607 LINE",
"308 607 LINE",
"308 500 LINE",
"-40 500 LINE"
);
},
{
closed = 1;
nodes = (
"60 607 LINE",
"60 808 OFFCURVE",
"177 822 OFFCURVE",
"427 822 CURVE SMOOTH",
"672 822 OFFCURVE",
"793 798 OFFCURVE",
"793 650 CURVE",
"645 650 LINE",
"645 691 OFFCURVE",
"578 701 OFFCURVE",
"427 701 CURVE SMOOTH",
"276 701 OFFCURVE",
"208 691 OFFCURVE",
"208 624 CURVE",
"208 607 LINE"
);
}
);
width = 263;
}
);
leftMetricsKey = dvmAA;
unicode = 093F;
},
{
color = 6;
glyphname = dvmII;
lastChange = "2016-05-19 21:47:13 +0000";
layers = (
{
layerId = "632BC717-227E-41E7-B05B-9781150E6210";
paths = (
{
closed = 1;
nodes = (
"69 501 LINE",
"217 501 LINE",
"217 9 LINE",
"69 9 LINE"
);
},
{
closed = 1;
nodes = (
"-67 650 LINE",
"-207 651 LINE",
"-209 655 OFFCURVE",
"-210 662 OFFCURVE",
"-210 667 CURVE SMOOTH",
"-210 777 OFFCURVE",
"-157 829 OFFCURVE",
"0 829 CURVE SMOOTH",
"180 829 OFFCURVE",
"217 770 OFFCURVE",
"217 607 CURVE",
"84 607 LINE",
"84 620 LINE",
"84 702 OFFCURVE",
"72 721 OFFCURVE",
"8 721 CURVE SMOOTH",
"-57 721 OFFCURVE",
"-68 701 OFFCURVE",
"-68 669 CURVE SMOOTH",
"-68 665 OFFCURVE",
"-68 657 OFFCURVE",
"-67 652 CURVE"
);
},
{
closed = 1;
nodes = (
"-40 607 LINE",
"317 607 LINE",
"317 500 LINE",
"-40 500 LINE"
);
}
);
width = 277;
}
);
rightMetricsKey = dvmAA;
unicode = 0940;
},
{
color = 7;
glyphname = dvmU;
lastChange = "2016-05-23 01:19:05 +0000";
layers = (
{
anchors = (
{
name = _blwm.u;
position = "{-143, -47}";
}
);
layerId = "632BC717-227E-41E7-B05B-9781150E6210";
paths = (
{
closed = 1;
nodes = (
"-358 -129 LINE",
"-327 -178 OFFCURVE",
"-278 -200 OFFCURVE",
"-205 -200 CURVE SMOOTH",
"-154 -200 OFFCURVE",
"-138 -194 OFFCURVE",
"-138 -168 CURVE SMOOTH",
"-138 -140 OFFCURVE",
"-154 -135 OFFCURVE",
"-183 -135 CURVE SMOOTH",
"-202 -135 OFFCURVE",
"-227 -138 OFFCURVE",
"-241 -141 CURVE",
"-245 -138 LINE",
"-264 -54 LINE",
"-240 -45 OFFCURVE",
"-194 -37 OFFCURVE",
"-156 -37 CURVE SMOOTH",
"-60 -37 OFFCURVE",
"-10 -62 OFFCURVE",
"-10 -174 CURVE SMOOTH",
"-10 -268 OFFCURVE",
"-47 -308 OFFCURVE",
"-194 -308 CURVE SMOOTH",
"-363 -308 OFFCURVE",
"-447 -242 OFFCURVE",
"-490 -136 CURVE",
"-490 -129 LINE"
);
}
);
width = 0;
},
{
associatedMasterId = "632BC717-227E-41E7-B05B-9781150E6210";
layerId = "690DB38C-8B70-42C8-9BEB-C795B7CB4081";
name = "Regular Mar 4 16, 04:28";
paths = (
{
closed = 1;
nodes = (
"321 -12 LINE",
"358 -6 OFFCURVE",
"397 -4 OFFCURVE",
"419 -4 CURVE SMOOTH",
"515 -4 OFFCURVE",
"523 -59 OFFCURVE",
"523 -115 CURVE SMOOTH",
"523 -168 OFFCURVE",
"515 -231 OFFCURVE",
"419 -231 CURVE SMOOTH",
"286 -231 OFFCURVE",
"175 -188 OFFCURVE",
"107 -138 CURVE",
"143 -51 LINE",
"206 -95 OFFCURVE",
"307 -147 OFFCURVE",
"351 -147 CURVE SMOOTH",
"395 -147 OFFCURVE",
"426 -146 OFFCURVE",
"426 -115 CURVE SMOOTH",
"426 -99 OFFCURVE",
"415 -89 OFFCURVE",
"389 -89 CURVE SMOOTH",
"377 -89 OFFCURVE",
"358 -90 OFFCURVE",
"341 -94 CURVE"
);
},
{
closed = 1;
nodes = (
"834 2 OFFCURVE",
"857 -23 OFFCURVE",
"857 -108 CURVE SMOOTH",
"857 -198 OFFCURVE",
"827 -217 OFFCURVE",
"735 -217 CURVE SMOOTH",
"705 -217 OFFCURVE",
"653 -207 OFFCURVE",
"634 -193 CURVE",
"644 -126 LINE",
"655 -135 OFFCURVE",
"695 -142 OFFCURVE",
"712 -142 CURVE SMOOTH",
"751 -142 OFFCURVE",
"763 -136 OFFCURVE",
"763 -108 CURVE SMOOTH",
"763 -80 OFFCURVE",
"752 -74 OFFCURVE",
"717 -74 CURVE SMOOTH",
"700 -74 OFFCURVE",
"690 -76 OFFCURVE",
"680 -79 CURVE",
"677 -79 LINE",
"679 -8 LINE",
"694 -2 OFFCURVE",
"717 2 OFFCURVE",
"745 2 CURVE SMOOTH"
);
}
);
width = 600;
},
{
associatedMasterId = "632BC717-227E-41E7-B05B-9781150E6210";
layerId = "2CF15816-C1C2-4869-8EDC-2A2A78643D38";
name = "Regular Mar 8 16, 16:58";
paths = (
{
closed = 1;
nodes = (
"204 -18 LINE",
"237 -90 OFFCURVE",
"279 -130 OFFCURVE",
"343 -130 CURVE SMOOTH",
"378 -130 OFFCURVE",
"388 -122 OFFCURVE",
"388 -103 CURVE SMOOTH",
"388 -80 OFFCURVE",
"377 -76 OFFCURVE",
"349 -76 CURVE SMOOTH",
"335 -76 OFFCURVE",
"326 -78 OFFCURVE",
"316 -81 CURVE",
"313 -78 LINE",
"320 -17 LINE",
"334 -12 OFFCURVE",
"355 -8 OFFCURVE",
"380 -8 CURVE SMOOTH",
"452 -8 OFFCURVE",
"480 -31 OFFCURVE",
"480 -108 CURVE SMOOTH",
"480 -171 OFFCURVE",
"452 -201 OFFCURVE",
"351 -201 CURVE SMOOTH",
"227 -201 OFFCURVE",
"171 -142 OFFCURVE",
"112 -16 CURVE"
);
}
);
width = 600;
}
);
unicode = 0941;
},
{
color = 7;
glyphname = dvmUU;
lastChange = "2016-05-23 01:19:12 +0000";
layers = (
{
anchors = (
{
name = _blwm.u;
position = "{-8, -41}";
}
);
layerId = "632BC717-227E-41E7-B05B-9781150E6210";
paths = (
{
closed = 1;
nodes = (
"86 -214 LINE",
"55 -165 OFFCURVE",
"6 -143 OFFCURVE",
"-67 -143 CURVE SMOOTH",
"-118 -143 OFFCURVE",
"-134 -149 OFFCURVE",
"-134 -175 CURVE SMOOTH",
"-134 -203 OFFCURVE",
"-118 -208 OFFCURVE",
"-89 -208 CURVE SMOOTH",
"-70 -208 OFFCURVE",
"-45 -205 OFFCURVE",
"-31 -202 CURVE",
"-27 -205 LINE",
"-8 -289 LINE",
"-32 -298 OFFCURVE",
"-78 -306 OFFCURVE",
"-116 -306 CURVE SMOOTH",
"-212 -306 OFFCURVE",
"-262 -281 OFFCURVE",
"-262 -169 CURVE SMOOTH",
"-262 -75 OFFCURVE",
"-225 -35 OFFCURVE",
"-78 -35 CURVE SMOOTH",
"91 -35 OFFCURVE",
"175 -101 OFFCURVE",
"218 -207 CURVE",
"218 -214 LINE"
);
}
);
width = 0;
}
);
unicode = 0942;
},
{
color = 7;
glyphname = dvmvR;
lastChange = "2016-05-23 01:25:37 +0000";
layers = (
{
anchors = (
{
name = _blwm.u;
position = "{-156, -67}";
}
);
layerId = "632BC717-227E-41E7-B05B-9781150E6210";
paths = (
{
closed = 1;
nodes = (
"-63 -214 LINE",
"-90 -220 OFFCURVE",
"-120 -223 OFFCURVE",
"-148 -223 CURVE SMOOTH",
"-201 -223 OFFCURVE",
"-221 -217 OFFCURVE",
"-221 -179 CURVE SMOOTH",
"-221 -146 OFFCURVE",
"-203 -135 OFFCURVE",
"-167 -135 CURVE SMOOTH",
"-60 -135 LINE",
"-60 -26 LINE",
"-150 -26 LINE SMOOTH",
"-286 -26 OFFCURVE",
"-340 -60 OFFCURVE",
"-340 -180 CURVE SMOOTH",
"-340 -304 OFFCURVE",
"-286 -333 OFFCURVE",
"-150 -333 CURVE SMOOTH",
"-120 -333 OFFCURVE",
"-88 -330 OFFCURVE",
"-60 -323 CURVE",
"-60 -216 LINE"
);
}
);
width = 0;
},
{
anchors = (
{
name = _blwm;
position = "{358, 8}";
}
);
associatedMasterId = "632BC717-227E-41E7-B05B-9781150E6210";
layerId = "CD178F08-2A01-466E-8627-758D76133109";
name = "Regular May 7 16, 06:19";
paths = (
{
closed = 1;
nodes = (
"453 -274 LINE",
"437 -277 OFFCURVE",
"420 -278 OFFCURVE",
"402 -278 CURVE SMOOTH",
"273 -278 OFFCURVE",
"227 -230 OFFCURVE",
"227 -137 CURVE SMOOTH",
"227 -71 OFFCURVE",
"246 -28 OFFCURVE",
"291 4 CURVE",
"291 9 LINE",
"440 9 LINE",
"396 -4 OFFCURVE",
"351 -59 OFFCURVE",
"351 -105 CURVE SMOOTH",
"351 -147 OFFCURVE",
"367 -165 OFFCURVE",
"419 -165 CURVE SMOOTH",
"431 -165 OFFCURVE",
"441 -164 OFFCURVE",
"452 -162 CURVE",
"454 -166 LINE"
);
}
);
width = 0;
visible = 1;
}
);
unicode = 0943;
},
{
color = 7;
glyphname = dvmvRR;
lastChange = "2016-05-23 01:46:34 +0000";
layers = (
{
anchors = (
{
name = _blwm.u;
position = "{-136, -67}";
}
);
layerId = "632BC717-227E-41E7-B05B-9781150E6210";
paths = (
{
closed = 1;
nodes = (
"-320 -434 OFFCURVE",
"-266 -463 OFFCURVE",
"-130 -463 CURVE SMOOTH",
"-100 -463 OFFCURVE",
"-68 -460 OFFCURVE",
"-40 -453 CURVE",
"-40 -359 LINE",
"-43 -357 LINE",
"-70 -363 OFFCURVE",
"-100 -366 OFFCURVE",
"-128 -366 CURVE SMOOTH",
"-181 -366 OFFCURVE",
"-201 -360 OFFCURVE",
"-201 -324 CURVE SMOOTH",
"-201 -294 OFFCURVE",
"-188 -284 OFFCURVE",
"-161 -283 CURVE",
"-136 -283 LINE",
"-80 -283 LINE",
"-80 -196 LINE",
"-130 -196 LINE",
"-136 -196 LINE SMOOTH",
"-183 -196 OFFCURVE",
"-201 -188 OFFCURVE",
"-201 -159 CURVE SMOOTH",
"-201 -129 OFFCURVE",
"-183 -122 OFFCURVE",
"-147 -122 CURVE SMOOTH",
"-60 -122 LINE",
"-60 -26 LINE",
"-130 -26 LINE SMOOTH",
"-266 -26 OFFCURVE",
"-320 -54 OFFCURVE",
"-320 -150 CURVE SMOOTH",
"-320 -197 OFFCURVE",
"-306 -225 OFFCURVE",
"-274 -244 CURVE",
"-274 -246 LINE",
"-306 -263 OFFCURVE",
"-320 -292 OFFCURVE",
"-320 -340 CURVE SMOOTH"
);
}
);
width = 0;
}
);
unicode = 0944;
},
{
color = 7;
glyphname = dvmvL;
lastChange = "2016-05-23 03:16:15 +0000";
layers = (
{
anchors = (
{
name = _blwm.u;
position = "{-136, -67}";
}
);
layerId = "632BC717-227E-41E7-B05B-9781150E6210";
paths = (
{
closed = 1;
nodes = (
"-366 -365 LINE",
"-366 -361 LINE",
"-398 -307 OFFCURVE",
"-411 -258 OFFCURVE",
"-411 -205 CURVE SMOOTH",
"-411 -149 OFFCURVE",
"-396 -130 OFFCURVE",
"-353 -130 CURVE SMOOTH",
"-314 -130 OFFCURVE",
"-296 -146 OFFCURVE",
"-296 -213 CURVE SMOOTH",
"-296 -235 LINE",
"-187 -235 LINE",
"-187 -213 LINE SMOOTH",
"-187 -144 OFFCURVE",
"-173 -130 OFFCURVE",
"-131 -130 CURVE SMOOTH",
"-96 -130 OFFCURVE",
"-79 -141 OFFCURVE",
"-77 -196 CURVE",
"-77 -304 LINE",
"23 -304 LINE",
"23 -196 LINE",
"23 -63 OFFCURVE",
"-22 -26 OFFCURVE",
"-121 -26 CURVE SMOOTH",
"-209 -26 OFFCURVE",
"-237 -56 OFFCURVE",
"-245 -103 CURVE",
"-248 -103 LINE",
"-255 -56 OFFCURVE",
"-294 -25 OFFCURVE",
"-381 -25 CURVE SMOOTH",
"-481 -25 OFFCURVE",
"-534 -70 OFFCURVE",
"-534 -177 CURVE SMOOTH",
"-534 -241 OFFCURVE",
"-515 -306 OFFCURVE",
"-483 -365 CURVE"
);
},
{
closed = 1;
nodes = (
"20 -368 LINE",
"-2 -373 OFFCURVE",
"-27 -376 OFFCURVE",
"-50 -376 CURVE SMOOTH",
"-94 -376 OFFCURVE",
"-110 -371 OFFCURVE",
"-110 -345 CURVE SMOOTH",
"-110 -320 OFFCURVE",
"-96 -315 OFFCURVE",
"-66 -315 CURVE SMOOTH",
"23 -315 LINE",
"23 -235 LINE",
"-52 -235 LINE SMOOTH",
"-164 -235 OFFCURVE",
"-209 -260 OFFCURVE",
"-209 -346 CURVE SMOOTH",
"-209 -432 OFFCURVE",
"-164 -456 OFFCURVE",
"-52 -456 CURVE SMOOTH",
"-27 -456 OFFCURVE",
"-1 -454 OFFCURVE",
"23 -448 CURVE",
"23 -370 LINE"
);
}
);
width = 0;
}
);
unicode = 0962;
},
{
color = 7;
glyphname = dvmvLL;
lastChange = "2016-05-23 03:16:36 +0000";
layers = (
{
anchors = (
{
name = _blwm.u;
position = "{-136, -67}";
}
);
layerId = "632BC717-227E-41E7-B05B-9781150E6210";
paths = (
{
closed = 1;
nodes = (
"-367 -365 LINE",
"-367 -361 LINE",
"-399 -307 OFFCURVE",
"-412 -258 OFFCURVE",
"-412 -205 CURVE SMOOTH",
"-412 -149 OFFCURVE",
"-397 -130 OFFCURVE",
"-354 -130 CURVE SMOOTH",
"-315 -130 OFFCURVE",
"-297 -146 OFFCURVE",
"-297 -213 CURVE SMOOTH",
"-297 -235 LINE",
"-188 -235 LINE",
"-188 -213 LINE SMOOTH",
"-188 -144 OFFCURVE",
"-174 -130 OFFCURVE",
"-132 -130 CURVE SMOOTH",
"-97 -130 OFFCURVE",
"-80 -141 OFFCURVE",
"-78 -196 CURVE",
"-78 -304 LINE",
"22 -304 LINE",
"22 -196 LINE",
"22 -63 OFFCURVE",
"-23 -26 OFFCURVE",
"-122 -26 CURVE SMOOTH",
"-210 -26 OFFCURVE",
"-238 -56 OFFCURVE",
"-246 -103 CURVE",
"-249 -103 LINE",
"-256 -56 OFFCURVE",
"-295 -25 OFFCURVE",
"-382 -25 CURVE SMOOTH",
"-482 -25 OFFCURVE",
"-535 -70 OFFCURVE",
"-535 -177 CURVE SMOOTH",
"-535 -241 OFFCURVE",
"-516 -306 OFFCURVE",
"-484 -365 CURVE"
);
},
{
closed = 1;
nodes = (
"-193 -578 OFFCURVE",
"-148 -602 OFFCURVE",
"-36 -602 CURVE SMOOTH",
"-11 -602 OFFCURVE",
"15 -600 OFFCURVE",
"39 -594 CURVE",
"39 -516 LINE",
"36 -514 LINE",
"14 -519 OFFCURVE",
"-11 -522 OFFCURVE",
"-34 -522 CURVE SMOOTH",
"-78 -522 OFFCURVE",
"-94 -517 OFFCURVE",
"-94 -487 CURVE SMOOTH",
"-94 -462 OFFCURVE",
"-84 -454 OFFCURVE",
"-61 -453 CURVE",
"-41 -453 LINE",
"6 -453 LINE",
"6 -381 LINE",
"-36 -381 LINE",
"-41 -381 LINE SMOOTH",
"-79 -381 OFFCURVE",
"-94 -378 OFFCURVE",
"-94 -346 CURVE SMOOTH",
"-94 -324 OFFCURVE",
"-79 -315 OFFCURVE",
"-50 -315 CURVE SMOOTH",
"22 -315 LINE",
"22 -241 LINE",
"-36 -241 LINE SMOOTH",
"-148 -241 OFFCURVE",
"-193 -266 OFFCURVE",
"-193 -352 CURVE SMOOTH",
"-193 -384 OFFCURVE",
"-180 -407 OFFCURVE",
"-154 -421 CURVE",
"-154 -423 LINE",
"-178 -437 OFFCURVE",
"-193 -461 OFFCURVE",
"-193 -492 CURVE SMOOTH"
);
}
);
width = 0;
}
);
unicode = 0963;
},
{
color = 7;
glyphname = dvmE;
lastChange = "2016-05-21 02:05:29 +0000";
layers = (
{
anchors = (
{
name = _abvm.e;
position = "{-76, 606}";
}
);
layerId = "632BC717-227E-41E7-B05B-9781150E6210";
paths = (
{
closed = 1;
nodes = (
"-466 861 LINE",
"-294 861 LINE",
"-76 606 LINE",
"-200 606 LINE",
"-207 610 LINE SMOOTH",
"-263 642 OFFCURVE",
"-327 694 OFFCURVE",
"-392 771 CURVE SMOOTH",
"-466 858 LINE"
);
}
);
width = 0;
},
{
anchors = (
{
name = _abvm;
position = "{0, 607}";
}
);
associatedMasterId = "632BC717-227E-41E7-B05B-9781150E6210";
layerId = "D0329A6E-C0ED-4F77-8995-03FB2924CB26";
name = "Regular Mar 26 16, 15:23";
paths = (
{
closed = 1;
nodes = (
"-319 868 LINE",
"-167 900 LINE",
"78 607 LINE",
"-46 607 LINE",
"-53 611 LINE SMOOTH",
"-109 643 OFFCURVE",
"-173 695 OFFCURVE",
"-240 771 CURVE SMOOTH",
"-319 861 LINE"
);
}
);
width = 0;
}
);
unicode = 0947;
},
{
color = 7;
glyphname = dvmAI;
lastChange = "2016-05-21 02:07:32 +0000";
layers = (
{
anchors = (
{
name = _abvm.e;
position = "{-71, 603}";
}
);
layerId = "632BC717-227E-41E7-B05B-9781150E6210";
paths = (
{
closed = 1;
nodes = (
"-306 598 OFFCURVE",
"-519 773 OFFCURVE",
"-571 825 CURVE SMOOTH",
"-573 827 OFFCURVE",
"-571 830 OFFCURVE",
"-571 833 CURVE",
"-403 849 LINE",
"-169 607 LINE",
"-160 607 LINE",
"-208 664 OFFCURVE",
"-299 811 OFFCURVE",
"-331 876 CURVE SMOOTH",
"-332 878 OFFCURVE",
"-331 879 OFFCURVE",
"-331 881 CURVE",
"-178 881 LINE",
"-71 603 LINE",
"-174 546 LINE"
);
}
);
width = 4;
},
{
associatedMasterId = "632BC717-227E-41E7-B05B-9781150E6210";
layerId = "EED32321-BE09-4EF2-AC23-E2937652D568";
name = "Regular Apr 21 16, 16:39";
paths = (
{
closed = 1;
nodes = (
"-202 605 OFFCURVE",
"-385 733 OFFCURVE",
"-471 825 CURVE SMOOTH",
"-471 833 LINE",
"-292 833 LINE",
"-75 607 LINE",
"-68 607 LINE SMOOTH",
"-108 663 OFFCURVE",
"-194 811 OFFCURVE",
"-231 876 CURVE SMOOTH",
"-231 881 LINE",
"-82 881 LINE",
"25 603 LINE",
"-74 546 LINE SMOOTH"
);
}
);
width = 0;
}
);
unicode = 0948;
},
{
color = 7;
glyphname = dvmEcandra;
lastChange = "2016-05-21 02:16:12 +0000";
layers = (
{
anchors = (
{
name = _abvm.bindu;
position = "{-67, 607}";
}
);
layerId = "632BC717-227E-41E7-B05B-9781150E6210";
paths = (
{
closed = 1;
nodes = (
"78 837 LINE",
"78 704 OFFCURVE",
"45 674 OFFCURVE",
"-131 674 CURVE SMOOTH",
"-318 674 OFFCURVE",
"-344 704 OFFCURVE",
"-344 837 CURVE",
"-214 837 LINE",
"-214 789 OFFCURVE",
"-206 781 OFFCURVE",
"-131 780 CURVE SMOOTH",
"-56 779 OFFCURVE",
"-51 789 OFFCURVE",
"-51 837 CURVE"
);
}
);
width = 0;
}
);
unicode = 0945;
},
{
color = 6;
glyphname = dvmOcandra;
lastChange = "2016-05-21 02:00:40 +0000";
layers = (
{
layerId = "632BC717-227E-41E7-B05B-9781150E6210";
paths = (
{
closed = 1;
nodes = (
"60 501 LINE",
"208 501 LINE",
"208 9 LINE",
"60 9 LINE"
);
},
{
closed = 1;
nodes = (
"-40 607 LINE",
"308 607 LINE",
"308 500 LINE",
"-40 500 LINE"
);
},
{
closed = 1;
nodes = (
"345 837 LINE",
"345 704 OFFCURVE",
"312 674 OFFCURVE",
"136 674 CURVE SMOOTH",
"-51 674 OFFCURVE",
"-77 704 OFFCURVE",
"-77 837 CURVE",
"53 837 LINE",
"53 789 OFFCURVE",
"61 781 OFFCURVE",
"136 780 CURVE SMOOTH",
"211 779 OFFCURVE",
"216 789 OFFCURVE",
"216 837 CURVE"
);
}
);
width = 268;
}
);
unicode = 0949;
},
{
color = 5;
glyphname = dvKA;
lastChange = "2016-05-26 01:35:13 +0000";
layers = (
{
anchors = (
{
name = abvm.bindu;
position = "{533, 607}";
},
{
name = abvm.e;
position = "{534, 607}";
},
{
name = blwm.u;
position = "{438, -71}";
},
{
name = blwm.virama;
position = "{386, -51}";
}
);
background = {
paths = (
{
closed = 1;
nodes = (
"666 63 OFFCURVE",
"614 70 OFFCURVE",
"580 79 CURVE",
"580 195 LINE",
"583 196 LINE",
"603 190 OFFCURVE",
"636 185 OFFCURVE",
"665 185 CURVE SMOOTH",
"711 185 OFFCURVE",
"740 190 OFFCURVE",
"740 247 CURVE SMOOTH",
"740 303 OFFCURVE",
"718 308 OFFCURVE",
"646 308 CURVE SMOOTH",
"600 308 OFFCURVE",
"551 296 OFFCURVE",
"520 279 CURVE",
"503 393 LINE",
"542 412 OFFCURVE",
"610 428 OFFCURVE",
"673 428 CURVE SMOOTH",
"836 428 OFFCURVE",
"886 395 OFFCURVE",
"886 247 CURVE SMOOTH",
"886 104 OFFCURVE",
"838 63 OFFCURVE",
"719 63 CURVE SMOOTH"
);
}
);
};
layerId = "632BC717-227E-41E7-B05B-9781150E6210";
paths = (
{
closed = 1;
nodes = (
"386 501 LINE",
"534 501 LINE",
"534 9 LINE",
"386 9 LINE"
);
},
{
closed = 1;
nodes = (
"-25 607 LINE",
"945 607 LINE",
"945 500 LINE",
"-25 500 LINE"
);
},
{
closed = 1;
nodes = (
"240 436 OFFCURVE",
"291 430 OFFCURVE",
"328 419 CURVE",
"326 305 LINE",
"322 304 LINE",
"299 310 OFFCURVE",
"272 315 OFFCURVE",
"236 315 CURVE SMOOTH",
"174 315 OFFCURVE",
"160 298 OFFCURVE",
"160 248 CURVE SMOOTH",
"160 198 OFFCURVE",
"174 181 OFFCURVE",
"263 181 CURVE SMOOTH",
"317 181 OFFCURVE",
"361 190 OFFCURVE",
"398 210 CURVE",
"386 87 LINE",
"384 87 LINE",
"354 72 OFFCURVE",
"298 62 OFFCURVE",
"241 62 CURVE SMOOTH",
"71 62 OFFCURVE",
"20 108 OFFCURVE",
"20 250 CURVE SMOOTH",
"20 390 OFFCURVE",
"66 436 OFFCURVE",
"193 436 CURVE SMOOTH"
);
},
{
closed = 1;
nodes = (
"680 60 OFFCURVE",
"629 66 OFFCURVE",
"592 77 CURVE",
"594 191 LINE",
"598 192 LINE",
"621 186 OFFCURVE",
"648 181 OFFCURVE",
"684 181 CURVE SMOOTH",
"746 181 OFFCURVE",
"760 198 OFFCURVE",
"760 248 CURVE SMOOTH",
"760 298 OFFCURVE",
"746 315 OFFCURVE",
"657 315 CURVE SMOOTH",
"603 315 OFFCURVE",
"559 306 OFFCURVE",
"522 286 CURVE",
"534 409 LINE",
"536 409 LINE",
"566 424 OFFCURVE",
"622 434 OFFCURVE",
"679 434 CURVE SMOOTH",
"849 434 OFFCURVE",
"900 388 OFFCURVE",
"900 246 CURVE SMOOTH",
"900 106 OFFCURVE",
"854 60 OFFCURVE",
"727 60 CURVE SMOOTH"
);
}
);
width = 920;
},
{
anchors = (
{
name = abvm;
position = "{444, 607}";
},
{
name = blwm;
position = "{444, 9}";
}
);
associatedMasterId = "632BC717-227E-41E7-B05B-9781150E6210";
background = {
paths = (
{
closed = 1;
nodes = (
"650 63 OFFCURVE",
"598 70 OFFCURVE",
"564 79 CURVE",
"564 195 LINE",
"567 196 LINE",
"587 190 OFFCURVE",
"620 185 OFFCURVE",
"649 185 CURVE SMOOTH",
"695 185 OFFCURVE",
"724 190 OFFCURVE",
"724 247 CURVE SMOOTH",
"724 303 OFFCURVE",
"702 308 OFFCURVE",
"630 308 CURVE SMOOTH",
"584 308 OFFCURVE",
"535 296 OFFCURVE",
"504 279 CURVE",
"487 393 LINE",
"526 412 OFFCURVE",
"594 428 OFFCURVE",
"657 428 CURVE SMOOTH",
"820 428 OFFCURVE",
"870 395 OFFCURVE",
"870 247 CURVE SMOOTH",
"870 104 OFFCURVE",
"822 63 OFFCURVE",
"703 63 CURVE SMOOTH"
);
}
);
};
layerId = "BA6D6C2D-6114-4F31-8F8D-6BEC353C8FF8";
name = "1";
paths = (
{
closed = 1;
nodes = (
"370 501 LINE",
"518 501 LINE",
"518 9 LINE",
"370 9 LINE"
);
},
{
closed = 1;
nodes = (
"-30 607 LINE",
"918 607 LINE",
"918 500 LINE",
"-30 500 LINE"
);
},
{
closed = 1;
nodes = (
"225 433 OFFCURVE",
"278 427 OFFCURVE",
"317 415 CURVE",
"317 298 LINE",
"313 297 LINE",
"291 303 OFFCURVE",
"265 308 OFFCURVE",
"230 308 CURVE SMOOTH",
"170 308 OFFCURVE",
"157 295 OFFCURVE",
"157 245 CURVE SMOOTH",
"157 197 OFFCURVE",
"170 183 OFFCURVE",
"256 183 CURVE SMOOTH",
"308 183 OFFCURVE",
"351 192 OFFCURVE",
"387 211 CURVE",
"400 96 LINE",
"359 72 OFFCURVE",
"296 58 OFFCURVE",
"230 58 CURVE SMOOTH",
"63 58 OFFCURVE",
"11 104 OFFCURVE",
"11 245 CURVE SMOOTH",
"11 383 OFFCURVE",
"49 433 OFFCURVE",
"178 433 CURVE SMOOTH"
);
},
{
closed = 1;
nodes = (
"657 58 OFFCURVE",
"604 64 OFFCURVE",
"565 76 CURVE",
"565 193 LINE",
"569 194 LINE",
"591 188 OFFCURVE",
"617 183 OFFCURVE",
"652 183 CURVE SMOOTH",
"712 183 OFFCURVE",
"725 196 OFFCURVE",
"725 246 CURVE SMOOTH",
"725 294 OFFCURVE",
"712 308 OFFCURVE",
"626 308 CURVE SMOOTH",
"574 308 OFFCURVE",
"531 299 OFFCURVE",
"495 280 CURVE",
"482 395 LINE",
"523 419 OFFCURVE",
"586 433 OFFCURVE",
"652 433 CURVE SMOOTH",
"819 433 OFFCURVE",
"871 387 OFFCURVE",
"871 246 CURVE SMOOTH",
"871 108 OFFCURVE",
"833 58 OFFCURVE",
"704 58 CURVE SMOOTH"
);
}
);
width = 888;
},
{
anchors = (
{
name = abvm;
position = "{444, 607}";
},
{
name = blwm;
position = "{444, 9}";
}
);
associatedMasterId = "632BC717-227E-41E7-B05B-9781150E6210";
background = {
paths = (
{
closed = 1;
nodes = (
"650 63 OFFCURVE",
"598 70 OFFCURVE",
"564 79 CURVE",
"564 195 LINE",
"567 196 LINE",
"587 190 OFFCURVE",
"620 185 OFFCURVE",
"649 185 CURVE SMOOTH",
"695 185 OFFCURVE",
"724 190 OFFCURVE",
"724 247 CURVE SMOOTH",
"724 303 OFFCURVE",
"702 308 OFFCURVE",
"630 308 CURVE SMOOTH",
"584 308 OFFCURVE",
"535 296 OFFCURVE",
"504 279 CURVE",
"487 393 LINE",
"526 412 OFFCURVE",
"594 428 OFFCURVE",
"657 428 CURVE SMOOTH",
"820 428 OFFCURVE",
"870 395 OFFCURVE",
"870 247 CURVE SMOOTH",
"870 104 OFFCURVE",
"822 63 OFFCURVE",
"703 63 CURVE SMOOTH"
);
}
);
};
layerId = "B8B3BFD6-1FFD-48C3-BF32-0AFBF4289A19";
name = "Regular Mar 28 16, 14:18";
paths = (
{
closed = 1;
nodes = (
"370 501 LINE",
"518 501 LINE",
"518 9 LINE",
"370 9 LINE"
);
},
{
closed = 1;
nodes = (
"-30 607 LINE",
"918 607 LINE",
"918 500 LINE",
"-30 500 LINE"
);
},
{
closed = 1;
nodes = (
"234 437 OFFCURVE",
"287 431 OFFCURVE",
"326 419 CURVE",
"326 297 LINE",
"322 296 LINE",
"300 303 OFFCURVE",
"276 307 OFFCURVE",
"239 307 CURVE SMOOTH",
"189 307 OFFCURVE",
"166 303 OFFCURVE",
"166 244 CURVE SMOOTH",
"166 185 OFFCURVE",
"189 182 OFFCURVE",
"265 182 CURVE SMOOTH",
"317 182 OFFCURVE",
"358 190 OFFCURVE",
"396 208 CURVE",
"402 100 LINE",
"357 76 OFFCURVE",
"310 63 OFFCURVE",
"211 63 CURVE SMOOTH",
"66 63 OFFCURVE",
"20 116 OFFCURVE",
"20 244 CURVE SMOOTH",
"20 387 OFFCURVE",
"58 437 OFFCURVE",
"187 437 CURVE SMOOTH"
);
},
{
closed = 1;
nodes = (
"657 63 OFFCURVE",
"591 71 OFFCURVE",
"565 80 CURVE",
"565 193 LINE",
"569 194 LINE",
"589 189 OFFCURVE",
"620 185 OFFCURVE",
"649 185 CURVE SMOOTH",
"704 185 OFFCURVE",
"725 190 OFFCURVE",
"725 247 CURVE SMOOTH",
"725 303 OFFCURVE",
"703 308 OFFCURVE",
"631 308 CURVE SMOOTH",
"589 308 OFFCURVE",
"526 296 OFFCURVE",
"505 279 CURVE",
"489 390 LINE",
"529 417 OFFCURVE",
"588 428 OFFCURVE",
"658 428 CURVE SMOOTH",
"821 428 OFFCURVE",
"871 395 OFFCURVE",
"871 247 CURVE SMOOTH",
"871 104 OFFCURVE",
"833 63 OFFCURVE",
"704 63 CURVE SMOOTH"
);
},
{
closed = 1;
nodes = (
"234 437 OFFCURVE",
"287 431 OFFCURVE",
"326 419 CURVE",
"326 297 LINE",
"322 296 LINE",
"300 303 OFFCURVE",
"276 307 OFFCURVE",
"239 307 CURVE SMOOTH",
"189 307 OFFCURVE",
"166 303 OFFCURVE",
"166 244 CURVE SMOOTH",
"166 185 OFFCURVE",
"189 182 OFFCURVE",
"265 182 CURVE SMOOTH",
"317 182 OFFCURVE",
"358 190 OFFCURVE",
"396 208 CURVE",
"402 100 LINE",
"357 76 OFFCURVE",
"310 63 OFFCURVE",
"211 63 CURVE SMOOTH",
"66 63 OFFCURVE",
"20 116 OFFCURVE",
"20 244 CURVE SMOOTH",
"20 387 OFFCURVE",
"58 437 OFFCURVE",
"187 437 CURVE SMOOTH"
);
}
);
width = 888;
},
{
anchors = (
{
name = abvm;
position = "{444, 607}";
},
{
name = blwm;
position = "{444, 9}";
}
);
associatedMasterId = "632BC717-227E-41E7-B05B-9781150E6210";
background = {
paths = (
{
closed = 1;
nodes = (
"650 63 OFFCURVE",
"598 70 OFFCURVE",
"564 79 CURVE",
"564 195 LINE",
"567 196 LINE",
"587 190 OFFCURVE",
"620 185 OFFCURVE",
"649 185 CURVE SMOOTH",
"695 185 OFFCURVE",
"724 190 OFFCURVE",
"724 247 CURVE SMOOTH",
"724 303 OFFCURVE",
"702 308 OFFCURVE",
"630 308 CURVE SMOOTH",
"584 308 OFFCURVE",
"535 296 OFFCURVE",
"504 279 CURVE",
"487 393 LINE",
"526 412 OFFCURVE",
"594 428 OFFCURVE",
"657 428 CURVE SMOOTH",
"820 428 OFFCURVE",
"870 395 OFFCURVE",
"870 247 CURVE SMOOTH",
"870 104 OFFCURVE",
"822 63 OFFCURVE",
"703 63 CURVE SMOOTH"
);
}
);
};
layerId = "C915C674-9800-43B2-B02E-836537B2C539";
name = "Regular Mar 31 16, 12:37";
paths = (
{
closed = 1;
nodes = (
"370 501 LINE",
"518 501 LINE",
"518 9 LINE",
"370 9 LINE"
);
},
{
closed = 1;
nodes = (
"-30 607 LINE",
"918 607 LINE",
"918 500 LINE",
"-30 500 LINE"
);
},
{
closed = 1;
nodes = (
"224 432 OFFCURVE",
"275 426 OFFCURVE",
"312 415 CURVE",
"312 298 LINE",
"308 297 LINE",
"286 303 OFFCURVE",
"260 308 OFFCURVE",
"225 308 CURVE SMOOTH",
"165 308 OFFCURVE",
"152 295 OFFCURVE",
"152 246 CURVE SMOOTH",
"152 198 OFFCURVE",
"165 184 OFFCURVE",
"251 184 CURVE SMOOTH",
"303 184 OFFCURVE",
"346 193 OFFCURVE",
"382 212 CURVE",
"395 98 LINE",
"354 73 OFFCURVE",
"293 60 OFFCURVE",
"225 60 CURVE SMOOTH",
"60 60 OFFCURVE",
"9 106 OFFCURVE",
"9 246 CURVE SMOOTH",
"9 386 OFFCURVE",
"55 432 OFFCURVE",
"177 432 CURVE SMOOTH"
);
},
{
closed = 1;
nodes = (
"664 63 OFFCURVE",
"613 69 OFFCURVE",
"576 80 CURVE",
"576 193 LINE",
"580 194 LINE",
"602 188 OFFCURVE",
"628 183 OFFCURVE",
"663 183 CURVE SMOOTH",
"723 183 OFFCURVE",
"736 196 OFFCURVE",
"736 246 CURVE SMOOTH",
"736 294 OFFCURVE",
"723 308 OFFCURVE",
"637 308 CURVE SMOOTH",
"585 308 OFFCURVE",
"542 299 OFFCURVE",
"506 280 CURVE",
"493 391 LINE",
"534 415 OFFCURVE",
"597 429 OFFCURVE",
"663 429 CURVE SMOOTH",
"827 429 OFFCURVE",
"879 383 OFFCURVE",
"879 246 CURVE SMOOTH",
"879 122 OFFCURVE",
"837 63 OFFCURVE",
"711 63 CURVE SMOOTH"
);
}
);
width = 888;
}
);
unicode = 0915;
},
{
color = 6;
glyphname = dvKHA;
lastChange = "2016-05-19 21:47:13 +0000";
layers = (
{
anchors = (
{
name = abvm;
position = "{759, 607}";
},
{
name = blwm;
position = "{756, 9}";
}
);
background = {
paths = (
{
closed = 1;
nodes = (
"219 1 OFFCURVE",
"139 35 OFFCURVE",
"93 71 CURVE",
"112 195 LINE",
"163 154 OFFCURVE",
"240 127 OFFCURVE",
"319 127 CURVE SMOOTH",
"413 127 OFFCURVE",
"468 148 OFFCURVE",
"471 196 CURVE",
"458 195 OFFCURVE",
"444 194 OFFCURVE",
"432 194 CURVE SMOOTH",
"303 194 OFFCURVE",
"237 253 OFFCURVE",
"237 374 CURVE SMOOTH",
"237 490 OFFCURVE",
"297 547 OFFCURVE",
"411 547 CURVE SMOOTH",
"525 547 OFFCURVE",
"588 503 OFFCURVE",
"588 396 CURVE SMOOTH",
"588 385 OFFCURVE",
"587 374 OFFCURVE",
"585 363 CURVE",
"462 363 LINE",
"462 365 LINE",
"464 371 OFFCURVE",
"465 379 OFFCURVE",
"465 386 CURVE SMOOTH",
"465 412 OFFCURVE",
"453 431 OFFCURVE",
"418 431 CURVE SMOOTH",
"384 431 OFFCURVE",
"370 415 OFFCURVE",
"370 375 CURVE SMOOTH",
"370 316 OFFCURVE",
"406 297 OFFCURVE",
"498 297 CURVE",
"613 297 LINE",
"613 252 LINE SMOOTH",
"613 82 OFFCURVE",
"533 1 OFFCURVE",
"336 1 CURVE SMOOTH"
);
}
);
};
layerId = "632BC717-227E-41E7-B05B-9781150E6210";
paths = (
{
closed = 1;
nodes = (
"-30 607 LINE",
"936 607 LINE",
"936 500 LINE",
"-30 500 LINE"
);
},
{
closed = 1;
nodes = (
"697 164 LINE",
"688 174 LINE",
"688 501 LINE",
"836 501 LINE",
"836 9 LINE",
"697 9 LINE"
);
},
{
closed = 1;
nodes = (
"692 132 LINE",
"644 28 OFFCURVE",
"557 -2 OFFCURVE",
"364 -2 CURVE SMOOTH",
"142 -2 OFFCURVE",
"36 67 OFFCURVE",
"36 221 CURVE SMOOTH",
"36 351 LINE",
"81 351 LINE SMOOTH",
"154 351 OFFCURVE",
"187 365 OFFCURVE",
"187 433 CURVE SMOOTH",
"187 556 LINE",
"329 556 LINE",
"329 407 LINE SMOOTH",
"329 294 OFFCURVE",
"274 249 OFFCURVE",
"178 249 CURVE SMOOTH",
"174 249 LINE",
"174 222 LINE SMOOTH",
"174 153 OFFCURVE",
"227 112 OFFCURVE",
"364 112 CURVE SMOOTH",
"448 112 OFFCURVE",
"537 119 OFFCURVE",
"565 150 CURVE",
"558 172 LINE"
);
},
{
closed = 1;
nodes = (
"577 450 OFFCURVE",
"616 445 OFFCURVE",
"646 438 CURVE",
"646 346 LINE",
"644 345 LINE",
"625 348 OFFCURVE",
"600 351 OFFCURVE",
"573 351 CURVE SMOOTH",
"512 351 OFFCURVE",
"497 339 OFFCURVE",
"497 300 CURVE SMOOTH",
"497 252 OFFCURVE",
"521 242 OFFCURVE",
"577 242 CURVE SMOOTH",
"629 242 OFFCURVE",
"675 247 OFFCURVE",
"709 263 CURVE",
"731 182 LINE",
"698 132 LINE",
"692 132 LINE",
"565 150 LINE",
"564 152 LINE",
"414 137 OFFCURVE",
"363 190 OFFCURVE",
"363 305 CURVE SMOOTH",
"363 412 OFFCURVE",
"410 450 OFFCURVE",
"536 450 CURVE SMOOTH"
);
}
);
width = 896;
},
{
anchors = (
{
name = abvm;
position = "{744, 607}";
},
{
name = blwm;
position = "{741, 9}";
}
);
associatedMasterId = "632BC717-227E-41E7-B05B-9781150E6210";
background = {
paths = (
{
closed = 1;
nodes = (
"204 1 OFFCURVE",
"124 35 OFFCURVE",
"78 71 CURVE",
"97 195 LINE",
"148 154 OFFCURVE",
"225 127 OFFCURVE",
"304 127 CURVE SMOOTH",
"398 127 OFFCURVE",
"453 148 OFFCURVE",
"456 196 CURVE",
"443 195 OFFCURVE",
"429 194 OFFCURVE",
"417 194 CURVE SMOOTH",
"288 194 OFFCURVE",
"222 253 OFFCURVE",
"222 374 CURVE SMOOTH",
"222 490 OFFCURVE",
"282 547 OFFCURVE",
"396 547 CURVE SMOOTH",
"510 547 OFFCURVE",
"573 503 OFFCURVE",
"573 396 CURVE SMOOTH",
"573 385 OFFCURVE",
"572 374 OFFCURVE",
"570 363 CURVE",
"447 363 LINE",
"447 365 LINE",
"449 371 OFFCURVE",
"450 379 OFFCURVE",
"450 386 CURVE SMOOTH",
"450 412 OFFCURVE",
"438 431 OFFCURVE",
"403 431 CURVE SMOOTH",
"369 431 OFFCURVE",
"355 415 OFFCURVE",
"355 375 CURVE SMOOTH",
"355 316 OFFCURVE",
"391 297 OFFCURVE",
"483 297 CURVE",
"598 297 LINE",
"598 252 LINE SMOOTH",
"598 82 OFFCURVE",
"518 1 OFFCURVE",
"321 1 CURVE SMOOTH"
);
}
);
};
layerId = "59408736-F997-4BB8-B204-17A068D7C00D";
name = "Regular Apr 26 16, 16:09";
paths = (
{
closed = 1;
nodes = (
"-25 607 LINE",
"921 607 LINE",
"921 500 LINE",
"-25 500 LINE"
);
},
{
closed = 1;
nodes = (
"679 164 LINE",
"673 174 LINE",
"673 501 LINE",
"821 501 LINE",
"821 9 LINE",
"679 9 LINE"
);
},
{
closed = 1;
nodes = (
"676 129 LINE",
"618 45 OFFCURVE",
"539 -2 OFFCURVE",
"314 -2 CURVE SMOOTH",
"112 -2 OFFCURVE",
"21 57 OFFCURVE",
"21 211 CURVE SMOOTH",
"21 351 LINE",
"66 351 LINE SMOOTH",
"135 351 OFFCURVE",
"172 365 OFFCURVE",
"172 433 CURVE SMOOTH",
"172 556 LINE",
"314 556 LINE",
"314 407 LINE SMOOTH",
"314 294 OFFCURVE",
"257 249 OFFCURVE",
"161 249 CURVE SMOOTH",
"157 249 LINE",
"157 212 LINE SMOOTH",
"157 150 OFFCURVE",
"185 113 OFFCURVE",
"324 113 CURVE SMOOTH",
"429 113 OFFCURVE",
"506 127 OFFCURVE",
"540 152 CURVE",
"543 177 LINE"
);
},
{
closed = 1;
nodes = (
"562 447 OFFCURVE",
"601 442 OFFCURVE",
"631 435 CURVE",
"631 345 LINE",
"629 344 LINE",
"610 347 OFFCURVE",
"585 350 OFFCURVE",
"558 350 CURVE SMOOTH",
"497 350 OFFCURVE",
"482 338 OFFCURVE",
"482 297 CURVE SMOOTH",
"482 249 OFFCURVE",
"506 239 OFFCURVE",
"562 239 CURVE SMOOTH",
"614 239 OFFCURVE",
"660 244 OFFCURVE",
"694 260 CURVE",
"716 179 LINE",
"680 129 LINE",
"676 129 LINE",
"627 115 OFFCURVE",
"613 129 OFFCURVE",
"574 139 CURVE SMOOTH",
"562 142 OFFCURVE",
"550 151 OFFCURVE",
"540 152 CURVE",
"539 154 LINE",
"390 146 OFFCURVE",
"348 209 OFFCURVE",
"348 302 CURVE SMOOTH",
"348 409 OFFCURVE",
"384 447 OFFCURVE",
"521 447 CURVE SMOOTH"
);
}
);
width = 881;
},
{
anchors = (
{
name = abvm;
position = "{785, 607}";
},
{
name = blwm;
position = "{785, 9}";
}
);
associatedMasterId = "632BC717-227E-41E7-B05B-9781150E6210";
layerId = "6FDC803C-ABF6-4EC6-86FD-F209F53E677A";
name = "1";
paths = (
{
closed = 1;
nodes = (
"76 6 OFFCURVE",
"38 48 OFFCURVE",
"38 201 CURVE SMOOTH",
"38 351 LINE",
"86 351 LINE SMOOTH",
"192 351 OFFCURVE",
"209 365 OFFCURVE",
"209 433 CURVE SMOOTH",
"209 556 LINE",
"351 556 LINE",
"351 407 LINE SMOOTH",
"351 294 OFFCURVE",
"296 241 OFFCURVE",
"181 241 CURVE SMOOTH",
"177 241 LINE",
"177 202 LINE SMOOTH",
"177 143 OFFCURVE",
"192 129 OFFCURVE",
"292 129 CURVE SMOOTH",
"385 129 OFFCURVE",
"404 147 OFFCURVE",
"405 202 CURVE",
"405 268 LINE",
"405 401 OFFCURVE",
"455 432 OFFCURVE",
"560 432 CURVE SMOOTH",
"601 432 OFFCURVE",
"630 428 OFFCURVE",
"656 420 CURVE",
"657 314 LINE",
"655 313 LINE",
"637 318 OFFCURVE",
"617 320 OFFCURVE",
"597 320 CURVE SMOOTH",
"539 320 OFFCURVE",
"526 306 OFFCURVE",
"526 265 CURVE SMOOTH",
"526 224 OFFCURVE",
"555 216 OFFCURVE",
"623 216 CURVE SMOOTH",
"671 216 OFFCURVE",
"704 224 OFFCURVE",
"731 240 CURVE",
"743 119 LINE",
"714 109 LINE",
"712 110 LINE",
"691 101 OFFCURVE",
"653 95 OFFCURVE",
"622 95 CURVE SMOOTH",
"581 95 OFFCURVE",
"533 99 OFFCURVE",
"504 119 CURVE",
"502 118 LINE",
"504 43 OFFCURVE",
"466 6 OFFCURVE",
"296 6 CURVE SMOOTH"
);
},
{
closed = 1;
nodes = (
"-54 607 LINE",
"962 607 LINE",
"962 500 LINE",
"-54 500 LINE"
);
},
{
closed = 1;
nodes = (
"714 501 LINE",
"862 501 LINE",
"862 9 LINE",
"714 9 LINE"
);
}
);
width = 927;
},
{
anchors = (
{
name = abvm;
position = "{744, 607}";
},
{
name = blwm;
position = "{741, 9}";
}
);
associatedMasterId = "632BC717-227E-41E7-B05B-9781150E6210";
background = {
paths = (
{
closed = 1;
nodes = (
"204 1 OFFCURVE",
"124 35 OFFCURVE",
"78 71 CURVE",
"97 195 LINE",
"148 154 OFFCURVE",
"225 127 OFFCURVE",
"304 127 CURVE SMOOTH",
"398 127 OFFCURVE",
"453 148 OFFCURVE",
"456 196 CURVE",
"443 195 OFFCURVE",
"429 194 OFFCURVE",
"417 194 CURVE SMOOTH",
"288 194 OFFCURVE",
"222 253 OFFCURVE",
"222 374 CURVE SMOOTH",
"222 490 OFFCURVE",
"282 547 OFFCURVE",
"396 547 CURVE SMOOTH",
"510 547 OFFCURVE",
"573 503 OFFCURVE",
"573 396 CURVE SMOOTH",
"573 385 OFFCURVE",
"572 374 OFFCURVE",
"570 363 CURVE",
"447 363 LINE",
"447 365 LINE",
"449 371 OFFCURVE",
"450 379 OFFCURVE",
"450 386 CURVE SMOOTH",
"450 412 OFFCURVE",
"438 431 OFFCURVE",
"403 431 CURVE SMOOTH",
"369 431 OFFCURVE",
"355 415 OFFCURVE",
"355 375 CURVE SMOOTH",
"355 316 OFFCURVE",
"391 297 OFFCURVE",
"483 297 CURVE",
"598 297 LINE",
"598 252 LINE SMOOTH",
"598 82 OFFCURVE",
"518 1 OFFCURVE",
"321 1 CURVE SMOOTH"
);
}
);
};
layerId = "DCF277F5-7826-43A8-862E-EEF9BCA07F52";
name = "Regular Apr 26 16, 15:24";
paths = (
{
closed = 1;
nodes = (
"-25 607 LINE",
"881 607 LINE",
"881 500 LINE",
"-25 500 LINE"
);
},
{
closed = 1;
nodes = (
"633 501 LINE",
"781 501 LINE",
"781 9 LINE",
"633 9 LINE"
);
},
{
closed = 1;
nodes = (
"619 144 OFFCURVE",
"594 139 OFFCURVE",
"506 140 CURVE SMOOTH",
"413 141 OFFCURVE",
"346 195 OFFCURVE",
"346 289 CURVE SMOOTH",
"346 415 OFFCURVE",
"419 445 OFFCURVE",
"508 445 CURVE SMOOTH",
"537 445 OFFCURVE",
"563 443 OFFCURVE",
"586 438 CURVE",
"586 333 LINE",
"574 336 OFFCURVE",
"559 337 OFFCURVE",
"539 337 CURVE SMOOTH",
"505 337 OFFCURVE",
"474 324 OFFCURVE",
"474 288 CURVE SMOOTH",
"474 249 OFFCURVE",
"505 240 OFFCURVE",
"540 240 CURVE SMOOTH",
"598 240 OFFCURVE",
"626 249 OFFCURVE",
"644 266 CURVE",
"646 264 LINE",
"635 155 LINE"
);
},
{
closed = 1;
nodes = (
"612 164 LINE",
"612 26 OFFCURVE",
"563 -9 OFFCURVE",
"350 -9 CURVE SMOOTH",
"64 -9 OFFCURVE",
"18 51 OFFCURVE",
"18 211 CURVE SMOOTH",
"18 351 LINE",
"66 351 LINE SMOOTH",
"172 351 OFFCURVE",
"189 365 OFFCURVE",
"189 433 CURVE SMOOTH",
"189 556 LINE",
"331 556 LINE",
"331 407 LINE SMOOTH",
"331 294 OFFCURVE",
"276 241 OFFCURVE",
"161 241 CURVE SMOOTH",
"157 241 LINE",
"157 212 LINE SMOOTH",
"157 137 OFFCURVE",
"196 114 OFFCURVE",
"336 114 CURVE SMOOTH",
"461 114 OFFCURVE",
"483 121 OFFCURVE",
"483 145 CURVE",
"483 164 LINE"
);
}
);
width = 846;
},
{
anchors = (
{
name = abvm;
position = "{759, 607}";
},
{
name = blwm;
position = "{756, 9}";
}
);
associatedMasterId = "632BC717-227E-41E7-B05B-9781150E6210";
background = {
paths = (
{
closed = 1;
nodes = (
"219 1 OFFCURVE",
"139 35 OFFCURVE",
"93 71 CURVE",
"112 195 LINE",
"163 154 OFFCURVE",
"240 127 OFFCURVE",
"319 127 CURVE SMOOTH",
"413 127 OFFCURVE",
"468 148 OFFCURVE",
"471 196 CURVE",
"458 195 OFFCURVE",
"444 194 OFFCURVE",
"432 194 CURVE SMOOTH",
"303 194 OFFCURVE",
"237 253 OFFCURVE",
"237 374 CURVE SMOOTH",
"237 490 OFFCURVE",
"297 547 OFFCURVE",
"411 547 CURVE SMOOTH",
"525 547 OFFCURVE",
"588 503 OFFCURVE",
"588 396 CURVE SMOOTH",
"588 385 OFFCURVE",
"587 374 OFFCURVE",
"585 363 CURVE",
"462 363 LINE",
"462 365 LINE",
"464 371 OFFCURVE",
"465 379 OFFCURVE",
"465 386 CURVE SMOOTH",
"465 412 OFFCURVE",
"453 431 OFFCURVE",
"418 431 CURVE SMOOTH",
"384 431 OFFCURVE",
"370 415 OFFCURVE",
"370 375 CURVE SMOOTH",
"370 316 OFFCURVE",
"406 297 OFFCURVE",
"498 297 CURVE",
"613 297 LINE",
"613 252 LINE SMOOTH",
"613 82 OFFCURVE",
"533 1 OFFCURVE",
"336 1 CURVE SMOOTH"
);
}
);
};
layerId = "745CF7B3-8CDB-4B13-B8F6-0EBA449D8DEA";
name = "Regular Apr 30 16, 20:53";
paths = (
{
closed = 1;
nodes = (
"-30 607 LINE",
"936 607 LINE",
"936 500 LINE",
"-30 500 LINE"
);
},
{
closed = 1;
nodes = (
"697 164 LINE",
"688 174 LINE",
"688 501 LINE",
"836 501 LINE",
"836 9 LINE",
"697 9 LINE"
);
},
{
closed = 1;
nodes = (
"692 132 LINE",
"644 40 OFFCURVE",
"531 -14 OFFCURVE",
"329 -14 CURVE",
"319 31 LINE",
"128 2 OFFCURVE",
"36 78 OFFCURVE",
"36 221 CURVE SMOOTH",
"36 351 LINE",
"81 351 LINE SMOOTH",
"154 351 OFFCURVE",
"187 365 OFFCURVE",
"187 433 CURVE SMOOTH",
"187 556 LINE",
"329 556 LINE",
"329 407 LINE SMOOTH",
"329 294 OFFCURVE",
"274 249 OFFCURVE",
"178 249 CURVE SMOOTH",
"174 249 LINE",
"174 222 LINE SMOOTH",
"174 153 OFFCURVE",
"227 112 OFFCURVE",
"364 112 CURVE SMOOTH",
"487 112 OFFCURVE",
"537 125 OFFCURVE",
"565 150 CURVE",
"558 172 LINE"
);
},
{
closed = 1;
nodes = (
"577 450 OFFCURVE",
"616 445 OFFCURVE",
"646 438 CURVE",
"646 346 LINE",
"644 345 LINE",
"625 348 OFFCURVE",
"600 351 OFFCURVE",
"573 351 CURVE SMOOTH",
"512 351 OFFCURVE",
"497 339 OFFCURVE",
"497 300 CURVE SMOOTH",
"497 252 OFFCURVE",
"521 242 OFFCURVE",
"577 242 CURVE SMOOTH",
"629 242 OFFCURVE",
"675 247 OFFCURVE",
"709 263 CURVE",
"731 182 LINE",
"698 132 LINE",
"692 132 LINE",
"565 150 LINE",
"564 152 LINE",
"414 137 OFFCURVE",
"363 190 OFFCURVE",
"363 305 CURVE SMOOTH",
"363 412 OFFCURVE",
"410 450 OFFCURVE",
"536 450 CURVE SMOOTH"
);
},
{
closed = 1;
nodes = (
"184 -130 LINE",
"143 -12 LINE",
"577 82 LINE",
"562 22 LINE"
);
}
);
width = 896;
}
);
rightMetricsKey = dvmAA;
unicode = 0916;
},
{
color = 6;
glyphname = dvGA;
lastChange = "2016-05-19 21:47:13 +0000";
layers = (
{
anchors = (
{
name = abvm;
position = "{456, 607}";
}
);
layerId = "632BC717-227E-41E7-B05B-9781150E6210";
paths = (
{
closed = 1;
nodes = (
"360 501 LINE",
"508 501 LINE",
"508 9 LINE",
"360 9 LINE"
);
},
{
closed = 1;
nodes = (
"-50 607 LINE",
"609 607 LINE",
"609 500 LINE",
"-50 500 LINE"
);
},
{
closed = 1;
nodes = (
"246 250 LINE SMOOTH",
"246 181 OFFCURVE",
"209 129 OFFCURVE",
"129 129 CURVE SMOOTH",
"85 129 OFFCURVE",
"49 137 OFFCURVE",
"20 149 CURVE",
"20 261 LINE",
"22 261 LINE",
"33 258 OFFCURVE",
"47 255 OFFCURVE",
"60 255 CURVE SMOOTH",
"90 255 OFFCURVE",
"104 266 OFFCURVE",
"104 305 CURVE SMOOTH",
"104 503 LINE",
"246 502 LINE"
);
}
);
width = 569;
},
{
associatedMasterId = "632BC717-227E-41E7-B05B-9781150E6210";
layerId = "2C9A94C4-2EA4-4550-8133-95DBC02AC40D";
name = "Regular Mar 30 16, 04:38";
paths = (
{
closed = 1;
nodes = (
"370 501 LINE",
"519 501 LINE",
"519 9 LINE",
"370 9 LINE"
);
},
{
closed = 1;
nodes = (
"270 348 LINE SMOOTH",
"270 172 OFFCURVE",
"249 129 OFFCURVE",
"123 129 CURVE SMOOTH",
"87 129 OFFCURVE",
"58 134 OFFCURVE",
"41 143 CURVE",
"41 266 LINE",
"113 266 OFFCURVE",
"124 277 OFFCURVE",
"124 325 CURVE",
"124 511 LINE",
"270 510 LINE"
);
},
{
closed = 1;
nodes = (
"-44 607 LINE",
"619 607 LINE",
"619 500 LINE",
"-44 500 LINE"
);
}
);
width = 569;
visible = 1;
}
);
rightMetricsKey = dvmAA;
unicode = 0917;
},
{
color = 6;
glyphname = dvGHA;
lastChange = "2016-05-19 21:47:13 +0000";
layers = (
{
anchors = (
{
name = abvm;
position = "{491, 607}";
}
);
background = {
paths = (
{
closed = 1;
nodes = (
"542 9 LINE",
"542 501 LINE",
"393 501 LINE",
"393 9 LINE"
);
},
{
closed = 1;
nodes = (
"642 500 LINE",
"642 607 LINE",
"-75 607 LINE",
"-75 500 LINE"
);
},
{
closed = 1;
nodes = (
"29 377 OFFCURVE",
"69 338 OFFCURVE",
"142 338 CURVE",
"142 334 LINE",
"69 334 OFFCURVE",
"33 291 OFFCURVE",
"33 216 CURVE SMOOTH",
"33 103 OFFCURVE",
"95 52 OFFCURVE",
"246 54 CURVE SMOOTH",
"306 55 OFFCURVE",
"388 68 OFFCURVE",
"416 98 CURVE",
"399 207 LINE",
"378 189 OFFCURVE",
"301 177 OFFCURVE",
"269 177 CURVE SMOOTH",
"187 177 OFFCURVE",
"172 192 OFFCURVE",
"172 226 CURVE SMOOTH",
"172 270 OFFCURVE",
"187 280 OFFCURVE",
"269 280 CURVE SMOOTH",
"288 280 LINE",
"288 395 LINE",
"269 395 LINE SMOOTH",
"186 395 OFFCURVE",
"164 409 OFFCURVE",
"164 442 CURVE SMOOTH",
"164 482 OFFCURVE",
"166 501 OFFCURVE",
"239 501 CURVE",
"239 606 LINE",
"112 607 OFFCURVE",
"80 569 OFFCURVE",
"60 515 CURVE",
"38 500 OFFCURVE",
"29 474 OFFCURVE",
"29 452 CURVE SMOOTH"
);
}
);
};
hints = (
{
horizontal = 1;
place = "{9, 0}";
},
{
horizontal = 1;
place = "{9, 0}";
},
{
horizontal = 1;
place = "{9, 0}";
},
{
place = "{44, 0}";
},
{
place = "{44, 0}";
},
{
place = "{44, 0}";
},
{
place = "{44, 0}";
}
);
layerId = "632BC717-227E-41E7-B05B-9781150E6210";
paths = (
{
closed = 1;
nodes = (
"414 501 LINE",
"563 501 LINE",
"563 9 LINE",
"414 9 LINE"
);
},
{
closed = 1;
nodes = (
"39 465 OFFCURVE",
"50 484 OFFCURVE",
"69 497 CURVE",
"69 501 LINE",
"260 606 LINE",
"260 500 LINE",
"197 500 OFFCURVE",
"185 483 OFFCURVE",
"185 447 CURVE SMOOTH",
"185 411 OFFCURVE",
"207 395 OFFCURVE",
"290 395 CURVE SMOOTH",
"309 395 LINE",
"309 280 LINE",
"290 280 LINE SMOOTH",
"215 280 OFFCURVE",
"193 268 OFFCURVE",
"193 228 CURVE SMOOTH",
"193 190 OFFCURVE",
"215 177 OFFCURVE",
"290 177 CURVE SMOOTH",
"322 177 OFFCURVE",
"399 189 OFFCURVE",
"420 207 CURVE",
"437 98 LINE",
"414 83 LINE",
"411 85 LINE",
"368 66 OFFCURVE",
"312 54 OFFCURVE",
"249 54 CURVE SMOOTH",
"108 54 OFFCURVE",
"48 105 OFFCURVE",
"48 216 CURVE SMOOTH",
"48 281 OFFCURVE",
"89 330 OFFCURVE",
"163 334 CURVE",
"163 338 LINE",
"85 341 OFFCURVE",
"39 378 OFFCURVE",
"39 436 CURVE SMOOTH"
);
},
{
closed = 1;
nodes = (
"-65 607 LINE",
"663 607 LINE",
"663 500 LINE",
"-65 500 LINE"
);
}
);
width = 623;
},
{
associatedMasterId = "632BC717-227E-41E7-B05B-9781150E6210";
layerId = "F0204557-F107-4268-B31C-474E7207F267";
name = "Regular Mar 9 16, 12:06";
paths = (
{
closed = 1;
nodes = (
"557 9 LINE",
"557 501 LINE",
"408 501 LINE",
"408 9 LINE"
);
},
{
closed = 1;
nodes = (
"657 500 LINE",
"657 607 LINE",
"-60 607 LINE",
"-60 500 LINE"
);
},
{
closed = 1;
nodes = (
"44 389 OFFCURVE",
"68 314 OFFCURVE",
"157 314 CURVE",
"157 327 LINE",
"90 327 OFFCURVE",
"48 287 OFFCURVE",
"48 223 CURVE SMOOTH",
"48 110 OFFCURVE",
"110 56 OFFCURVE",
"261 58 CURVE SMOOTH",
"321 59 OFFCURVE",
"403 72 OFFCURVE",
"431 102 CURVE",
"414 207 LINE",
"393 189 OFFCURVE",
"316 177 OFFCURVE",
"284 177 CURVE SMOOTH",
"192 177 OFFCURVE",
"177 189 OFFCURVE",
"177 223 CURVE SMOOTH",
"177 256 OFFCURVE",
"192 269 OFFCURVE",
"284 269 CURVE SMOOTH",
"303 269 LINE",
"303 381 LINE",
"284 381 LINE SMOOTH",
"201 381 OFFCURVE",
"169 380 OFFCURVE",
"169 436 CURVE SMOOTH",
"169 498 OFFCURVE",
"201 503 OFFCURVE",
"284 503 CURVE",
"284 606 LINE",
"102 607 OFFCURVE",
"44 557 OFFCURVE",
"44 446 CURVE SMOOTH"
);
}
);
width = 607;
}
);
leftMetricsKey = dvDHA;
rightMetricsKey = dvmAA;
unicode = 0918;
},
{
color = 5;
glyphname = dvNGA;
lastChange = "2016-05-21 01:10:55 +0000";
layers = (
{
anchors = (
{
name = abvm.bindu;
position = "{447, 607}";
},
{
name = abvm.e;
position = "{445, 607}";
},
{
name = blwm.u;
position = "{280, -71}";
},
{
name = blwm.virama;
position = "{180, -51}";
}
);
components = (
{
name = dvAnusvara;
transform = "{0.95, 0, 0, 0.95, 691, -448}";
}
);
layerId = "632BC717-227E-41E7-B05B-9781150E6210";
paths = (
{
closed = 1;
nodes = (
"329 501 LINE",
"447 501 LINE",
"447 344 LINE",
"329 344 LINE"
);
},
{
closed = 1;
nodes = (
"-30 607 LINE",
"675 607 LINE",
"675 500 LINE",
"-30 500 LINE"
);
},
{
closed = 1;
nodes = (
"44 141 LINE",
"82 123 OFFCURVE",
"154 113 OFFCURVE",
"231 113 CURVE SMOOTH",
"317 113 OFFCURVE",
"335 122 OFFCURVE",
"335 154 CURVE SMOOTH",
"335 186 OFFCURVE",
"327 191 OFFCURVE",
"251 191 CURVE SMOOTH",
"210 191 LINE SMOOTH",
"92 191 OFFCURVE",
"46 218 OFFCURVE",
"46 317 CURVE SMOOTH",
"46 422 OFFCURVE",
"91 447 OFFCURVE",
"209 447 CURVE SMOOTH",
"447 447 LINE",
"447 340 LINE",
"227 340 LINE SMOOTH",
"196 340 OFFCURVE",
"187 334 OFFCURVE",
"187 308 CURVE SMOOTH",
"187 282 OFFCURVE",
"196 276 OFFCURVE",
"227 276 CURVE SMOOTH",
"278 276 LINE SMOOTH",
"432 276 OFFCURVE",
"476 253 OFFCURVE",
"476 147 CURVE SMOOTH",
"476 23 OFFCURVE",
"390 -1 OFFCURVE",
"231 -1 CURVE SMOOTH",
"146 -1 OFFCURVE",
"93 5 OFFCURVE",
"39 21 CURVE",
"39 138 LINE"
);
}
);
width = 625;
}
);
leftMetricsKey = dvDDA;
unicode = 0919;
},
{
color = 6;
glyphname = dvCA;
lastChange = "2016-05-19 21:47:13 +0000";
layers = (
{
anchors = (
{
name = abvm;
position = "{536, 607}";
},
{
name = blwm;
position = "{533, 8}";
}
);
layerId = "632BC717-227E-41E7-B05B-9781150E6210";
paths = (
{
closed = 1;
nodes = (
"453 501 LINE",
"602 501 LINE",
"602 9 LINE",
"453 9 LINE"
);
},
{
closed = 1;
nodes = (
"-35 607 LINE",
"702 607 LINE",
"702 500 LINE",
"-35 500 LINE"
);
},
{
closed = 1;
nodes = (
"13 423 LINE",
"352 423 LINE",
"352 317 LINE",
"272 317 LINE SMOOTH",
"244 317 OFFCURVE",
"225 307 OFFCURVE",
"225 270 CURVE SMOOTH",
"225 227 OFFCURVE",
"246 214 OFFCURVE",
"315 211 CURVE SMOOTH",
"368 209 OFFCURVE",
"430 225 OFFCURVE",
"458 245 CURVE",
"475 126 LINE",
"467 121 OFFCURVE",
"463 118 OFFCURVE",
"453 114 CURVE",
"451 115 LINE",
"407 96 OFFCURVE",
"346 84 OFFCURVE",
"286 84 CURVE SMOOTH",
"164 84 OFFCURVE",
"84 125 OFFCURVE",
"84 221 CURVE SMOOTH",
"84 265 OFFCURVE",
"97 290 OFFCURVE",
"115 304 CURVE",
"113 307 LINE",
"90 299 OFFCURVE",
"53 292 OFFCURVE",
"13 292 CURVE"
);
}
);
width = 662;
}
);
rightMetricsKey = dvmAA;
unicode = 091A;
},
{
color = 5;
glyphname = dvCHA;
lastChange = "2016-05-21 01:11:50 +0000";
layers = (
{
anchors = (
{
name = abvm.bindu;
position = "{561, 607}";
},
{
name = abvm.e;
position = "{559, 607}";
},
{
name = blwm.u;
position = "{394, -71}";
},
{
name = blwm.virama;
position = "{294, -51}";
}
);
background = {
paths = (
{
closed = 1;
nodes = (
"29 368 OFFCURVE",
"73 338 OFFCURVE",
"157 338 CURVE",
"157 334 LINE",
"73 334 OFFCURVE",
"38 291 OFFCURVE",
"38 216 CURVE SMOOTH",
"38 105 OFFCURVE",
"98 54 OFFCURVE",
"253 54 CURVE SMOOTH",
"313 54 OFFCURVE",
"402 67 OFFCURVE",
"431 98 CURVE",
"414 207 LINE",
"393 189 OFFCURVE",
"316 177 OFFCURVE",
"284 177 CURVE SMOOTH",
"209 177 OFFCURVE",
"187 190 OFFCURVE",
"187 228 CURVE SMOOTH",
"187 268 OFFCURVE",
"209 280 OFFCURVE",
"284 280 CURVE SMOOTH",
"303 280 LINE",
"303 395 LINE",
"284 395 LINE SMOOTH",
"201 395 OFFCURVE",
"179 411 OFFCURVE",
"179 447 CURVE SMOOTH",
"179 483 OFFCURVE",
"191 500 OFFCURVE",
"254 500 CURVE",
"254 606 LINE",
"69 501 LINE",
"69 497 LINE",
"46 490 OFFCURVE",
"29 466 OFFCURVE",
"29 431 CURVE SMOOTH"
);
}
);
};
layerId = "632BC717-227E-41E7-B05B-9781150E6210";
paths = (
{
closed = 1;
nodes = (
"727 500 LINE",
"727 607 LINE",
"-60 607 LINE",
"-60 500 LINE"
);
},
{
closed = 1;
nodes = (
"434 397 LINE",
"562 397 LINE",
"562 538 LINE",
"434 538 LINE"
);
},
{
closed = 1;
nodes = (
"26 349 OFFCURVE",
"66 306 OFFCURVE",
"142 303 CURVE",
"142 299 LINE",
"66 289 OFFCURVE",
"34 246 OFFCURVE",
"34 173 CURVE SMOOTH",
"34 52 OFFCURVE",
"126 0 OFFCURVE",
"347 0 CURVE SMOOTH",
"614 0 OFFCURVE",
"656 111 OFFCURVE",
"656 280 CURVE SMOOTH",
"656 421 OFFCURVE",
"607 452 OFFCURVE",
"488 452 CURVE SMOOTH",
"394 452 OFFCURVE",
"333 432 OFFCURVE",
"333 315 CURVE SMOOTH",
"333 291 OFFCURVE",
"336 263 OFFCURVE",
"343 238 CURVE",
"453 238 LINE",
"453 240 LINE",
"449 257 OFFCURVE",
"446 277 OFFCURVE",
"446 295 CURVE SMOOTH",
"446 341 OFFCURVE",
"454 356 OFFCURVE",
"487 356 CURVE SMOOTH",
"520 356 OFFCURVE",
"530 341 OFFCURVE",
"530 295 CURVE SMOOTH",
"530 252 OFFCURVE",
"529 203 OFFCURVE",
"513 176 CURVE SMOOTH",
"492 140 OFFCURVE",
"439 122 OFFCURVE",
"344 122 CURVE SMOOTH",
"219 122 OFFCURVE",
"182 142 OFFCURVE",
"182 187 CURVE SMOOTH",
"182 230 OFFCURVE",
"207 243 OFFCURVE",
"279 243 CURVE SMOOTH",
"285 243 LINE",
"285 359 LINE",
"279 359 LINE SMOOTH",
"199 359 OFFCURVE",
"174 378 OFFCURVE",
"174 429 CURVE SMOOTH",
"174 480 OFFCURVE",
"199 500 OFFCURVE",
"259 500 CURVE",
"259 606 LINE",
"74 502 LINE",
"74 498 LINE",
"49 488 OFFCURVE",
"26 453 OFFCURVE",
"26 410 CURVE SMOOTH"
);
}
);
width = 682;
},
{
associatedMasterId = "632BC717-227E-41E7-B05B-9781150E6210";
background = {
paths = (
{
closed = 1;
nodes = (
"29 368 OFFCURVE",
"73 338 OFFCURVE",
"157 338 CURVE",
"157 334 LINE",
"73 334 OFFCURVE",
"38 291 OFFCURVE",
"38 216 CURVE SMOOTH",
"38 105 OFFCURVE",
"98 54 OFFCURVE",
"253 54 CURVE SMOOTH",
"313 54 OFFCURVE",
"402 67 OFFCURVE",
"431 98 CURVE",
"414 207 LINE",
"393 189 OFFCURVE",
"316 177 OFFCURVE",
"284 177 CURVE SMOOTH",
"209 177 OFFCURVE",
"187 190 OFFCURVE",
"187 228 CURVE SMOOTH",
"187 268 OFFCURVE",
"209 280 OFFCURVE",
"284 280 CURVE SMOOTH",
"303 280 LINE",
"303 395 LINE",
"284 395 LINE SMOOTH",
"201 395 OFFCURVE",
"179 411 OFFCURVE",
"179 447 CURVE SMOOTH",
"179 483 OFFCURVE",
"191 500 OFFCURVE",
"254 500 CURVE",
"254 606 LINE",
"69 501 LINE",
"69 497 LINE",
"46 490 OFFCURVE",
"29 466 OFFCURVE",
"29 431 CURVE SMOOTH"
);
}
);
};
layerId = "A14690C9-AEB3-40C9-B734-9D8DBA52FBD0";
name = "Regular Apr 21 16, 18:23";
width = 682;
},
{
associatedMasterId = "632BC717-227E-41E7-B05B-9781150E6210";
background = {
paths = (
{
closed = 1;
nodes = (
"29 368 OFFCURVE",
"73 338 OFFCURVE",
"157 338 CURVE",
"157 334 LINE",
"73 334 OFFCURVE",
"38 291 OFFCURVE",
"38 216 CURVE SMOOTH",
"38 105 OFFCURVE",
"98 54 OFFCURVE",
"253 54 CURVE SMOOTH",
"313 54 OFFCURVE",
"402 67 OFFCURVE",
"431 98 CURVE",
"414 207 LINE",
"393 189 OFFCURVE",
"316 177 OFFCURVE",
"284 177 CURVE SMOOTH",
"209 177 OFFCURVE",
"187 190 OFFCURVE",
"187 228 CURVE SMOOTH",
"187 268 OFFCURVE",
"209 280 OFFCURVE",
"284 280 CURVE SMOOTH",
"303 280 LINE",
"303 395 LINE",
"284 395 LINE SMOOTH",
"201 395 OFFCURVE",
"179 411 OFFCURVE",
"179 447 CURVE SMOOTH",
"179 483 OFFCURVE",
"191 500 OFFCURVE",
"254 500 CURVE",
"254 606 LINE",
"69 501 LINE",
"69 497 LINE",
"46 490 OFFCURVE",
"29 466 OFFCURVE",
"29 431 CURVE SMOOTH"
);
}
);
};
layerId = "C66AC6A3-B7B4-4ED8-9DB4-A304265AA191";
name = "Regular Apr 22 16, 11:25";
paths = (
{
closed = 1;
nodes = (
"-60 607 LINE",
"697 607 LINE",
"697 500 LINE",
"-60 500 LINE"
);
},
{
closed = 1;
nodes = (
"536 538 LINE",
"536 387 LINE",
"408 387 LINE",
"408 538 LINE"
);
},
{
closed = 1;
nodes = (
"364 417 LINE",
"380 423 OFFCURVE",
"402 427 OFFCURVE",
"440 427 CURVE SMOOTH",
"554 427 OFFCURVE",
"611 373 OFFCURVE",
"611 230 CURVE SMOOTH",
"611 65 OFFCURVE",
"557 -2 OFFCURVE",
"324 -2 CURVE SMOOTH",
"133 -2 OFFCURVE",
"34 30 OFFCURVE",
"34 161 CURVE SMOOTH",
"34 244 OFFCURVE",
"66 292 OFFCURVE",
"142 299 CURVE",
"142 303 LINE",
"66 306 OFFCURVE",
"26 349 OFFCURVE",
"26 410 CURVE SMOOTH",
"26 453 OFFCURVE",
"49 488 OFFCURVE",
"74 498 CURVE",
"74 502 LINE",
"259 606 LINE",
"259 500 LINE",
"199 500 OFFCURVE",
"174 480 OFFCURVE",
"174 429 CURVE SMOOTH",
"174 378 OFFCURVE",
"199 359 OFFCURVE",
"279 359 CURVE SMOOTH",
"298 359 LINE",
"298 243 LINE",
"279 243 LINE SMOOTH",
"197 243 OFFCURVE",
"182 222 OFFCURVE",
"182 180 CURVE SMOOTH",
"182 135 OFFCURVE",
"205 120 OFFCURVE",
"327 120 CURVE SMOOTH",
"453 120 OFFCURVE",
"472 139 OFFCURVE",
"472 228 CURVE SMOOTH",
"472 299 OFFCURVE",
"455 318 OFFCURVE",
"412 318 CURVE SMOOTH",
"395 318 OFFCURVE",
"379 315 OFFCURVE",
"365 311 CURVE",
"364 312 LINE"
);
}
);
width = 632;
}
);
unicode = 091B;
},
{
color = 6;
glyphname = dvJA;
lastChange = "2016-05-19 21:47:13 +0000";
layers = (
{
background = {
paths = (
{
closed = 1;
nodes = (
"54 140 LINE",
"86 132 OFFCURVE",
"124 126 OFFCURVE",
"161 126 CURVE SMOOTH",
"215 126 OFFCURVE",
"236 140 OFFCURVE",
"236 209 CURVE SMOOTH",
"236 279 OFFCURVE",
"217 297 OFFCURVE",
"135 297 CURVE",
"332 297 LINE",
"332 295 LINE",
"355 278 OFFCURVE",
"378 251 OFFCURVE",
"378 180 CURVE SMOOTH",
"378 47 OFFCURVE",
"340 0 OFFCURVE",
"204 0 CURVE SMOOTH",
"147 0 OFFCURVE",
"94 6 OFFCURVE",
"52 15 CURVE",
"52 140 LINE"
);
}
);
};
layerId = "632BC717-227E-41E7-B05B-9781150E6210";
paths = (
{
closed = 1;
nodes = (
"116 0 OFFCURVE",
"63 8 OFFCURVE",
"21 20 CURVE",
"21 134 LINE",
"23 135 LINE",
"55 127 OFFCURVE",
"93 121 OFFCURVE",
"140 121 CURVE SMOOTH",
"204 121 OFFCURVE",
"225 135 OFFCURVE",
"225 209 CURVE SMOOTH",
"225 269 OFFCURVE",
"206 287 OFFCURVE",
"124 287 CURVE",
"223 303 LINE",
"304 297 LINE",
"304 295 LINE",
"342 280 OFFCURVE",
"361 237 OFFCURVE",
"361 180 CURVE SMOOTH",
"361 47 OFFCURVE",
"323 0 OFFCURVE",
"183 0 CURVE SMOOTH"
);
},
{
closed = 1;
nodes = (
"94 403 LINE",
"569 403 LINE",
"569 297 LINE",
"292 297 LINE",
"227 297 LINE",
"124 287 LINE",
"94 287 LINE"
);
},
{
closed = 1;
nodes = (
"466 502 LINE",
"613 502 LINE",
"613 9 LINE",
"466 9 LINE"
);
},
{
closed = 1;
nodes = (
"-35 607 LINE",
"713 607 LINE",
"713 500 LINE",
"-35 500 LINE"
);
}
);
width = 673;
},
{
associatedMasterId = "632BC717-227E-41E7-B05B-9781150E6210";
background = {
paths = (
{
closed = 1;
nodes = (
"-195 -90 LINE SMOOTH",
"-299 -90 OFFCURVE",
"-336 -60 OFFCURVE",
"-336 35 CURVE SMOOTH",
"-336 133 OFFCURVE",
"-296 158 OFFCURVE",
"-198 158 CURVE SMOOTH",
"-141 158 LINE SMOOTH",
"-67 158 OFFCURVE",
"-32 156 OFFCURVE",
"-32 196 CURVE SMOOTH",
"-32 236 OFFCURVE",
"-69 239 OFFCURVE",
"-116 239 CURVE SMOOTH",
"-174 239 OFFCURVE",
"-204 236 OFFCURVE",
"-222 233 CURVE SMOOTH",
"-238 230 OFFCURVE",
"-244 224 OFFCURVE",
"-244 213 CURVE SMOOTH",
"-244 189 LINE",
"-360 189 LINE",
"-360 438 LINE",
"-214 438 LINE",
"-214 378 OFFCURVE",
"-218 359 OFFCURVE",
"-246 321 CURVE",
"-241 317 LINE",
"-218 337 OFFCURVE",
"-169 347 OFFCURVE",
"-95 347 CURVE SMOOTH",
"49 347 OFFCURVE",
"111 322 OFFCURVE",
"111 200 CURVE SMOOTH",
"111 78 OFFCURVE",
"48 62 OFFCURVE",
"-95 62 CURVE SMOOTH",
"-168 62 LINE SMOOTH",
"-189 62 OFFCURVE",
"-196 56 OFFCURVE",
"-196 35 CURVE SMOOTH",
"-196 13 OFFCURVE",
"-189 7 OFFCURVE",
"-168 7 CURVE SMOOTH",
"216 7 LINE",
"216 -90 LINE"
);
}
);
};
layerId = "E5B60C64-FB09-49E8-B70D-3E4741CBEB6B";
name = "Regular Mar 9 16, 12:28";
paths = (
{
closed = 1;
nodes = (
"581 502 LINE",
"728 502 LINE",
"728 15 LINE",
"581 15 LINE"
);
},
{
closed = 1;
nodes = (
"-60 607 LINE",
"828 607 LINE",
"828 501 LINE",
"-60 501 LINE"
);
},
{
closed = 1;
nodes = (
"270 286 LINE",
"270 398 LINE",
"616 398 LINE",
"616 282 LINE"
);
},
{
closed = 1;
nodes = (
"443 285 LINE",
"462 273 OFFCURVE",
"476 253 OFFCURVE",
"476 200 CURVE SMOOTH",
"476 68 OFFCURVE",
"444 28 OFFCURVE",
"255 28 CURVE SMOOTH",
"67 28 OFFCURVE",
"34 68 OFFCURVE",
"34 200 CURVE SMOOTH",
"34 293 LINE",
"160 293 LINE",
"160 204 LINE SMOOTH",
"160 167 OFFCURVE",
"175 151 OFFCURVE",
"250 151 CURVE SMOOTH",
"325 151 OFFCURVE",
"340 167 OFFCURVE",
"340 204 CURVE SMOOTH",
"340 261 OFFCURVE",
"336 286 OFFCURVE",
"294 287 CURVE"
);
}
);
width = 778;
},
{
associatedMasterId = "632BC717-227E-41E7-B05B-9781150E6210";
background = {
paths = (
{
closed = 1;
nodes = (
"-305 -90 LINE SMOOTH",
"-409 -90 OFFCURVE",
"-446 -60 OFFCURVE",
"-446 35 CURVE SMOOTH",
"-446 133 OFFCURVE",
"-406 158 OFFCURVE",
"-308 158 CURVE SMOOTH",
"-251 158 LINE SMOOTH",
"-177 158 OFFCURVE",
"-142 156 OFFCURVE",
"-142 196 CURVE SMOOTH",
"-142 236 OFFCURVE",
"-179 239 OFFCURVE",
"-226 239 CURVE SMOOTH",
"-284 239 OFFCURVE",
"-314 236 OFFCURVE",
"-332 233 CURVE SMOOTH",
"-348 230 OFFCURVE",
"-354 224 OFFCURVE",
"-354 213 CURVE SMOOTH",
"-354 189 LINE",
"-470 189 LINE",
"-470 438 LINE",
"-324 438 LINE",
"-324 378 OFFCURVE",
"-328 359 OFFCURVE",
"-356 321 CURVE",
"-351 317 LINE",
"-328 337 OFFCURVE",
"-279 347 OFFCURVE",
"-205 347 CURVE SMOOTH",
"-61 347 OFFCURVE",
"1 322 OFFCURVE",
"1 200 CURVE SMOOTH",
"1 78 OFFCURVE",
"-62 62 OFFCURVE",
"-205 62 CURVE SMOOTH",
"-278 62 LINE SMOOTH",
"-299 62 OFFCURVE",
"-306 56 OFFCURVE",
"-306 35 CURVE SMOOTH",
"-306 13 OFFCURVE",
"-299 7 OFFCURVE",
"-278 7 CURVE SMOOTH",
"106 7 LINE",
"106 -90 LINE"
);
}
);
};
layerId = "54C34D10-6383-4583-BB18-02703E287DE1";
name = "Regular Mar 9 16, 13:15";
paths = (
{
closed = 1;
nodes = (
"509 502 LINE",
"656 502 LINE",
"656 15 LINE",
"509 15 LINE"
);
},
{
closed = 1;
nodes = (
"-20 607 LINE",
"756 607 LINE",
"756 501 LINE",
"-20 501 LINE"
);
},
{
closed = 1;
nodes = (
"10 207 CURVE",
"10 218 LINE",
"136 218 LINE",
"136 207 LINE",
"136 140 OFFCURVE",
"150 129 OFFCURVE",
"198 129 CURVE SMOOTH",
"248 129 OFFCURVE",
"260 140 OFFCURVE",
"260 207 CURVE SMOOTH",
"260 274 OFFCURVE",
"256 304 OFFCURVE",
"215 304 CURVE",
"360 302 LINE",
"378 290 OFFCURVE",
"392 266 OFFCURVE",
"392 207 CURVE SMOOTH",
"392 43 OFFCURVE",
"353 9 OFFCURVE",
"198 9 CURVE SMOOTH",
"49 9 OFFCURVE",
"10 43 OFFCURVE"
);
},
{
closed = 1;
nodes = (
"110 303 LINE",
"110 417 LINE",
"526 417 LINE",
"526 299 LINE"
);
}
);
width = 668;
},
{
associatedMasterId = "632BC717-227E-41E7-B05B-9781150E6210";
background = {
paths = (
{
closed = 1;
nodes = (
"-267 -90 LINE SMOOTH",
"-371 -90 OFFCURVE",
"-408 -60 OFFCURVE",
"-408 35 CURVE SMOOTH",
"-408 133 OFFCURVE",
"-368 158 OFFCURVE",
"-270 158 CURVE SMOOTH",
"-213 158 LINE SMOOTH",
"-139 158 OFFCURVE",
"-104 156 OFFCURVE",
"-104 196 CURVE SMOOTH",
"-104 236 OFFCURVE",
"-141 239 OFFCURVE",
"-188 239 CURVE SMOOTH",
"-246 239 OFFCURVE",
"-276 236 OFFCURVE",
"-294 233 CURVE SMOOTH",
"-310 230 OFFCURVE",
"-316 224 OFFCURVE",
"-316 213 CURVE SMOOTH",
"-316 189 LINE",
"-432 189 LINE",
"-432 438 LINE",
"-286 438 LINE",
"-286 378 OFFCURVE",
"-290 359 OFFCURVE",
"-318 321 CURVE",
"-313 317 LINE",
"-290 337 OFFCURVE",
"-241 347 OFFCURVE",
"-167 347 CURVE SMOOTH",
"-23 347 OFFCURVE",
"39 322 OFFCURVE",
"39 200 CURVE SMOOTH",
"39 78 OFFCURVE",
"-24 62 OFFCURVE",
"-167 62 CURVE SMOOTH",
"-240 62 LINE SMOOTH",
"-261 62 OFFCURVE",
"-268 56 OFFCURVE",
"-268 35 CURVE SMOOTH",
"-268 13 OFFCURVE",
"-261 7 OFFCURVE",
"-240 7 CURVE SMOOTH",
"144 7 LINE",
"144 -90 LINE"
);
}
);
};
layerId = "E3149377-AF73-4FF1-BBC2-D3FEB09B7F22";
name = "Regular Mar 11 16, 00:18";
paths = (
{
closed = 1;
nodes = (
"509 502 LINE",
"656 502 LINE",
"656 15 LINE",
"509 15 LINE"
);
},
{
closed = 1;
nodes = (
"-20 607 LINE",
"756 607 LINE",
"756 501 LINE",
"-20 501 LINE"
);
},
{
closed = 1;
nodes = (
"138 304 LINE",
"138 418 LINE",
"564 418 LINE",
"564 300 LINE"
);
},
{
closed = 1;
nodes = (
"10 207 CURVE",
"10 218 LINE",
"136 218 LINE",
"136 207 LINE",
"136 140 OFFCURVE",
"150 129 OFFCURVE",
"198 129 CURVE SMOOTH",
"248 129 OFFCURVE",
"260 140 OFFCURVE",
"260 207 CURVE SMOOTH",
"260 274 OFFCURVE",
"256 304 OFFCURVE",
"215 304 CURVE",
"360 302 LINE",
"378 290 OFFCURVE",
"392 266 OFFCURVE",
"392 207 CURVE SMOOTH",
"392 43 OFFCURVE",
"353 9 OFFCURVE",
"198 9 CURVE SMOOTH",
"49 9 OFFCURVE",
"10 43 OFFCURVE"
);
}
);
width = 706;
}
);
rightMetricsKey = dvmAA;
unicode = 091C;
},
{
color = 6;
glyphname = dvJHA;
lastChange = "2016-05-19 21:47:13 +0000";
layers = (
{
layerId = "632BC717-227E-41E7-B05B-9781150E6210";
paths = (
{
closed = 1;
nodes = (
"363 223 LINE",
"650 223 LINE",
"650 118 LINE",
"363 118 LINE"
);
},
{
closed = 1;
nodes = (
"364 500 LINE",
"482 500 LINE",
"482 340 LINE",
"364 340 LINE"
);
},
{
closed = 1;
nodes = (
"601 501 LINE",
"749 501 LINE",
"749 9 LINE",
"601 9 LINE"
);
},
{
closed = 1;
nodes = (
"-50 607 LINE",
"849 607 LINE",
"849 500 LINE",
"-50 500 LINE"
);
},
{
closed = 1;
nodes = (
"454 340 LINE",
"228 340 LINE SMOOTH",
"205 340 OFFCURVE",
"190 336 OFFCURVE",
"190 311 CURVE SMOOTH",
"190 286 OFFCURVE",
"205 282 OFFCURVE",
"228 282 CURVE SMOOTH",
"280 282 LINE SMOOTH",
"432 282 OFFCURVE",
"479 256 OFFCURVE",
"479 143 CURVE SMOOTH",
"479 36 OFFCURVE",
"425 0 OFFCURVE",
"287 0 CURVE SMOOTH",
"231 0 OFFCURVE",
"192 7 OFFCURVE",
"164 19 CURVE",
"161 16 LINE",
"171 -12 OFFCURVE",
"173 -36 OFFCURVE",
"173 -74 CURVE",
"48 -74 LINE",
"48 157 LINE",
"151 157 LINE",
"151 149 LINE SMOOTH",
"151 120 OFFCURVE",
"168 113 OFFCURVE",
"245 113 CURVE SMOOTH",
"324 113 OFFCURVE",
"339 120 OFFCURVE",
"339 149 CURVE SMOOTH",
"339 178 OFFCURVE",
"326 185 OFFCURVE",
"252 185 CURVE SMOOTH",
"212 185 LINE SMOOTH",
"95 185 OFFCURVE",
"50 222 OFFCURVE",
"50 318 CURVE SMOOTH",
"50 413 OFFCURVE",
"102 447 OFFCURVE",
"224 447 CURVE SMOOTH",
"454 447 LINE"
);
}
);
width = 809;
},
{
associatedMasterId = "632BC717-227E-41E7-B05B-9781150E6210";
layerId = "AE13A357-F33D-4493-8841-916D3772E611";
name = "Regular Mar 30 16, 10:35";
paths = (
{
closed = 1;
nodes = (
"382 232 LINE",
"639 232 LINE",
"639 118 LINE",
"382 118 LINE"
);
},
{
closed = 1;
nodes = (
"383 501 LINE",
"501 501 LINE",
"501 344 LINE",
"383 344 LINE"
);
},
{
closed = 1;
nodes = (
"501 344 LINE",
"245 344 LINE SMOOTH",
"216 344 OFFCURVE",
"201 343 OFFCURVE",
"201 315 CURVE SMOOTH",
"201 287 OFFCURVE",
"216 285 OFFCURVE",
"245 285 CURVE SMOOTH",
"297 285 LINE SMOOTH",
"434 285 OFFCURVE",
"493 250 OFFCURVE",
"493 151 CURVE SMOOTH",
"493 43 OFFCURVE",
"419 10 OFFCURVE",
"291 10 CURVE SMOOTH",
"235 10 OFFCURVE",
"192 20 OFFCURVE",
"171 37 CURVE",
"167 34 LINE",
"192 0 OFFCURVE",
"195 -17 OFFCURVE",
"195 -70 CURVE",
"65 -70 LINE",
"65 151 LINE",
"168 151 LINE",
"168 140 LINE SMOOTH",
"168 116 OFFCURVE",
"215 117 OFFCURVE",
"282 117 CURVE SMOOTH",
"324 117 OFFCURVE",
"356 120 OFFCURVE",
"356 154 CURVE SMOOTH",
"356 190 OFFCURVE",
"326 194 OFFCURVE",
"259 194 CURVE SMOOTH",
"229 194 LINE SMOOTH",
"123 194 OFFCURVE",
"67 219 OFFCURVE",
"67 315 CURVE SMOOTH",
"67 430 OFFCURVE",
"141 451 OFFCURVE",
"231 451 CURVE SMOOTH",
"501 451 LINE"
);
},
{
closed = 1;
nodes = (
"590 501 LINE",
"738 501 LINE",
"738 9 LINE",
"590 9 LINE"
);
},
{
closed = 1;
nodes = (
"-20 607 LINE",
"838 607 LINE",
"838 500 LINE",
"-20 500 LINE"
);
}
);
width = 788;
},
{
associatedMasterId = "632BC717-227E-41E7-B05B-9781150E6210";
layerId = "866420AB-6BE5-4419-AA07-355871AFB20F";
name = "Regular Apr 1 16, 15:40";
paths = (
{
closed = 1;
nodes = (
"355 228 LINE",
"612 228 LINE",
"612 118 LINE",
"355 118 LINE"
);
},
{
closed = 1;
nodes = (
"356 501 LINE",
"474 501 LINE",
"474 341 LINE",
"356 341 LINE"
);
},
{
closed = 1;
nodes = (
"563 501 LINE",
"711 501 LINE",
"711 9 LINE",
"563 9 LINE"
);
},
{
closed = 1;
nodes = (
"-20 607 LINE",
"811 607 LINE",
"811 500 LINE",
"-20 500 LINE"
);
},
{
closed = 1;
nodes = (
"446 341 LINE",
"220 341 LINE SMOOTH",
"197 341 OFFCURVE",
"182 340 OFFCURVE",
"182 312 CURVE SMOOTH",
"182 284 OFFCURVE",
"197 282 OFFCURVE",
"220 282 CURVE SMOOTH",
"272 282 LINE SMOOTH",
"422 282 OFFCURVE",
"464 256 OFFCURVE",
"464 144 CURVE SMOOTH",
"464 42 OFFCURVE",
"422 7 OFFCURVE",
"276 7 CURVE SMOOTH",
"211 7 OFFCURVE",
"183 13 OFFCURVE",
"155 34 CURVE",
"151 31 LINE",
"176 -3 OFFCURVE",
"179 -20 OFFCURVE",
"179 -73 CURVE",
"40 -73 LINE",
"40 148 LINE",
"143 148 LINE",
"143 137 LINE SMOOTH",
"143 118 OFFCURVE",
"190 114 OFFCURVE",
"237 114 CURVE SMOOTH",
"301 114 OFFCURVE",
"331 119 OFFCURVE",
"331 149 CURVE SMOOTH",
"331 179 OFFCURVE",
"311 187 OFFCURVE",
"234 187 CURVE SMOOTH",
"204 187 LINE SMOOTH",
"87 187 OFFCURVE",
"42 216 OFFCURVE",
"42 322 CURVE SMOOTH",
"42 427 OFFCURVE",
"87 448 OFFCURVE",
"206 448 CURVE SMOOTH",
"446 448 LINE"
);
}
);
width = 776;
}
);
leftMetricsKey = dvI;
rightMetricsKey = dvmAA;
unicode = 091D;
},
{
color = 6;
glyphname = dvNYA;
lastChange = "2016-05-19 21:47:13 +0000";
layers = (
{
layerId = "632BC717-227E-41E7-B05B-9781150E6210";
paths = (
{
closed = 1;
nodes = (
"521 501 LINE",
"669 501 LINE",
"669 9 LINE",
"521 9 LINE"
);
},
{
closed = 1;
nodes = (
"-20 607 LINE",
"769 607 LINE",
"769 500 LINE",
"-20 500 LINE"
);
},
{
closed = 1;
nodes = (
"346 299 LINE",
"597 299 LINE",
"597 185 LINE",
"346 185 LINE"
);
},
{
closed = 1;
nodes = (
"40 192 LINE",
"87 178 OFFCURVE",
"140 171 OFFCURVE",
"193 171 CURVE SMOOTH",
"267 171 OFFCURVE",
"280 183 OFFCURVE",
"280 237 CURVE SMOOTH",
"280 298 OFFCURVE",
"250 302 OFFCURVE",
"207 302 CURVE SMOOTH",
"169 302 OFFCURVE",
"139 296 OFFCURVE",
"118 290 CURVE",
"112 291 LINE",
"110 410 LINE",
"140 422 OFFCURVE",
"187 431 OFFCURVE",
"236 431 CURVE SMOOTH",
"370 431 OFFCURVE",
"420 387 OFFCURVE",
"420 236 CURVE SMOOTH",
"420 86 OFFCURVE",
"368 39 OFFCURVE",
"230 39 CURVE SMOOTH",
"151 39 OFFCURVE",
"88 50 OFFCURVE",
"35 67 CURVE",
"35 192 LINE"
);
}
);
width = 729;
}
);
rightMetricsKey = dvmAA;
unicode = 091E;
},
{
color = 6;
glyphname = dvTTA;
lastChange = "2016-05-21 00:42:20 +0000";
layers = (
{
background = {
paths = (
{
closed = 1;
nodes = (
"31 382 OFFCURVE",
"83 432 OFFCURVE",
"296 432 CURVE SMOOTH",
"509 432 OFFCURVE",
"561 382 OFFCURVE",
"561 210 CURVE SMOOTH",
"561 38 OFFCURVE",
"509 0 OFFCURVE",
"296 0 CURVE SMOOTH",
"83 0 OFFCURVE",
"31 38 OFFCURVE",
"31 210 CURVE SMOOTH"
);
},
{
closed = 1;
nodes = (
"167 138 OFFCURVE",
"190 126 OFFCURVE",
"296 126 CURVE SMOOTH",
"402 126 OFFCURVE",
"425 138 OFFCURVE",
"425 210 CURVE SMOOTH",
"425 282 OFFCURVE",
"402 294 OFFCURVE",
"296 294 CURVE SMOOTH",
"190 294 OFFCURVE",
"167 282 OFFCURVE",
"167 210 CURVE SMOOTH"
);
}
);
};
layerId = "632BC717-227E-41E7-B05B-9781150E6210";
paths = (
{
closed = 1;
nodes = (
"282 505 LINE",
"420 505 LINE",
"420 320 LINE",
"282 320 LINE"
);
},
{
closed = 1;
nodes = (
"-25 607 LINE",
"533 607 LINE",
"533 500 LINE",
"-25 500 LINE"
);
},
{
closed = 1;
nodes = (
"460 144 LINE",
"460 23 LINE",
"406 8 OFFCURVE",
"348 0 OFFCURVE",
"262 0 CURVE SMOOTH",
"121 0 OFFCURVE",
"31 48 OFFCURVE",
"31 218 CURVE SMOOTH",
"31 388 OFFCURVE",
"102 436 OFFCURVE",
"228 436 CURVE SMOOTH",
"287 436 OFFCURVE",
"391 434 OFFCURVE",
"412 432 CURVE",
"412 320 LINE",
"276 320 LINE SMOOTH",
"200 320 OFFCURVE",
"175 302 OFFCURVE",
"175 220 CURVE SMOOTH",
"175 137 OFFCURVE",
"205 128 OFFCURVE",
"297 128 CURVE SMOOTH",
"349 128 OFFCURVE",
"414 133 OFFCURVE",
"458 145 CURVE"
);
}
);
width = 493;
},
{
associatedMasterId = "632BC717-227E-41E7-B05B-9781150E6210";
layerId = "94E8ED08-26D0-43FD-8467-BA135CE6676E";
name = "Regular Mar 28 16, 12:27";
paths = (
{
closed = 1;
nodes = (
"287 505 LINE",
"425 505 LINE",
"425 309 LINE",
"287 309 LINE"
);
},
{
closed = 1;
nodes = (
"-20 607 LINE",
"538 607 LINE",
"538 500 LINE",
"-20 500 LINE"
);
},
{
closed = 1;
nodes = (
"463 148 LINE",
"463 26 LINE",
"414 13 OFFCURVE",
"351 0 OFFCURVE",
"281 0 CURVE SMOOTH",
"72 0 OFFCURVE",
"34 37 OFFCURVE",
"34 217 CURVE SMOOTH",
"34 397 OFFCURVE",
"72 435 OFFCURVE",
"281 435 CURVE SMOOTH",
"321 435 OFFCURVE",
"388 434 OFFCURVE",
"417 431 CURVE",
"417 309 LINE",
"281 309 LINE SMOOTH",
"195 309 OFFCURVE",
"182 299 OFFCURVE",
"182 219 CURVE SMOOTH",
"182 139 OFFCURVE",
"195 131 OFFCURVE",
"319 131 CURVE SMOOTH",
"370 131 OFFCURVE",
"418 138 OFFCURVE",
"456 152 CURVE"
);
}
);
width = 478;
visible = 1;
}
);
unicode = 091F;
},
{
color = 5;
glyphname = dvTTHA;
lastChange = "2016-05-21 01:14:59 +0000";
layers = (
{
anchors = (
{
name = abvm.bindu;
position = "{382, 607}";
},
{
name = abvm.e;
position = "{380, 607}";
},
{
name = blwm.u;
position = "{394, -71}";
},
{
name = blwm.virama;
position = "{234, -51}";
}
);
background = {
paths = (
{
closed = 1;
nodes = (
"15 339 OFFCURVE",
"59 387 OFFCURVE",
"234 387 CURVE SMOOTH",
"253 387 OFFCURVE",
"271 386 OFFCURVE",
"287 384 CURVE",
"306 385 LINE SMOOTH",
"486 385 OFFCURVE",
"544 347 OFFCURVE",
"544 174 CURVE SMOOTH",
"544 8 OFFCURVE",
"500 -41 OFFCURVE",
"325 -41 CURVE SMOOTH",
"306 -41 OFFCURVE",
"288 -40 OFFCURVE",
"272 -38 CURVE",
"253 -39 LINE SMOOTH",
"73 -39 OFFCURVE",
"15 -1 OFFCURVE",
"15 173 CURVE SMOOTH"
);
},
{
closed = 1;
nodes = (
"163 134 OFFCURVE",
"172 114 OFFCURVE",
"193 104 CURVE",
"198 105 LINE",
"222 97 OFFCURVE",
"246 94 OFFCURVE",
"285 94 CURVE SMOOTH",
"304 94 OFFCURVE",
"336 97 OFFCURVE",
"366 103 CURVE",
"387 113 OFFCURVE",
"396 134 OFFCURVE",
"396 174 CURVE SMOOTH",
"396 212 OFFCURVE",
"388 232 OFFCURVE",
"366 242 CURVE",
"361 241 LINE",
"336 249 OFFCURVE",
"313 252 OFFCURVE",
"274 252 CURVE SMOOTH",
"254 252 OFFCURVE",
"222 248 OFFCURVE",
"191 242 CURVE",
"171 232 OFFCURVE",
"163 212 OFFCURVE",
"163 173 CURVE SMOOTH"
);
}
);
};
layerId = "632BC717-227E-41E7-B05B-9781150E6210";
paths = (
{
closed = 1;
nodes = (
"239 501 LINE",
"377 501 LINE",
"377 379 LINE",
"239 379 LINE"
);
},
{
closed = 1;
nodes = (
"-30 607 LINE",
"646 607 LINE",
"646 500 LINE",
"-30 500 LINE"
);
},
{
closed = 1;
nodes = (
"35 396 OFFCURVE",
"89 435 OFFCURVE",
"308 435 CURVE SMOOTH",
"527 435 OFFCURVE",
"581 396 OFFCURVE",
"581 219 CURVE SMOOTH",
"581 42 OFFCURVE",
"527 3 OFFCURVE",
"308 3 CURVE SMOOTH",
"89 3 OFFCURVE",
"35 42 OFFCURVE",
"35 219 CURVE SMOOTH"
);
},
{
closed = 1;
nodes = (
"168 139 OFFCURVE",
"193 123 OFFCURVE",
"308 123 CURVE SMOOTH",
"423 123 OFFCURVE",
"448 144 OFFCURVE",
"448 224 CURVE SMOOTH",
"448 304 OFFCURVE",
"423 315 OFFCURVE",
"308 315 CURVE SMOOTH",
"193 315 OFFCURVE",
"168 304 OFFCURVE",
"168 224 CURVE SMOOTH"
);
}
);
width = 616;
}
);
unicode = 0920;
},
{
color = 5;
glyphname = dvDDA;
lastChange = "2016-05-21 01:20:34 +0000";
layers = (
{
anchors = (
{
name = abvm.bindu;
position = "{446, 607}";
},
{
name = abvm.e;
position = "{444, 607}";
},
{
name = blwm.u;
position = "{299, -71}";
},
{
name = blwm.virama;
position = "{199, -51}";
}
);
background = {
paths = (
{
closed = 1;
nodes = (
"450 340 LINE",
"224 340 LINE SMOOTH",
"201 340 OFFCURVE",
"186 336 OFFCURVE",
"186 311 CURVE SMOOTH",
"186 286 OFFCURVE",
"201 282 OFFCURVE",
"224 282 CURVE SMOOTH",
"276 282 LINE SMOOTH",
"428 282 OFFCURVE",
"475 256 OFFCURVE",
"475 143 CURVE SMOOTH",
"475 36 OFFCURVE",
"421 0 OFFCURVE",
"283 0 CURVE SMOOTH",
"227 0 OFFCURVE",
"188 7 OFFCURVE",
"160 19 CURVE",
"157 16 LINE",
"167 -12 OFFCURVE",
"169 -36 OFFCURVE",
"169 -74 CURVE",
"44 -74 LINE",
"44 157 LINE",
"147 157 LINE",
"147 149 LINE SMOOTH",
"147 120 OFFCURVE",
"164 113 OFFCURVE",
"241 113 CURVE SMOOTH",
"320 113 OFFCURVE",
"335 120 OFFCURVE",
"335 149 CURVE SMOOTH",
"335 178 OFFCURVE",
"322 185 OFFCURVE",
"248 185 CURVE SMOOTH",
"208 185 LINE SMOOTH",
"91 185 OFFCURVE",
"46 222 OFFCURVE",
"46 318 CURVE SMOOTH",
"46 413 OFFCURVE",
"98 447 OFFCURVE",
"220 447 CURVE SMOOTH",
"450 447 LINE"
);
}
);
};
layerId = "632BC717-227E-41E7-B05B-9781150E6210";
paths = (
{
closed = 1;
nodes = (
"329 501 LINE",
"447 501 LINE",
"447 347 LINE",
"329 347 LINE"
);
},
{
closed = 1;
nodes = (
"-30 607 LINE",
"538 607 LINE",
"538 500 LINE",
"-30 500 LINE"
);
},
{
closed = 1;
nodes = (
"44 135 LINE",
"102 120 OFFCURVE",
"165 113 OFFCURVE",
"231 113 CURVE SMOOTH",
"318 113 OFFCURVE",
"335 119 OFFCURVE",
"335 149 CURVE SMOOTH",
"335 176 OFFCURVE",
"327 185 OFFCURVE",
"251 185 CURVE SMOOTH",
"210 185 LINE SMOOTH",
"89 185 OFFCURVE",
"46 223 OFFCURVE",
"46 314 CURVE SMOOTH",
"46 412 OFFCURVE",
"98 447 OFFCURVE",
"209 447 CURVE SMOOTH",
"447 447 LINE",
"447 341 LINE",
"227 341 LINE SMOOTH",
"196 341 OFFCURVE",
"187 335 OFFCURVE",
"187 311 CURVE SMOOTH",
"187 289 OFFCURVE",
"196 281 OFFCURVE",
"227 281 CURVE SMOOTH",
"278 281 LINE SMOOTH",
"432 281 OFFCURVE",
"476 251 OFFCURVE",
"476 145 CURVE SMOOTH",
"476 31 OFFCURVE",
"407 -1 OFFCURVE",
"261 -1 CURVE SMOOTH",
"176 -1 OFFCURVE",
"92 8 OFFCURVE",
"39 19 CURVE",
"39 132 LINE"
);
}
);
width = 498;
},
{
associatedMasterId = "632BC717-227E-41E7-B05B-9781150E6210";
layerId = "A8F3687D-878F-47D3-9438-EC48E5E51A4C";
name = "Regular Mar 8 16, 15:19";
paths = (
{
closed = 1;
nodes = (
"358 501 LINE",
"476 501 LINE",
"476 344 LINE",
"358 344 LINE"
);
},
{
closed = 1;
nodes = (
"10 608 LINE",
"578 608 LINE",
"578 501 LINE",
"10 501 LINE"
);
},
{
closed = 1;
nodes = (
"90 127 LINE",
"143 112 OFFCURVE",
"233 101 OFFCURVE",
"280 101 CURVE SMOOTH",
"319 101 OFFCURVE",
"348 103 OFFCURVE",
"348 139 CURVE SMOOTH",
"348 170 OFFCURVE",
"320 176 OFFCURVE",
"259 176 CURVE SMOOTH",
"214 176 LINE SMOOTH",
"127 176 OFFCURVE",
"82 212 OFFCURVE",
"82 309 CURVE SMOOTH",
"82 434 OFFCURVE",
"125 450 OFFCURVE",
"216 450 CURVE SMOOTH",
"476 450 LINE",
"476 343 LINE",
"250 343 LINE SMOOTH",
"231 343 OFFCURVE",
"216 337 OFFCURVE",
"216 309 CURVE SMOOTH",
"216 282 OFFCURVE",
"231 276 OFFCURVE",
"250 276 CURVE SMOOTH",
"312 276 LINE SMOOTH",
"439 276 OFFCURVE",
"488 260 OFFCURVE",
"488 139 CURVE SMOOTH",
"488 23 OFFCURVE",
"434 -5 OFFCURVE",
"306 -5 CURVE SMOOTH",
"232 -5 OFFCURVE",
"146 3 OFFCURVE",
"79 22 CURVE"
);
}
);
width = 538;
}
);
unicode = 0921;
},
{
color = 5;
glyphname = dvDDHA;
lastChange = "2016-05-21 01:23:55 +0000";
layers = (
{
anchors = (
{
name = abvm.bindu;
position = "{471, 607}";
},
{
name = abvm.e;
position = "{469, 607}";
},
{
name = blwm.u;
position = "{394, -71}";
},
{
name = blwm.virama;
position = "{194, -51}";
}
);
layerId = "632BC717-227E-41E7-B05B-9781150E6210";
paths = (
{
closed = 1;
nodes = (
"348 501 LINE",
"476 501 LINE",
"476 323 LINE",
"348 323 LINE"
);
},
{
closed = 1;
nodes = (
"-30 607 LINE",
"587 607 LINE",
"587 500 LINE",
"-30 500 LINE"
);
},
{
closed = 1;
nodes = (
"232 262 LINE",
"274 272 OFFCURVE",
"322 277 OFFCURVE",
"360 277 CURVE SMOOTH",
"480 277 OFFCURVE",
"517 245 OFFCURVE",
"517 142 CURVE",
"517 44 OFFCURVE",
"467 0 OFFCURVE",
"283 0 CURVE SMOOTH",
"84 0 OFFCURVE",
"30 55 OFFCURVE",
"30 221 CURVE SMOOTH",
"30 388 OFFCURVE",
"99 435 OFFCURVE",
"247 435 CURVE SMOOTH",
"277 435 OFFCURVE",
"441 434 OFFCURVE",
"470 431 CURVE",
"470 323 LINE",
"287 323 LINE SMOOTH",
"181 323 OFFCURVE",
"168 304 OFFCURVE",
"168 216 CURVE SMOOTH",
"168 126 OFFCURVE",
"190 109 OFFCURVE",
"280 109 CURVE SMOOTH",
"375 109 OFFCURVE",
"387 114 OFFCURVE",
"387 141 CURVE SMOOTH",
"387 163 OFFCURVE",
"382 173 OFFCURVE",
"326 173 CURVE SMOOTH",
"299 173 OFFCURVE",
"264 169 OFFCURVE",
"235 164 CURVE",
"232 166 LINE"
);
}
);
width = 542;
},
{
associatedMasterId = "632BC717-227E-41E7-B05B-9781150E6210";
layerId = "3F3D56E8-DAD9-40BA-ADF7-38F7FB3D2B93";
name = "Regular Mar 11 16, 01:43";
paths = (
{
closed = 1;
nodes = (
"296 130 LINE",
"171 129 OFFCURVE",
"154 133 OFFCURVE",
"154 221 CURVE SMOOTH",
"154 302 OFFCURVE",
"168 315 OFFCURVE",
"266 315 CURVE SMOOTH",
"475 315 LINE",
"475 439 LINE",
"445 442 OFFCURVE",
"307 443 OFFCURVE",
"266 443 CURVE SMOOTH",
"52 443 OFFCURVE",
"16 405 OFFCURVE",
"16 221 CURVE SMOOTH",
"16 31 OFFCURVE",
"55 -3 OFFCURVE",
"293 0 CURVE"
);
},
{
closed = 1;
nodes = (
"485 315 LINE",
"485 501 LINE",
"347 501 LINE",
"347 315 LINE"
);
},
{
closed = 1;
nodes = (
"578 501 LINE",
"578 608 LINE",
"-30 608 LINE",
"-30 501 LINE"
);
},
{
closed = 1;
nodes = (
"248 165 LINE",
"325 165 LINE",
"361 165 OFFCURVE",
"374 168 OFFCURVE",
"374 151 CURVE SMOOTH",
"374 129 OFFCURVE",
"361 131 OFFCURVE",
"325 130 CURVE",
"257 130 LINE",
"257 0 LINE",
"495 0 OFFCURVE",
"503 25 OFFCURVE",
"503 151 CURVE SMOOTH",
"503 253 OFFCURVE",
"475 275 OFFCURVE",
"341 275 CURVE",
"248 275 LINE"
);
}
);
width = 548;
}
);
unicode = 0922;
},
{
color = 6;
glyphname = dvNNA;
lastChange = "2016-05-19 21:47:13 +0000";
layers = (
{
layerId = "632BC717-227E-41E7-B05B-9781150E6210";
paths = (
{
closed = 1;
nodes = (
"562 501 LINE",
"711 501 LINE",
"711 9 LINE",
"562 9 LINE"
);
},
{
closed = 1;
nodes = (
"-60 607 LINE",
"811 607 LINE",
"811 500 LINE",
"-60 500 LINE"
);
},
{
closed = 1;
nodes = (
"40 518 LINE",
"184 518 LINE",
"184 306 LINE SMOOTH",
"184 236 OFFCURVE",
"198 217 OFFCURVE",
"246 217 CURVE SMOOTH",
"294 217 OFFCURVE",
"308 236 OFFCURVE",
"308 306 CURVE SMOOTH",
"308 518 LINE",
"452 518 LINE",
"452 331 LINE SMOOTH",
"452 154 OFFCURVE",
"416 95 OFFCURVE",
"246 95 CURVE SMOOTH",
"76 95 OFFCURVE",
"40 154 OFFCURVE",
"40 331 CURVE SMOOTH"
);
}
);
width = 771;
}
);
rightMetricsKey = dvmAA;
unicode = 0923;
},
{
color = 6;
glyphname = dvTA;
lastChange = "2016-05-23 01:47:33 +0000";
layers = (
{
layerId = "632BC717-227E-41E7-B05B-9781150E6210";
paths = (
{
closed = 1;
nodes = (
"-15 607 LINE",
"628 607 LINE",
"628 500 LINE",
"-15 500 LINE"
);
},
{
closed = 1;
nodes = (
"380 501 LINE",
"528 501 LINE",
"528 9 LINE",
"380 9 LINE"
);
},
{
closed = 1;
nodes = (
"289 412 OFFCURVE",
"343 404 OFFCURVE",
"378 389 CURVE",
"384 392 LINE",
"386 268 LINE",
"380 267 LINE",
"354 279 OFFCURVE",
"312 287 OFFCURVE",
"275 287 CURVE SMOOTH",
"215 287 OFFCURVE",
"187 269 OFFCURVE",
"187 221 CURVE SMOOTH",
"187 166 OFFCURVE",
"209 86 OFFCURVE",
"242 9 CURVE",
"242 6 LINE",
"98 6 LINE",
"61 96 OFFCURVE",
"39 177 OFFCURVE",
"39 264 CURVE SMOOTH",
"39 378 OFFCURVE",
"111 412 OFFCURVE",
"237 412 CURVE SMOOTH"
);
}
);
width = 588;
},
{
associatedMasterId = "632BC717-227E-41E7-B05B-9781150E6210";
layerId = "7DF0F7CC-EF89-434C-BBF4-34B12D28F972";
name = "Regular Mar 30 16, 01:43";
paths = (
{
closed = 1;
nodes = (
"-30 607 LINE",
"613 607 LINE",
"613 500 LINE",
"-30 500 LINE"
);
},
{
closed = 1;
nodes = (
"365 501 LINE",
"513 501 LINE",
"513 9 LINE",
"365 9 LINE"
);
},
{
closed = 1;
nodes = (
"276 436 OFFCURVE",
"340 429 OFFCURVE",
"371 419 CURVE",
"371 302 LINE",
"365 301 LINE",
"339 307 OFFCURVE",
"302 311 OFFCURVE",
"265 311 CURVE SMOOTH",
"214 311 OFFCURVE",
"195 306 OFFCURVE",
"195 260 CURVE SMOOTH",
"195 202 OFFCURVE",
"219 115 OFFCURVE",
"253 13 CURVE",
"253 6 LINE",
"106 9 LINE",
"74 103 OFFCURVE",
"48 204 OFFCURVE",
"47 292 CURVE SMOOTH",
"47 413 OFFCURVE",
"99 436 OFFCURVE",
"237 436 CURVE SMOOTH"
);
}
);
width = 563;
},
{
associatedMasterId = "632BC717-227E-41E7-B05B-9781150E6210";
layerId = "10974C3C-4DA0-4886-98B0-93492CD75C33";
name = "Regular Mar 30 16, 13:07";
paths = (
{
closed = 1;
nodes = (
"-30 607 LINE",
"613 607 LINE",
"613 500 LINE",
"-30 500 LINE"
);
},
{
closed = 1;
nodes = (
"365 501 LINE",
"513 501 LINE",
"513 9 LINE",
"365 9 LINE"
);
},
{
closed = 1;
nodes = (
"276 436 OFFCURVE",
"340 429 OFFCURVE",
"371 419 CURVE",
"371 302 LINE",
"365 301 LINE",
"339 307 OFFCURVE",
"312 314 OFFCURVE",
"275 311 CURVE SMOOTH",
"224 307 OFFCURVE",
"195 286 OFFCURVE",
"195 220 CURVE SMOOTH",
"195 152 OFFCURVE",
"207 97 OFFCURVE",
"243 5 CURVE",
"243 0 LINE",
"96 0 LINE",
"64 96 OFFCURVE",
"48 184 OFFCURVE",
"47 272 CURVE SMOOTH",
"47 393 OFFCURVE",
"99 436 OFFCURVE",
"237 436 CURVE SMOOTH"
);
}
);
width = 563;
},
{
associatedMasterId = "632BC717-227E-41E7-B05B-9781150E6210";
layerId = "8262FBA2-E95E-400A-AB66-94EDC8A00E47";
name = "Regular Apr 1 16, 13:54";
paths = (
{
closed = 1;
nodes = (
"-40 607 LINE",
"603 607 LINE",
"603 500 LINE",
"-40 500 LINE"
);
},
{
closed = 1;
nodes = (
"355 501 LINE",
"503 501 LINE",
"503 9 LINE",
"355 9 LINE"
);
},
{
closed = 1;
nodes = (
"265 426 OFFCURVE",
"330 415 OFFCURVE",
"361 405 CURVE",
"361 292 LINE",
"355 291 LINE",
"329 296 OFFCURVE",
"292 301 OFFCURVE",
"255 301 CURVE SMOOTH",
"205 301 OFFCURVE",
"185 292 OFFCURVE",
"185 238 CURVE SMOOTH",
"185 185 OFFCURVE",
"208 100 OFFCURVE",
"240 13 CURVE",
"240 9 LINE",
"96 9 LINE",
"64 103 OFFCURVE",
"37 204 OFFCURVE",
"37 282 CURVE SMOOTH",
"37 403 OFFCURVE",
"94 426 OFFCURVE",
"217 426 CURVE SMOOTH"
);
}
);
width = 568;
}
);
rightMetricsKey = dvmAA;
unicode = 0924;
},
{
color = 6;
glyphname = dvTHA;
lastChange = "2016-05-19 21:47:13 +0000";
layers = (
{
layerId = "632BC717-227E-41E7-B05B-9781150E6210";
paths = (
{
closed = 1;
nodes = (
"110 70 OFFCURVE",
"30 151 OFFCURVE",
"30 321 CURVE SMOOTH",
"30 366 LINE",
"145 366 LINE",
"237 366 OFFCURVE",
"273 385 OFFCURVE",
"273 444 CURVE SMOOTH",
"273 484 OFFCURVE",
"259 500 OFFCURVE",
"225 500 CURVE SMOOTH",
"190 500 OFFCURVE",
"178 481 OFFCURVE",
"178 455 CURVE SMOOTH",
"178 448 OFFCURVE",
"179 440 OFFCURVE",
"181 434 CURVE",
"181 432 LINE",
"58 432 LINE",
"56 443 OFFCURVE",
"55 454 OFFCURVE",
"55 465 CURVE SMOOTH",
"55 572 OFFCURVE",
"118 616 OFFCURVE",
"232 616 CURVE SMOOTH",
"346 616 OFFCURVE",
"406 559 OFFCURVE",
"406 443 CURVE SMOOTH",
"406 322 OFFCURVE",
"340 263 OFFCURVE",
"211 263 CURVE SMOOTH",
"199 263 OFFCURVE",
"185 264 OFFCURVE",
"172 265 CURVE",
"175 217 OFFCURVE",
"230 196 OFFCURVE",
"324 196 CURVE SMOOTH",
"403 196 OFFCURVE",
"480 223 OFFCURVE",
"531 264 CURVE",
"550 140 LINE",
"504 104 OFFCURVE",
"424 70 OFFCURVE",
"307 70 CURVE SMOOTH"
);
},
{
closed = 1;
nodes = (
"476 501 LINE",
"624 501 LINE",
"624 9 LINE",
"476 9 LINE"
);
},
{
closed = 1;
nodes = (
"476 607 LINE",
"724 607 LINE",
"724 500 LINE",
"476 500 LINE"
);
}
);
width = 684;
},
{
associatedMasterId = "632BC717-227E-41E7-B05B-9781150E6210";
layerId = "F6506FF2-F3D9-4F92-BCD6-78CD1DD38F81";
name = "Regular Mar 28 16, 13:05";
paths = (
{
closed = 1;
nodes = (
"614 9 LINE",
"614 501 LINE",
"466 501 LINE",
"466 9 LINE"
);
},
{
closed = 1;
nodes = (
"714 500 LINE",
"714 607 LINE",
"466 607 LINE",
"466 500 LINE"
);
},
{
closed = 1;
nodes = (
"20 139 OFFCURVE",
"74 75 OFFCURVE",
"299 75 CURVE SMOOTH",
"396 75 OFFCURVE",
"463 94 OFFCURVE",
"520 135 CURVE",
"520 266 LINE",
"463 226 OFFCURVE",
"406 202 OFFCURVE",
"299 202 CURVE SMOOTH",
"195 202 OFFCURVE",
"162 225 OFFCURVE",
"158 266 CURVE",
"311 254 OFFCURVE",
"396 312 OFFCURVE",
"396 444 CURVE SMOOTH",
"396 560 OFFCURVE",
"310 617 OFFCURVE",
"206 617 CURVE SMOOTH",
"100 617 OFFCURVE",
"45 573 OFFCURVE",
"45 466 CURVE SMOOTH",
"45 455 OFFCURVE",
"46 445 OFFCURVE",
"48 434 CURVE",
"172 434 LINE",
"170 445 OFFCURVE",
"168 458 OFFCURVE",
"169 469 CURVE SMOOTH",
"171 488 OFFCURVE",
"187 501 OFFCURVE",
"206 501 CURVE SMOOTH",
"236 501 OFFCURVE",
"263 484 OFFCURVE",
"263 444 CURVE SMOOTH",
"263 395 OFFCURVE",
"237 367 OFFCURVE",
"95 367 CURVE",
"20 367 LINE",
"20 302 LINE SMOOTH"
);
}
);
width = 664;
},
{
associatedMasterId = "632BC717-227E-41E7-B05B-9781150E6210";
layerId = "8310413E-A1D2-4AF2-BCC0-CC703BEBFD57";
name = "Regular Mar 28 16, 14:37";
paths = (
{
closed = 1;
nodes = (
"614 9 LINE",
"614 501 LINE",
"466 501 LINE",
"466 9 LINE"
);
},
{
closed = 1;
nodes = (
"714 500 LINE",
"714 607 LINE",
"466 607 LINE",
"466 500 LINE"
);
},
{
closed = 1;
nodes = (
"172 435 LINE",
"170 440 OFFCURVE",
"168 448 OFFCURVE",
"168 456 CURVE SMOOTH",
"168 482 OFFCURVE",
"180 501 OFFCURVE",
"215 501 CURVE SMOOTH",
"249 501 OFFCURVE",
"263 485 OFFCURVE",
"263 445 CURVE SMOOTH",
"263 396 OFFCURVE",
"237 367 OFFCURVE",
"95 367 CURVE",
"20 367 LINE",
"20 302 LINE SMOOTH",
"20 134 OFFCURVE",
"110 75 OFFCURVE",
"307 75 CURVE SMOOTH",
"414 75 OFFCURVE",
"494 103 OFFCURVE",
"540 143 CURVE",
"521 262 LINE",
"472 217 OFFCURVE",
"410 202 OFFCURVE",
"321 202 CURVE SMOOTH",
"227 202 OFFCURVE",
"166 215 OFFCURVE",
"158 266 CURVE",
"171 265 OFFCURVE",
"184 264 OFFCURVE",
"196 264 CURVE SMOOTH",
"325 264 OFFCURVE",
"396 318 OFFCURVE",
"396 444 CURVE SMOOTH",
"396 560 OFFCURVE",
"336 617 OFFCURVE",
"222 617 CURVE SMOOTH",
"108 617 OFFCURVE",
"45 573 OFFCURVE",
"45 466 CURVE SMOOTH",
"45 455 OFFCURVE",
"46 445 OFFCURVE",
"48 434 CURVE",
"172 434 LINE"
);
}
);
width = 664;
}
);
rightMetricsKey = dvmAA;
unicode = 0925;
},
{
color = 6;
glyphname = dvDA;
lastChange = "2016-05-21 00:42:20 +0000";
layers = (
{
layerId = "632BC717-227E-41E7-B05B-9781150E6210";
paths = (
{
closed = 1;
nodes = (
"339 501 LINE",
"471 501 LINE",
"471 321 LINE",
"339 321 LINE"
);
},
{
closed = 1;
nodes = (
"-60 607 LINE",
"571 607 LINE",
"571 500 LINE",
"-60 500 LINE"
);
},
{
closed = 1;
nodes = (
"26 388 OFFCURVE",
"87 435 OFFCURVE",
"236 435 CURVE SMOOTH",
"313 435 OFFCURVE",
"421 434 OFFCURVE",
"451 431 CURVE",
"451 321 LINE",
"253 321 LINE SMOOTH",
"181 321 OFFCURVE",
"162 306 OFFCURVE",
"162 246 CURVE SMOOTH",
"162 186 OFFCURVE",
"182 177 OFFCURVE",
"264 177 CURVE SMOOTH",
"339 177 OFFCURVE",
"360 189 OFFCURVE",
"360 216 CURVE SMOOTH",
"360 250 LINE",
"476 250 LINE",
"476 9 LINE",
"332 9 LINE",
"332 49 OFFCURVE",
"335 68 OFFCURVE",
"342 87 CURVE",
"339 89 LINE",
"316 75 OFFCURVE",
"265 66 OFFCURVE",
"216 66 CURVE SMOOTH",
"93 66 OFFCURVE",
"26 116 OFFCURVE",
"26 253 CURVE SMOOTH"
);
}
);
width = 531;
},
{
associatedMasterId = "632BC717-227E-41E7-B05B-9781150E6210";
layerId = "3E8A0595-D48D-4557-B1F5-85ED28EBC651";
name = "Regular Mar 28 16, 12:54";
paths = (
{
closed = 1;
nodes = (
"333 501 LINE",
"481 501 LINE",
"481 302 LINE",
"333 302 LINE"
);
},
{
closed = 1;
nodes = (
"-50 607 LINE",
"585 607 LINE",
"585 500 LINE",
"-50 500 LINE"
);
},
{
closed = 1;
nodes = (
"36 386 OFFCURVE",
"81 424 OFFCURVE",
"286 424 CURVE SMOOTH",
"363 424 OFFCURVE",
"431 423 OFFCURVE",
"461 420 CURVE",
"461 302 LINE",
"286 302 LINE SMOOTH",
"198 302 OFFCURVE",
"178 286 OFFCURVE",
"178 218 CURVE SMOOTH",
"178 150 OFFCURVE",
"187 138 OFFCURVE",
"286 138 CURVE SMOOTH",
"349 138 OFFCURVE",
"370 149 OFFCURVE",
"370 170 CURVE SMOOTH",
"370 214 LINE",
"486 214 LINE",
"486 -74 LINE",
"356 -74 LINE",
"356 -25 OFFCURVE",
"358 5 OFFCURVE",
"371 41 CURVE",
"368 43 LINE",
"346 24 OFFCURVE",
"317 16 OFFCURVE",
"286 16 CURVE SMOOTH",
"81 16 OFFCURVE",
"36 57 OFFCURVE",
"36 218 CURVE SMOOTH"
);
}
);
width = 525;
visible = 1;
}
);
unicode = 0926;
},
{
color = 6;
glyphname = dvDHA;
lastChange = "2016-05-19 21:47:13 +0000";
layers = (
{
layerId = "632BC717-227E-41E7-B05B-9781150E6210";
paths = (
{
closed = 1;
nodes = (
"414 501 LINE",
"563 501 LINE",
"563 9 LINE",
"414 9 LINE"
);
},
{
closed = 1;
nodes = (
"414 607 LINE",
"663 607 LINE",
"663 500 LINE",
"414 500 LINE"
);
},
{
closed = 1;
nodes = (
"-65 607 LINE",
"309 607 LINE",
"309 500 LINE",
"-65 500 LINE"
);
},
{
closed = 1;
nodes = (
"39 465 OFFCURVE",
"50 484 OFFCURVE",
"69 497 CURVE",
"69 501 LINE",
"260 606 LINE",
"260 500 LINE",
"197 500 OFFCURVE",
"185 483 OFFCURVE",
"185 447 CURVE SMOOTH",
"185 411 OFFCURVE",
"207 395 OFFCURVE",
"290 395 CURVE SMOOTH",
"309 395 LINE",
"309 280 LINE",
"290 280 LINE SMOOTH",
"215 280 OFFCURVE",
"193 268 OFFCURVE",
"193 228 CURVE SMOOTH",
"193 190 OFFCURVE",
"215 177 OFFCURVE",
"290 177 CURVE SMOOTH",
"322 177 OFFCURVE",
"399 189 OFFCURVE",
"420 207 CURVE",
"437 98 LINE",
"414 83 LINE",
"411 85 LINE",
"368 66 OFFCURVE",
"312 54 OFFCURVE",
"249 54 CURVE SMOOTH",
"108 54 OFFCURVE",
"48 105 OFFCURVE",
"48 216 CURVE SMOOTH",
"48 281 OFFCURVE",
"89 330 OFFCURVE",
"163 334 CURVE",
"163 338 LINE",
"85 341 OFFCURVE",
"39 378 OFFCURVE",
"39 436 CURVE SMOOTH"
);
}
);
width = 623;
},
{
associatedMasterId = "632BC717-227E-41E7-B05B-9781150E6210";
layerId = "FDA2902F-7874-4F1C-B31C-9DCC3F0780A9";
name = "Regular Apr 21 16, 16:52";
paths = (
{
closed = 1;
nodes = (
"414 501 LINE",
"563 501 LINE",
"563 9 LINE",
"414 9 LINE"
);
},
{
closed = 1;
nodes = (
"414 607 LINE",
"663 607 LINE",
"663 500 LINE",
"414 500 LINE"
);
},
{
closed = 1;
nodes = (
"27 379 OFFCURVE",
"27 468 CURVE SMOOTH",
"27 566 OFFCURVE",
"92 613 OFFCURVE",
"194 613 CURVE SMOOTH",
"298 613 OFFCURVE",
"361 572 OFFCURVE",
"361 465 CURVE SMOOTH",
"361 454 OFFCURVE",
"360 443 OFFCURVE",
"358 432 CURVE",
"245 432 LINE",
"245 434 LINE",
"247 440 OFFCURVE",
"248 448 OFFCURVE",
"248 455 CURVE SMOOTH",
"248 477 OFFCURVE",
"239 499 OFFCURVE",
"209 499 CURVE SMOOTH",
"176 499 OFFCURVE",
"157 481 OFFCURVE",
"157 449 CURVE SMOOTH",
"157 407 OFFCURVE",
"180 385 OFFCURVE",
"270 385 CURVE SMOOTH",
"299 385 LINE",
"299 270 LINE",
"280 270 LINE SMOOTH",
"205 270 OFFCURVE",
"183 258 OFFCURVE",
"183 228 CURVE SMOOTH",
"183 190 OFFCURVE",
"205 180 OFFCURVE",
"280 180 CURVE SMOOTH",
"322 180 OFFCURVE",
"390 192 OFFCURVE",
"420 210 CURVE",
"437 98 LINE",
"414 83 LINE",
"411 85 LINE",
"368 66 OFFCURVE",
"302 54 OFFCURVE",
"239 54 CURVE SMOOTH",
"98 54 OFFCURVE",
"38 105 OFFCURVE",
"38 216 CURVE SMOOTH",
"38 281 OFFCURVE",
"73 320 OFFCURVE",
"157 324 CURVE",
"157 328 LINE",
"73 331 OFFCURVE"
);
}
);
width = 628;
}
);
rightMetricsKey = dvmAA;
unicode = 0927;
},
{
color = 6;
glyphname = dvNA;
lastChange = "2016-05-19 21:47:13 +0000";
layers = (
{
anchors = (
{
name = blwm;
position = "{459, 0}";
}
);
layerId = "632BC717-227E-41E7-B05B-9781150E6210";
paths = (
{
closed = 1;
nodes = (
"377 501 LINE",
"526 501 LINE",
"526 9 LINE",
"377 9 LINE"
);
},
{
closed = 1;
nodes = (
"-60 607 LINE",
"626 607 LINE",
"626 500 LINE",
"-60 500 LINE"
);
},
{
closed = 1;
nodes = (
"137 340 LINE",
"495 341 LINE",
"495 229 LINE",
"137 228 LINE"
);
},
{
closed = 1;
nodes = (
"225 340 LINE",
"225 251 LINE SMOOTH",
"225 164 OFFCURVE",
"205 154 OFFCURVE",
"122 154 CURVE SMOOTH",
"42 154 OFFCURVE",
"22 171 OFFCURVE",
"22 247 CURVE SMOOTH",
"22 329 OFFCURVE",
"43 340 OFFCURVE",
"125 340 CURVE"
);
}
);
width = 586;
},
{
associatedMasterId = "632BC717-227E-41E7-B05B-9781150E6210";
layerId = "09DA4D1F-2510-45FD-A2F1-4EB2F245C563";
name = "Regular Mar 31 16, 15:04";
paths = (
{
closed = 1;
nodes = (
"394 501 LINE",
"543 501 LINE",
"543 9 LINE",
"394 9 LINE"
);
},
{
closed = 1;
nodes = (
"-50 607 LINE",
"643 607 LINE",
"643 500 LINE",
"-50 500 LINE"
);
},
{
closed = 1;
nodes = (
"170 358 LINE",
"473 359 LINE",
"473 240 LINE",
"170 239 LINE"
);
},
{
closed = 1;
nodes = (
"238 358 LINE",
"238 259 LINE SMOOTH",
"238 171 OFFCURVE",
"222 158 OFFCURVE",
"128 157 CURVE SMOOTH",
"41 156 OFFCURVE",
"18 175 OFFCURVE",
"18 259 CURVE SMOOTH",
"18 341 OFFCURVE",
"41 358 OFFCURVE",
"100 358 CURVE"
);
}
);
width = 608;
},
{
anchors = (
{
name = blwm;
position = "{449, 0}";
}
);
associatedMasterId = "632BC717-227E-41E7-B05B-9781150E6210";
layerId = "6B062AB8-19EA-4AFB-A163-84CBC381C9C1";
name = "Regular Apr 21 16, 15:55";
paths = (
{
closed = 1;
nodes = (
"374 501 LINE",
"522 501 LINE",
"522 9 LINE",
"374 9 LINE"
);
},
{
closed = 1;
nodes = (
"-70 607 LINE",
"622 607 LINE",
"622 500 LINE",
"-70 500 LINE"
);
},
{
closed = 1;
nodes = (
"3 342 OFFCURVE",
"47 391 OFFCURVE",
"199 391 CURVE",
"401 392 LINE",
"402 262 LINE",
"199 262 LINE",
"160 262 OFFCURVE",
"149 254 OFFCURVE",
"149 234 CURVE SMOOTH",
"149 214 OFFCURVE",
"166 208 OFFCURVE",
"189 208 CURVE SMOOTH",
"196 208 OFFCURVE",
"203 209 OFFCURVE",
"209 211 CURVE",
"210 211 LINE",
"210 98 LINE",
"200 97 OFFCURVE",
"191 96 OFFCURVE",
"180 96 CURVE SMOOTH",
"53 96 OFFCURVE",
"3 141 OFFCURVE",
"3 244 CURVE SMOOTH"
);
}
);
width = 587;
},
{
anchors = (
{
name = blwm;
position = "{549, 0}";
}
);
associatedMasterId = "632BC717-227E-41E7-B05B-9781150E6210";
layerId = "A14D119A-F729-4C5A-8B3C-AE6255FE1123";
name = "Regular Apr 21 16, 17:45";
paths = (
{
closed = 1;
nodes = (
"622 9 LINE",
"622 501 LINE",
"474 501 LINE",
"474 9 LINE"
);
},
{
closed = 1;
nodes = (
"722 500 LINE",
"722 607 LINE",
"-70 607 LINE",
"-70 500 LINE"
);
},
{
closed = 1;
nodes = (
"-1 76 OFFCURVE",
"28 57 OFFCURVE",
"197 57 CURVE SMOOTH",
"355 57 OFFCURVE",
"384 76 OFFCURVE",
"384 235 CURVE SMOOTH",
"384 297 LINE",
"517 297 LINE",
"517 412 LINE",
"217 412 LINE SMOOTH",
"28 412 OFFCURVE",
"-1 401 OFFCURVE",
"-1 235 CURVE SMOOTH"
);
},
{
closed = 1;
nodes = (
"141 290 OFFCURVE",
"136 297 OFFCURVE",
"207 297 CURVE SMOOTH",
"242 297 LINE",
"242 235 LINE SMOOTH",
"242 182 OFFCURVE",
"227 175 OFFCURVE",
"187 175 CURVE SMOOTH",
"137 175 OFFCURVE",
"141 182 OFFCURVE",
"141 235 CURVE SMOOTH"
);
}
);
width = 687;
},
{
anchors = (
{
name = blwm;
position = "{449, 0}";
}
);
associatedMasterId = "632BC717-227E-41E7-B05B-9781150E6210";
layerId = "58A82FC1-1FB3-4151-942D-5FE24C8F48D7";
name = "Regular Apr 22 16, 11:46";
paths = (
{
closed = 1;
nodes = (
"374 501 LINE",
"522 501 LINE",
"522 9 LINE",
"374 9 LINE"
);
},
{
closed = 1;
nodes = (
"402 232 LINE",
"239 232 LINE SMOOTH",
"178 232 OFFCURVE",
"164 221 OFFCURVE",
"164 186 CURVE SMOOTH",
"164 173 OFFCURVE",
"166 161 OFFCURVE",
"170 150 CURVE",
"170 148 LINE",
"42 148 LINE",
"27 177 OFFCURVE",
"20 209 OFFCURVE",
"20 243 CURVE SMOOTH",
"20 316 OFFCURVE",
"66 362 OFFCURVE",
"193 362 CURVE SMOOTH",
"401 362 LINE"
);
},
{
closed = 1;
nodes = (
"-70 607 LINE",
"622 607 LINE",
"622 500 LINE",
"-70 500 LINE"
);
}
);
width = 587;
},
{
anchors = (
{
name = blwm;
position = "{459, 0}";
}
);
associatedMasterId = "632BC717-227E-41E7-B05B-9781150E6210";
layerId = "6A6BAA19-B9AC-4696-9A3E-274F6E0A8047";
name = "Regular Apr 25 16, 23:43";
paths = (
{
closed = 1;
nodes = (
"384 501 LINE",
"532 501 LINE",
"532 9 LINE",
"384 9 LINE"
);
},
{
closed = 1;
nodes = (
"-60 607 LINE",
"632 607 LINE",
"632 500 LINE",
"-60 500 LINE"
);
},
{
closed = 1;
nodes = (
"13 342 OFFCURVE",
"57 391 OFFCURVE",
"209 391 CURVE",
"411 392 LINE",
"412 262 LINE",
"209 262 LINE",
"170 262 OFFCURVE",
"159 254 OFFCURVE",
"159 234 CURVE SMOOTH",
"159 214 OFFCURVE",
"176 208 OFFCURVE",
"199 208 CURVE SMOOTH",
"206 208 OFFCURVE",
"213 209 OFFCURVE",
"219 211 CURVE",
"220 211 LINE",
"220 98 LINE",
"210 97 OFFCURVE",
"201 96 OFFCURVE",
"190 96 CURVE SMOOTH",
"63 96 OFFCURVE",
"13 141 OFFCURVE",
"13 244 CURVE SMOOTH"
);
}
);
width = 597;
}
);
rightMetricsKey = dvmAA;
unicode = 0928;
},
{
color = 6;
glyphname = dvPA;
lastChange = "2016-05-19 21:47:13 +0000";
layers = (
{
layerId = "632BC717-227E-41E7-B05B-9781150E6210";
paths = (
{
closed = 1;
nodes = (
"100 99 OFFCURVE",
"50 154 OFFCURVE",
"50 314 CURVE SMOOTH",
"50 513 LINE",
"198 514 LINE",
"198 305 LINE SMOOTH",
"198 242 OFFCURVE",
"221 225 OFFCURVE",
"286 225 CURVE SMOOTH",
"327 225 OFFCURVE",
"366 236 OFFCURVE",
"390 251 CURVE",
"394 129 LINE",
"387 125 OFFCURVE",
"375 118 OFFCURVE",
"367 115 CURVE",
"363 117 LINE",
"330 105 OFFCURVE",
"291 99 OFFCURVE",
"246 99 CURVE SMOOTH"
);
},
{
closed = 1;
nodes = (
"366 501 LINE",
"514 501 LINE",
"514 9 LINE",
"366 9 LINE"
);
},
{
closed = 1;
nodes = (
"-50 607 LINE",
"615 607 LINE",
"615 500 LINE",
"-50 500 LINE"
);
}
);
width = 575;
},
{
associatedMasterId = "632BC717-227E-41E7-B05B-9781150E6210";
layerId = "5431B114-7E90-4D78-B434-6D8DA8A02F45";
name = "Regular Mar 28 16, 12:42";
paths = (
{
closed = 1;
nodes = (
"188 514 LINE",
"188 295 LINE SMOOTH",
"188 244 OFFCURVE",
"207 224 OFFCURVE",
"281 224 CURVE SMOOTH",
"317 224 OFFCURVE",
"345 233 OFFCURVE",
"364 248 CURVE",
"380 122 LINE",
"350 108 OFFCURVE",
"299 98 OFFCURVE",
"248 98 CURVE SMOOTH",
"94 98 OFFCURVE",
"40 163 OFFCURVE",
"40 317 CURVE SMOOTH",
"40 513 LINE"
);
},
{
closed = 1;
nodes = (
"356 501 LINE",
"505 501 LINE",
"505 9 LINE",
"356 9 LINE"
);
},
{
closed = 1;
nodes = (
"-50 607 LINE",
"605 607 LINE",
"605 500 LINE",
"-50 500 LINE"
);
}
);
width = 555;
}
);
rightMetricsKey = dvmAA;
unicode = 092A;
},
{
color = 5;
glyphname = dvPHA;
lastChange = "2016-05-26 16:22:43 +0000";
layers = (
{
anchors = (
{
name = abvm.bindu;
position = "{513, 607}";
},
{
name = abvm.e;
position = "{514, 607}";
},
{
name = blwm.u;
position = "{418, -71}";
},
{
name = blwm.virama;
position = "{366, -51}";
}
);
layerId = "632BC717-227E-41E7-B05B-9781150E6210";
paths = (
{
closed = 1;
nodes = (
"198 505 LINE",
"198 297 LINE SMOOTH",
"198 247 OFFCURVE",
"217 228 OFFCURVE",
"288 228 CURVE SMOOTH",
"324 228 OFFCURVE",
"356 235 OFFCURVE",
"377 248 CURVE",
"388 127 LINE",
"380 122 OFFCURVE",
"373 125 OFFCURVE",
"361 122 CURVE",
"359 123 LINE",
"333 111 OFFCURVE",
"295 103 OFFCURVE",
"258 103 CURVE SMOOTH",
"97 103 OFFCURVE",
"50 164 OFFCURVE",
"50 315 CURVE SMOOTH",
"50 505 LINE"
);
},
{
closed = 1;
nodes = (
"361 501 LINE",
"510 501 LINE",
"510 9 LINE",
"361 9 LINE"
);
},
{
closed = 1;
nodes = (
"-50 607 LINE",
"941 607 LINE",
"941 500 LINE",
"-50 500 LINE"
);
},
{
closed = 1;
nodes = (
"656 60 OFFCURVE",
"605 66 OFFCURVE",
"568 77 CURVE",
"570 191 LINE",
"574 192 LINE",
"597 186 OFFCURVE",
"624 181 OFFCURVE",
"660 181 CURVE SMOOTH",
"722 181 OFFCURVE",
"736 198 OFFCURVE",
"736 248 CURVE SMOOTH",
"736 298 OFFCURVE",
"722 315 OFFCURVE",
"633 315 CURVE SMOOTH",
"579 315 OFFCURVE",
"535 306 OFFCURVE",
"498 286 CURVE",
"510 409 LINE",
"512 409 LINE",
"542 424 OFFCURVE",
"598 434 OFFCURVE",
"655 434 CURVE",
"820 434 OFFCURVE",
"871 388 OFFCURVE",
"871 246 CURVE SMOOTH",
"871 106 OFFCURVE",
"825 60 OFFCURVE",
"703 60 CURVE SMOOTH"
);
}
);
width = 916;
},
{
associatedMasterId = "632BC717-227E-41E7-B05B-9781150E6210";
layerId = "430B09B2-653E-4F08-B55B-B915C0B5680F";
name = "Regular Mar 31 16, 12:25";
paths = (
{
closed = 1;
nodes = (
"198 505 LINE",
"198 297 LINE SMOOTH",
"198 247 OFFCURVE",
"217 228 OFFCURVE",
"288 228 CURVE SMOOTH",
"324 228 OFFCURVE",
"356 235 OFFCURVE",
"377 248 CURVE",
"388 127 LINE",
"358 112 OFFCURVE",
"309 103 OFFCURVE",
"258 103 CURVE SMOOTH",
"97 103 OFFCURVE",
"50 164 OFFCURVE",
"50 315 CURVE SMOOTH",
"50 505 LINE"
);
},
{
closed = 1;
nodes = (
"361 501 LINE",
"510 501 LINE",
"510 9 LINE",
"361 9 LINE"
);
},
{
closed = 1;
nodes = (
"-50 607 LINE",
"930 607 LINE",
"930 500 LINE",
"-50 500 LINE"
);
},
{
closed = 1;
nodes = (
"634 66 OFFCURVE",
"594 70 OFFCURVE",
"555 78 CURVE",
"555 193 LINE",
"559 194 LINE",
"581 188 OFFCURVE",
"607 183 OFFCURVE",
"642 183 CURVE SMOOTH",
"702 183 OFFCURVE",
"715 196 OFFCURVE",
"715 246 CURVE SMOOTH",
"715 294 OFFCURVE",
"702 308 OFFCURVE",
"621 308 CURVE SMOOTH",
"572 308 OFFCURVE",
"521 298 OFFCURVE",
"485 280 CURVE",
"472 395 LINE",
"513 419 OFFCURVE",
"576 433 OFFCURVE",
"642 433 CURVE SMOOTH",
"809 433 OFFCURVE",
"861 387 OFFCURVE",
"861 246 CURVE SMOOTH",
"861 113 OFFCURVE",
"804 66 OFFCURVE",
"685 66 CURVE SMOOTH"
);
}
);
width = 880;
}
);
leftMetricsKey = dvPA;
rightMetricsKey = dvKA;
unicode = 092B;
},
{
color = 6;
glyphname = dvBA;
lastChange = "2016-05-19 21:47:13 +0000";
layers = (
{
background = {
paths = (
{
closed = 1;
nodes = (
"431 178 LINE",
"409 193 LINE",
"406 195 LINE",
"185 350 LINE",
"146 297 LINE",
"169 281 LINE",
"175 277 LINE",
"391 127 LINE"
);
}
);
};
layerId = "632BC717-227E-41E7-B05B-9781150E6210";
paths = (
{
closed = 1;
nodes = (
"-50 607 LINE",
"676 607 LINE",
"676 500 LINE",
"-50 500 LINE"
);
},
{
closed = 1;
nodes = (
"99 64 OFFCURVE",
"30 113 OFFCURVE",
"30 252 CURVE SMOOTH",
"30 392 OFFCURVE",
"94 439 OFFCURVE",
"216 439 CURVE SMOOTH",
"263 439 OFFCURVE",
"334 433 OFFCURVE",
"371 422 CURVE",
"371 319 LINE",
"367 318 LINE",
"345 324 OFFCURVE",
"293 332 OFFCURVE",
"258 332 CURVE SMOOTH",
"182 332 OFFCURVE",
"162 315 OFFCURVE",
"162 254 CURVE SMOOTH",
"162 190 OFFCURVE",
"196 173 OFFCURVE",
"290 173 CURVE SMOOTH",
"342 173 OFFCURVE",
"405 182 OFFCURVE",
"441 201 CURVE",
"454 96 LINE",
"429 90 LINE",
"427 91 LINE",
"392 74 OFFCURVE",
"338 64 OFFCURVE",
"264 64 CURVE SMOOTH"
);
},
{
closed = 1;
nodes = (
"429 501 LINE",
"577 501 LINE",
"577 9 LINE",
"429 9 LINE"
);
},
{
closed = 1;
nodes = (
"344 176 LINE",
"344 177 LINE",
"170 297 LINE",
"166 297 LINE",
"205 350 LINE",
"232 331 LINE",
"232 330 LINE",
"451 178 LINE",
"411 127 LINE"
);
}
);
width = 636;
},
{
associatedMasterId = "632BC717-227E-41E7-B05B-9781150E6210";
background = {
paths = (
{
closed = 1;
nodes = (
"258 446 OFFCURVE",
"323 440 OFFCURVE",
"368 427 CURVE",
"368 310 LINE",
"364 309 LINE",
"331 314 OFFCURVE",
"284 317 OFFCURVE",
"253 317 CURVE SMOOTH",
"188 317 OFFCURVE",
"163 308 OFFCURVE",
"163 252 CURVE SMOOTH",
"163 196 OFFCURVE",
"182 186 OFFCURVE",
"282 186 CURVE SMOOTH",
"352 186 OFFCURVE",
"398 196 OFFCURVE",
"442 219 CURVE",
"449 95 LINE",
"409 67 OFFCURVE",
"342 52 OFFCURVE",
"253 52 CURVE SMOOTH",
"80 52 OFFCURVE",
"12 95 OFFCURVE",
"12 247 CURVE SMOOTH",
"12 399 OFFCURVE",
"59 446 OFFCURVE",
"188 446 CURVE SMOOTH"
);
}
);
};
layerId = "A5412B1D-57A3-4732-8AE9-2CD4A77DA0F3";
name = "Regular Mar 30 16, 11:09";
paths = (
{
closed = 1;
nodes = (
"302 52 OFFCURVE",
"394 65 OFFCURVE",
"448 94 CURVE",
"431 217 LINE",
"389 195 OFFCURVE",
"302 184 OFFCURVE",
"269 184 CURVE SMOOTH",
"192 184 OFFCURVE",
"162 193 OFFCURVE",
"162 253 CURVE SMOOTH",
"162 314 OFFCURVE",
"190 323 OFFCURVE",
"258 323 CURVE SMOOTH",
"290 323 OFFCURVE",
"341 319 OFFCURVE",
"362 313 CURVE",
"369 315 LINE",
"369 430 LINE",
"337 441 OFFCURVE",
"261 448 OFFCURVE",
"212 448 CURVE SMOOTH",
"53 448 OFFCURVE",
"13 404 OFFCURVE",
"13 253 CURVE SMOOTH",
"13 86 OFFCURVE",
"66 52 OFFCURVE",
"249 52 CURVE SMOOTH"
);
},
{
closed = 1;
nodes = (
"433 180 LINE",
"187 352 LINE",
"151 303 LINE",
"396 133 LINE"
);
},
{
closed = 1;
nodes = (
"568 9 LINE",
"568 501 LINE",
"420 501 LINE",
"420 9 LINE"
);
},
{
closed = 1;
nodes = (
"668 500 LINE",
"668 607 LINE",
"-10 607 LINE",
"-10 500 LINE"
);
}
);
width = 618;
},
{
associatedMasterId = "632BC717-227E-41E7-B05B-9781150E6210";
layerId = "63B03CCC-0F51-42C3-927F-835D9FEA246F";
name = "Regular Mar 31 16, 13:04";
paths = (
{
closed = 1;
nodes = (
"377 63 OFFCURVE",
"439 77 OFFCURVE",
"479 103 CURVE",
"472 219 LINE",
"428 196 OFFCURVE",
"382 183 OFFCURVE",
"312 183 CURVE SMOOTH",
"212 183 OFFCURVE",
"193 196 OFFCURVE",
"193 252 CURVE SMOOTH",
"193 308 OFFCURVE",
"218 317 OFFCURVE",
"283 317 CURVE SMOOTH",
"314 317 OFFCURVE",
"361 314 OFFCURVE",
"394 309 CURVE",
"398 310 LINE",
"398 427 LINE",
"353 439 OFFCURVE",
"293 446 OFFCURVE",
"233 446 CURVE SMOOTH",
"110 446 OFFCURVE",
"48 389 OFFCURVE",
"48 247 CURVE SMOOTH",
"48 106 OFFCURVE",
"126 63 OFFCURVE",
"293 63 CURVE SMOOTH"
);
},
{
closed = 1;
nodes = (
"465 184 LINE",
"272 315 LINE",
"272 317 LINE",
"217 352 LINE",
"181 303 LINE",
"197 284 LINE",
"199 284 LINE",
"347 186 LINE",
"347 184 LINE",
"426 133 LINE"
);
},
{
closed = 1;
nodes = (
"598 9 LINE",
"598 501 LINE",
"450 501 LINE",
"450 9 LINE"
);
},
{
closed = 1;
nodes = (
"698 500 LINE",
"698 607 LINE",
"-30 607 LINE",
"-30 500 LINE"
);
}
);
width = 648;
},
{
associatedMasterId = "632BC717-227E-41E7-B05B-9781150E6210";
background = {
paths = (
{
closed = 1;
nodes = (
"334 58 OFFCURVE",
"415 71 OFFCURVE",
"456 96 CURVE",
"443 207 LINE",
"407 188 OFFCURVE",
"344 179 OFFCURVE",
"292 179 CURVE SMOOTH",
"198 179 OFFCURVE",
"172 196 OFFCURVE",
"172 252 CURVE SMOOTH",
"172 305 OFFCURVE",
"198 319 OFFCURVE",
"266 319 CURVE SMOOTH",
"301 319 OFFCURVE",
"347 314 OFFCURVE",
"369 308 CURVE",
"373 309 LINE",
"373 425 LINE",
"336 436 OFFCURVE",
"265 442 OFFCURVE",
"218 442 CURVE SMOOTH",
"96 442 OFFCURVE",
"30 400 OFFCURVE",
"30 250 CURVE SMOOTH",
"30 108 OFFCURVE",
"101 58 OFFCURVE",
"266 58 CURVE SMOOTH"
);
},
{
closed = 1;
nodes = (
"445 184 LINE",
"376 232 OFFCURVE",
"308 278 OFFCURVE",
"240 318 CURVE",
"240 320 LINE",
"197 352 LINE",
"161 303 LINE",
"177 284 LINE",
"179 284 LINE",
"327 186 LINE",
"327 184 LINE",
"406 133 LINE"
);
},
{
closed = 1;
nodes = (
"579 9 LINE",
"579 501 LINE",
"431 501 LINE",
"431 9 LINE"
);
}
);
};
layerId = "F8383B01-985D-422B-A3BB-7020C0DB01C4";
name = "Regular Mar 31 16, 16:46";
paths = (
{
closed = 1;
nodes = (
"347 60 OFFCURVE",
"421 81 OFFCURVE",
"459 108 CURVE",
"452 219 LINE",
"408 195 OFFCURVE",
"362 183 OFFCURVE",
"292 183 CURVE SMOOTH",
"192 183 OFFCURVE",
"173 197 OFFCURVE",
"173 250 CURVE SMOOTH",
"173 312 OFFCURVE",
"198 320 OFFCURVE",
"263 320 CURVE SMOOTH",
"294 320 OFFCURVE",
"341 317 OFFCURVE",
"374 312 CURVE",
"378 313 LINE",
"378 427 LINE",
"333 439 OFFCURVE",
"273 446 OFFCURVE",
"213 446 CURVE SMOOTH",
"90 446 OFFCURVE",
"28 389 OFFCURVE",
"28 247 CURVE SMOOTH",
"28 106 OFFCURVE",
"96 60 OFFCURVE",
"263 60 CURVE SMOOTH"
);
},
{
closed = 1;
nodes = (
"445 184 LINE",
"376 232 OFFCURVE",
"308 278 OFFCURVE",
"240 318 CURVE",
"240 320 LINE",
"197 352 LINE",
"161 303 LINE",
"177 284 LINE",
"179 284 LINE",
"327 186 LINE",
"327 184 LINE",
"406 133 LINE"
);
},
{
closed = 1;
nodes = (
"578 9 LINE",
"578 501 LINE",
"430 501 LINE",
"430 9 LINE"
);
},
{
closed = 1;
nodes = (
"678 500 LINE",
"678 607 LINE",
"-45 607 LINE",
"-45 500 LINE"
);
}
);
width = 638;
}
);
rightMetricsKey = dvmAA;
unicode = 092C;
},
{
color = 6;
glyphname = dvBHA;
lastChange = "2016-05-19 21:47:13 +0000";
layers = (
{
background = {
paths = (
{
closed = 1;
nodes = (
"151 419 LINE",
"151 452 LINE SMOOTH",
"151 491 OFFCURVE",
"137 500 OFFCURVE",
"101 500 CURVE SMOOTH",
"-23 500 LINE",
"-23 607 LINE",
"167 607 LINE SMOOTH",
"275 607 OFFCURVE",
"303 583 OFFCURVE",
"299 424 CURVE"
);
}
);
};
layerId = "632BC717-227E-41E7-B05B-9781150E6210";
paths = (
{
closed = 1;
nodes = (
"407 501 LINE",
"556 501 LINE",
"556 9 LINE",
"407 9 LINE"
);
},
{
closed = 1;
nodes = (
"407 607 LINE",
"656 607 LINE",
"656 500 LINE",
"407 500 LINE"
);
},
{
closed = 1;
nodes = (
"139 280 LINE",
"512 280 LINE",
"512 168 LINE",
"139 168 LINE"
);
},
{
closed = 1;
nodes = (
"-70 607 LINE",
"90 607 LINE SMOOTH",
"215 607 OFFCURVE",
"252 558 OFFCURVE",
"252 422 CURVE SMOOTH",
"252 196 LINE SMOOTH",
"252 109 OFFCURVE",
"234 94 OFFCURVE",
"142 94 CURVE SMOOTH",
"45 94 OFFCURVE",
"23 113 OFFCURVE",
"23 187 CURVE SMOOTH",
"23 262 OFFCURVE",
"44 280 OFFCURVE",
"104 280 CURVE",
"104 433 LINE SMOOTH",
"104 482 OFFCURVE",
"96 500 OFFCURVE",
"53 500 CURVE SMOOTH",
"-70 500 LINE"
);
}
);
width = 616;
}
);
rightMetricsKey = dvmAA;
unicode = 092D;
},
{
color = 6;
glyphname = dvMA;
lastChange = "2016-05-19 21:47:13 +0000";
layers = (
{
background = {
paths = (
{
closed = 1;
nodes = (
"682 9 LINE",
"682 501 LINE",
"533 501 LINE",
"533 9 LINE"
);
},
{
closed = 1;
nodes = (
"782 500 LINE",
"782 607 LINE",
"533 607 LINE",
"533 500 LINE"
);
},
{
closed = 1;
nodes = (
"385 257 LINE",
"559 257 LINE",
"559 372 LINE",
"385 372 LINE"
);
},
{
closed = 1;
nodes = (
"279 195 LINE SMOOTH",
"279 147 OFFCURVE",
"269 140 OFFCURVE",
"217 140 CURVE SMOOTH",
"161 140 OFFCURVE",
"158 147 OFFCURVE",
"158 195 CURVE SMOOTH",
"158 250 OFFCURVE",
"153 257 OFFCURVE",
"244 257 CURVE SMOOTH",
"295 257 LINE",
"295 372 LINE",
"244 372 LINE SMOOTH",
"50 372 OFFCURVE",
"31 360 OFFCURVE",
"31 200 CURVE SMOOTH",
"31 40 OFFCURVE",
"52 27 OFFCURVE",
"226 27 CURVE SMOOTH",
"400 27 OFFCURVE",
"421 66 OFFCURVE",
"421 225 CURVE SMOOTH",
"421 409 LINE SMOOTH",
"421 563 OFFCURVE",
"387 616 OFFCURVE",
"255 616 CURVE SMOOTH",
"130 616 OFFCURVE",
"78 572 OFFCURVE",
"78 465 CURVE SMOOTH",
"78 454 OFFCURVE",
"79 443 OFFCURVE",
"81 432 CURVE",
"204 432 LINE",
"204 434 LINE",
"202 440 OFFCURVE",
"201 448 OFFCURVE",
"201 455 CURVE SMOOTH",
"201 481 OFFCURVE",
"206 500 OFFCURVE",
"242 500 CURVE SMOOTH",
"267 500 OFFCURVE",
"279 485 OFFCURVE",
"279 448 CURVE SMOOTH"
);
}
);
};
layerId = "632BC717-227E-41E7-B05B-9781150E6210";
paths = (
{
closed = 1;
nodes = (
"412 501 LINE",
"561 501 LINE",
"561 9 LINE",
"412 9 LINE"
);
},
{
closed = 1;
nodes = (
"-75 607 LINE",
"661 607 LINE",
"661 500 LINE",
"-75 500 LINE"
);
},
{
closed = 1;
nodes = (
"157 286 LINE",
"530 287 LINE",
"530 175 LINE",
"157 174 LINE"
);
},
{
closed = 1;
nodes = (
"255 500 LINE",
"255 196 LINE SMOOTH",
"255 109 OFFCURVE",
"237 94 OFFCURVE",
"145 94 CURVE SMOOTH",
"48 94 OFFCURVE",
"26 113 OFFCURVE",
"26 187 CURVE SMOOTH",
"26 262 OFFCURVE",
"47 280 OFFCURVE",
"107 280 CURVE",
"107 500 LINE"
);
}
);
width = 621;
}
);
rightMetricsKey = dvmAA;
unicode = 092E;
},
{
color = 6;
glyphname = dvYA;
lastChange = "2016-05-19 21:47:13 +0000";
layers = (
{
background = {
paths = (
{
closed = 1;
nodes = (
"163 439 LINE",
"161 445 OFFCURVE",
"160 453 OFFCURVE",
"160 460 CURVE SMOOTH",
"160 486 OFFCURVE",
"172 505 OFFCURVE",
"207 505 CURVE SMOOTH",
"241 505 OFFCURVE",
"255 489 OFFCURVE",
"255 449 CURVE SMOOTH",
"255 390 OFFCURVE",
"219 371 OFFCURVE",
"127 371 CURVE",
"12 371 LINE",
"12 326 LINE SMOOTH",
"12 153 OFFCURVE",
"92 72 OFFCURVE",
"289 72 CURVE SMOOTH",
"406 72 OFFCURVE",
"486 106 OFFCURVE",
"532 142 CURVE",
"513 266 LINE",
"464 228 OFFCURVE",
"395 201 OFFCURVE",
"306 201 CURVE SMOOTH",
"212 201 OFFCURVE",
"157 222 OFFCURVE",
"154 270 CURVE",
"167 269 OFFCURVE",
"181 268 OFFCURVE",
"193 268 CURVE SMOOTH",
"322 268 OFFCURVE",
"388 327 OFFCURVE",
"388 448 CURVE SMOOTH",
"388 564 OFFCURVE",
"328 621 OFFCURVE",
"214 621 CURVE SMOOTH",
"100 621 OFFCURVE",
"37 577 OFFCURVE",
"37 470 CURVE SMOOTH",
"37 459 OFFCURVE",
"38 448 OFFCURVE",
"40 437 CURVE",
"163 437 LINE"
);
}
);
};
layerId = "632BC717-227E-41E7-B05B-9781150E6210";
paths = (
{
closed = 1;
nodes = (
"470 501 LINE",
"618 501 LINE",
"618 9 LINE",
"470 9 LINE"
);
},
{
closed = 1;
nodes = (
"-40 607 LINE",
"718 607 LINE",
"718 500 LINE",
"-40 500 LINE"
);
},
{
closed = 1;
nodes = (
"321 422 LINE SMOOTH",
"321 320 OFFCURVE",
"278 277 OFFCURVE",
"157 270 CURVE",
"158 227 OFFCURVE",
"204 200 OFFCURVE",
"314 200 CURVE SMOOTH",
"402 200 OFFCURVE",
"465 216 OFFCURVE",
"519 257 CURVE",
"550 146 LINE",
"525 125 OFFCURVE",
"503 110 OFFCURVE",
"470 98 CURVE",
"466 100 LINE",
"419 84 OFFCURVE",
"367 76 OFFCURVE",
"300 76 CURVE SMOOTH",
"119 76 OFFCURVE",
"23 156 OFFCURVE",
"23 312 CURVE SMOOTH",
"23 367 LINE",
"71 367 LINE SMOOTH",
"164 367 OFFCURVE",
"179 379 OFFCURVE",
"179 464 CURVE SMOOTH",
"179 520 LINE",
"321 520 LINE"
);
}
);
width = 678;
},
{
associatedMasterId = "632BC717-227E-41E7-B05B-9781150E6210";
layerId = "ABC172B2-C832-4C7B-A9D7-BD0A1F06CBE0";
name = "1";
paths = (
{
closed = 1;
nodes = (
"618 9 LINE",
"618 501 LINE",
"470 501 LINE",
"470 9 LINE"
);
},
{
closed = 1;
nodes = (
"718 500 LINE",
"718 607 LINE",
"-40 607 LINE",
"-40 500 LINE"
);
},
{
closed = 1;
nodes = (
"144 500 LINE",
"174 498 OFFCURVE",
"209 477 OFFCURVE",
"209 434 CURVE SMOOTH",
"209 380 OFFCURVE",
"174 367 OFFCURVE",
"101 367 CURVE",
"20 367 LINE",
"20 292 LINE SMOOTH",
"20 146 OFFCURVE",
"88 70 OFFCURVE",
"305 70 CURVE SMOOTH",
"403 70 OFFCURVE",
"485 98 OFFCURVE",
"550 143 CURVE",
"519 262 LINE",
"461 217 OFFCURVE",
"403 200 OFFCURVE",
"306 200 CURVE SMOOTH",
"202 200 OFFCURVE",
"166 226 OFFCURVE",
"157 265 CURVE",
"290 265 OFFCURVE",
"352 321 OFFCURVE",
"352 404 CURVE SMOOTH",
"352 448 OFFCURVE",
"336 477 OFFCURVE",
"307 497 CURVE",
"307 500 LINE",
"144 607 LINE"
);
}
);
width = 668;
},
{
associatedMasterId = "632BC717-227E-41E7-B05B-9781150E6210";
layerId = "50E12DED-3694-4CF0-8F3B-FCD66342A1F3";
name = "Regular Mar 9 16, 12:50";
paths = (
{
closed = 1;
nodes = (
"638 9 LINE",
"638 501 LINE",
"490 501 LINE",
"490 9 LINE"
);
},
{
closed = 1;
nodes = (
"738 500 LINE",
"738 607 LINE",
"-20 607 LINE",
"-20 500 LINE"
);
},
{
closed = 1;
nodes = (
"198 500 LINE",
"239 501 OFFCURVE",
"263 482 OFFCURVE",
"263 434 CURVE SMOOTH",
"263 380 OFFCURVE",
"237 352 OFFCURVE",
"125 352 CURVE SMOOTH",
"96 352 OFFCURVE",
"58 353 OFFCURVE",
"36 355 CURVE",
"30 348 LINE",
"30 292 LINE SMOOTH",
"30 134 OFFCURVE",
"84 70 OFFCURVE",
"299 70 CURVE SMOOTH",
"386 70 OFFCURVE",
"463 82 OFFCURVE",
"520 119 CURVE",
"520 245 LINE",
"463 209 OFFCURVE",
"396 193 OFFCURVE",
"299 193 CURVE SMOOTH",
"190 193 OFFCURVE",
"165 216 OFFCURVE",
"165 242 CURVE SMOOTH",
"165 259 LINE",
"338 259 OFFCURVE",
"396 312 OFFCURVE",
"396 434 CURVE SMOOTH",
"396 557 OFFCURVE",
"311 606 OFFCURVE",
"198 606 CURVE"
);
}
);
width = 688;
},
{
associatedMasterId = "632BC717-227E-41E7-B05B-9781150E6210";
background = {
paths = (
{
closed = 1;
nodes = (
"156 499 LINE",
"207 497 OFFCURVE",
"221 482 OFFCURVE",
"221 434 CURVE SMOOTH",
"221 380 OFFCURVE",
"175 352 OFFCURVE",
"113 352 CURVE SMOOTH",
"94 352 OFFCURVE",
"56 353 OFFCURVE",
"34 355 CURVE",
"28 348 LINE",
"28 292 LINE SMOOTH",
"28 129 OFFCURVE",
"82 65 OFFCURVE",
"307 65 CURVE SMOOTH",
"404 65 OFFCURVE",
"471 84 OFFCURVE",
"528 125 CURVE",
"528 256 LINE",
"471 216 OFFCURVE",
"414 192 OFFCURVE",
"307 192 CURVE SMOOTH",
"203 192 OFFCURVE",
"170 208 OFFCURVE",
"166 249 CURVE",
"269 249 OFFCURVE",
"354 302 OFFCURVE",
"354 434 CURVE SMOOTH",
"354 557 OFFCURVE",
"269 613 OFFCURVE",
"156 606 CURVE"
);
}
);
};
layerId = "D2F0DF86-E1E3-46E3-A11E-3D493E7D508E";
name = "Regular Mar 9 16, 15:39";
paths = (
{
closed = 1;
nodes = (
"638 9 LINE",
"638 501 LINE",
"490 501 LINE",
"490 9 LINE"
);
},
{
closed = 1;
nodes = (
"738 500 LINE",
"738 607 LINE",
"-20 607 LINE",
"-20 500 LINE"
);
},
{
closed = 1;
nodes = (
"118 500 LINE",
"199 501 OFFCURVE",
"223 482 OFFCURVE",
"223 434 CURVE SMOOTH",
"223 380 OFFCURVE",
"197 352 OFFCURVE",
"115 352 CURVE",
"33 355 LINE",
"27 348 LINE",
"27 302 LINE SMOOTH",
"27 144 OFFCURVE",
"81 63 OFFCURVE",
"299 63 CURVE SMOOTH",
"386 63 OFFCURVE",
"473 83 OFFCURVE",
"520 123 CURVE",
"520 252 LINE",
"468 212 OFFCURVE",
"396 191 OFFCURVE",
"299 191 CURVE SMOOTH",
"184 191 OFFCURVE",
"160 217 OFFCURVE",
"155 303 CURVE",
"137 247 LINE",
"321 249 OFFCURVE",
"357 342 OFFCURVE",
"357 434 CURVE SMOOTH",
"357 545 OFFCURVE",
"296 607 OFFCURVE",
"118 606 CURVE"
);
}
);
width = 688;
},
{
associatedMasterId = "632BC717-227E-41E7-B05B-9781150E6210";
layerId = "DA9ECBB2-9DF0-4752-99F8-894D70767FEA";
name = "Regular Mar 31 16, 11:53";
paths = (
{
closed = 1;
nodes = (
"618 9 LINE",
"618 501 LINE",
"470 501 LINE",
"470 9 LINE"
);
},
{
closed = 1;
nodes = (
"718 500 LINE",
"718 607 LINE",
"-40 607 LINE",
"-40 500 LINE"
);
},
{
closed = 1;
nodes = (
"144 500 LINE",
"164 498 OFFCURVE",
"169 467 OFFCURVE",
"169 434 CURVE SMOOTH",
"169 399 OFFCURVE",
"154 367 OFFCURVE",
"101 367 CURVE",
"20 367 LINE",
"20 292 LINE SMOOTH",
"20 146 OFFCURVE",
"88 70 OFFCURVE",
"305 70 CURVE SMOOTH",
"403 70 OFFCURVE",
"485 98 OFFCURVE",
"550 143 CURVE",
"519 262 LINE",
"461 217 OFFCURVE",
"403 200 OFFCURVE",
"306 200 CURVE SMOOTH",
"202 200 OFFCURVE",
"166 224 OFFCURVE",
"157 265 CURVE",
"243 265 OFFCURVE",
"303 330 OFFCURVE",
"303 412 CURVE SMOOTH",
"303 447 OFFCURVE",
"300 474 OFFCURVE",
"291 497 CURVE",
"291 500 LINE",
"144 607 LINE"
);
}
);
width = 668;
}
);
rightMetricsKey = dvmAA;
unicode = 092F;
},
{
color = 6;
glyphname = dvRA;
lastChange = "2016-05-21 00:43:12 +0000";
layers = (
{
layerId = "632BC717-227E-41E7-B05B-9781150E6210";
paths = (
{
closed = 1;
nodes = (
"111 254 LINE",
"130 240 OFFCURVE",
"156 234 OFFCURVE",
"179 234 CURVE SMOOTH",
"277 234 OFFCURVE",
"351 280 OFFCURVE",
"351 382 CURVE SMOOTH",
"351 572 LINE",
"206 573 LINE",
"206 399 LINE SMOOTH",
"206 345 OFFCURVE",
"149 327 OFFCURVE",
"81 327 CURVE SMOOTH",
"29 327 LINE",
"29 211 LINE"
);
},
{
closed = 1;
nodes = (
"451 500 LINE",
"451 607 LINE",
"-30 607 LINE",
"-30 500 LINE"
);
},
{
closed = 1;
nodes = (
"390 6 LINE",
"390 11 LINE",
"312 110 OFFCURVE",
"238 184 OFFCURVE",
"167 231 CURVE",
"167 235 LINE",
"128 256 LINE",
"29 248 LINE",
"29 211 LINE",
"217 6 LINE"
);
}
);
width = 411;
},
{
associatedMasterId = "632BC717-227E-41E7-B05B-9781150E6210";
layerId = "8C50B8C4-3242-458A-AFD9-9A6616669353";
name = "Regular Mar 9 16, 14:18";
paths = (
{
closed = 1;
nodes = (
"112 201 LINE",
"267 202 OFFCURVE",
"320 260 OFFCURVE",
"320 402 CURVE SMOOTH",
"320 582 LINE",
"167 583 LINE",
"167 382 LINE SMOOTH",
"167 335 OFFCURVE",
"150 317 OFFCURVE",
"82 317 CURVE",
"30 317 LINE",
"30 201 LINE"
);
},
{
closed = 1;
nodes = (
"421 500 LINE",
"421 607 LINE",
"-30 607 LINE",
"-30 500 LINE"
);
},
{
closed = 1;
nodes = (
"379 21 LINE",
"131 285 LINE",
"30 204 LINE",
"208 10 LINE",
"379 10 LINE"
);
}
);
width = 391;
},
{
associatedMasterId = "632BC717-227E-41E7-B05B-9781150E6210";
layerId = "8D183287-E7D1-40C8-9418-D8183A8CF931";
name = "Regular Mar 28 16, 14:43";
paths = (
{
closed = 1;
nodes = (
"111 234 LINE",
"130 220 OFFCURVE",
"156 215 OFFCURVE",
"179 215 CURVE SMOOTH",
"287 215 OFFCURVE",
"311 250 OFFCURVE",
"311 392 CURVE SMOOTH",
"311 572 LINE",
"166 573 LINE",
"166 372 LINE SMOOTH",
"166 325 OFFCURVE",
"149 307 OFFCURVE",
"81 307 CURVE",
"29 307 LINE",
"29 191 LINE"
);
},
{
closed = 1;
nodes = (
"421 500 LINE",
"421 607 LINE",
"-30 607 LINE",
"-30 500 LINE"
);
},
{
closed = 1;
nodes = (
"363 20 LINE",
"310 98 OFFCURVE",
"231 179 OFFCURVE",
"135 252 CURVE",
"29 191 LINE",
"197 9 LINE",
"363 9 LINE"
);
}
);
width = 381;
},
{
associatedMasterId = "632BC717-227E-41E7-B05B-9781150E6210";
layerId = "E65A256B-689A-4814-B809-54C1267459AF";
name = "Regular Mar 28 16, 14:45";
paths = (
{
closed = 1;
nodes = (
"111 234 LINE",
"130 220 OFFCURVE",
"156 214 OFFCURVE",
"179 214 CURVE SMOOTH",
"277 214 OFFCURVE",
"311 250 OFFCURVE",
"311 392 CURVE SMOOTH",
"311 572 LINE",
"166 573 LINE",
"166 372 LINE SMOOTH",
"166 318 OFFCURVE",
"149 300 OFFCURVE",
"81 300 CURVE SMOOTH",
"29 300 LINE",
"29 191 LINE"
);
},
{
closed = 1;
nodes = (
"421 500 LINE",
"421 607 LINE",
"-30 607 LINE",
"-30 500 LINE"
);
},
{
closed = 1;
nodes = (
"353 20 LINE",
"300 98 OFFCURVE",
"211 184 OFFCURVE",
"128 236 CURVE",
"29 228 LINE",
"29 191 LINE",
"187 9 LINE",
"353 9 LINE"
);
}
);
width = 381;
},
{
associatedMasterId = "632BC717-227E-41E7-B05B-9781150E6210";
layerId = "914277A5-B0C7-4D22-A057-686FCA3F0E97";
name = "Regular Mar 30 16, 16:29";
paths = (
{
closed = 1;
nodes = (
"111 234 LINE",
"130 220 OFFCURVE",
"156 214 OFFCURVE",
"179 214 CURVE SMOOTH",
"277 214 OFFCURVE",
"311 260 OFFCURVE",
"311 362 CURVE SMOOTH",
"311 572 LINE",
"166 573 LINE",
"166 379 LINE SMOOTH",
"166 325 OFFCURVE",
"149 307 OFFCURVE",
"81 307 CURVE SMOOTH",
"29 307 LINE",
"29 191 LINE"
);
},
{
closed = 1;
nodes = (
"421 500 LINE",
"421 607 LINE",
"-30 607 LINE",
"-30 500 LINE"
);
},
{
closed = 1;
nodes = (
"353 11 LINE",
"300 89 OFFCURVE",
"211 184 OFFCURVE",
"128 236 CURVE",
"29 228 LINE",
"29 191 LINE",
"187 9 LINE",
"353 9 LINE"
);
}
);
width = 381;
}
);
unicode = 0930;
},
{
color = 6;
glyphname = dvLA;
lastChange = "2016-05-19 21:47:13 +0000";
layers = (
{
layerId = "632BC717-227E-41E7-B05B-9781150E6210";
paths = (
{
closed = 1;
nodes = (
"55 81 OFFCURVE",
"33 159 OFFCURVE",
"33 236 CURVE SMOOTH",
"33 366 OFFCURVE",
"97 420 OFFCURVE",
"218 420 CURVE SMOOTH",
"323 420 OFFCURVE",
"370 383 OFFCURVE",
"379 326 CURVE",
"382 326 LINE",
"392 383 OFFCURVE",
"426 419 OFFCURVE",
"512 419 CURVE SMOOTH",
"543 419 OFFCURVE",
"568 410 OFFCURVE",
"583 393 CURVE",
"585 395 LINE",
"599 393 OFFCURVE",
"631 374 OFFCURVE",
"635 358 CURVE",
"704 333 OFFCURVE",
"704 317 OFFCURVE",
"706 193 CURVE",
"586 193 LINE",
"586 277 OFFCURVE",
"567 294 OFFCURVE",
"520 294 CURVE SMOOTH",
"469 294 OFFCURVE",
"452 277 OFFCURVE",
"452 193 CURVE SMOOTH",
"452 126 LINE",
"320 126 LINE",
"320 193 LINE SMOOTH",
"320 274 OFFCURVE",
"299 294 OFFCURVE",
"252 294 CURVE SMOOTH",
"200 294 OFFCURVE",
"181 270 OFFCURVE",
"181 203 CURVE SMOOTH",
"181 138 OFFCURVE",
"197 79 OFFCURVE",
"236 14 CURVE",
"236 9 LINE",
"94 9 LINE"
);
},
{
closed = 1;
nodes = (
"585 501 LINE",
"734 501 LINE",
"734 9 LINE",
"585 9 LINE"
);
},
{
closed = 1;
nodes = (
"-10 607 LINE",
"834 607 LINE",
"834 500 LINE",
"-10 500 LINE"
);
}
);
width = 794;
},
{
associatedMasterId = "632BC717-227E-41E7-B05B-9781150E6210";
layerId = "2CB4FECA-E0DA-4E2B-BC28-50846FC156F3";
name = "Regular Apr 1 16, 17:34";
width = 799;
visible = 1;
},
{
associatedMasterId = "632BC717-227E-41E7-B05B-9781150E6210";
layerId = "69F96BE4-835F-4FB5-A7A5-B1568B0A3210";
name = "Regular Apr 22 16, 11:26";
paths = (
{
closed = 1;
nodes = (
"-10 607 LINE",
"832 607 LINE",
"832 500 LINE",
"-10 500 LINE"
);
},
{
closed = 1;
nodes = (
"583 501 LINE",
"732 501 LINE",
"732 9 LINE",
"583 9 LINE"
);
},
{
closed = 1;
nodes = (
"82 9 LINE",
"50 82 OFFCURVE",
"35 159 OFFCURVE",
"35 236 CURVE SMOOTH",
"35 362 OFFCURVE",
"91 420 OFFCURVE",
"214 420 CURVE SMOOTH",
"318 420 OFFCURVE",
"368 383 OFFCURVE",
"377 326 CURVE",
"380 326 LINE",
"390 380 OFFCURVE",
"422 419 OFFCURVE",
"506 419 CURVE SMOOTH",
"544 419 OFFCURVE",
"567 409 OFFCURVE",
"581 393 CURVE",
"583 395 LINE",
"612 384 OFFCURVE",
"627 380 OFFCURVE",
"632 358 CURVE",
"701 333 OFFCURVE",
"701 317 OFFCURVE",
"703 193 CURVE",
"583 193 LINE",
"583 274 OFFCURVE",
"566 294 OFFCURVE",
"519 294 CURVE SMOOTH",
"467 294 OFFCURVE",
"450 274 OFFCURVE",
"450 193 CURVE SMOOTH",
"450 126 LINE",
"318 126 LINE",
"318 193 LINE SMOOTH",
"318 274 OFFCURVE",
"297 294 OFFCURVE",
"251 294 CURVE SMOOTH",
"201 294 OFFCURVE",
"178 274 OFFCURVE",
"178 203 CURVE SMOOTH",
"178 138 OFFCURVE",
"191 75 OFFCURVE",
"216 14 CURVE",
"216 9 LINE"
);
}
);
width = 797;
}
);
rightMetricsKey = dvmAA;
unicode = 0932;
},
{
color = 6;
glyphname = dvVA;
lastChange = "2016-05-19 21:47:13 +0000";
layers = (
{
background = {
paths = (
{
closed = 1;
nodes = (
"403 501 LINE",
"551 501 LINE",
"551 9 LINE",
"403 9 LINE"
);
},
{
closed = 1;
nodes = (
"257 432 OFFCURVE",
"308 426 OFFCURVE",
"345 415 CURVE",
"345 299 LINE",
"341 298 LINE",
"319 304 OFFCURVE",
"293 309 OFFCURVE",
"258 309 CURVE SMOOTH",
"198 309 OFFCURVE",
"184 293 OFFCURVE",
"184 244 CURVE SMOOTH",
"184 195 OFFCURVE",
"198 179 OFFCURVE",
"284 179 CURVE SMOOTH",
"336 179 OFFCURVE",
"379 188 OFFCURVE",
"415 207 CURVE",
"428 96 LINE",
"387 71 OFFCURVE",
"326 58 OFFCURVE",
"258 58 CURVE SMOOTH",
"93 58 OFFCURVE",
"42 104 OFFCURVE",
"42 246 CURVE SMOOTH",
"42 386 OFFCURVE",
"88 432 OFFCURVE",
"210 432 CURVE SMOOTH"
);
}
);
};
layerId = "632BC717-227E-41E7-B05B-9781150E6210";
paths = (
{
closed = 1;
nodes = (
"263 439 OFFCURVE",
"306 433 OFFCURVE",
"345 423 CURVE",
"345 308 LINE",
"341 307 LINE",
"318 312 OFFCURVE",
"289 315 OFFCURVE",
"258 315 CURVE SMOOTH",
"195 315 OFFCURVE",
"175 303 OFFCURVE",
"175 246 CURVE SMOOTH",
"175 188 OFFCURVE",
"205 176 OFFCURVE",
"286 176 CURVE SMOOTH",
"340 176 OFFCURVE",
"377 184 OFFCURVE",
"411 203 CURVE",
"438 96 LINE",
"404 83 LINE",
"400 85 LINE",
"363 67 OFFCURVE",
"302 56 OFFCURVE",
"247 56 CURVE SMOOTH",
"85 56 OFFCURVE",
"25 111 OFFCURVE",
"25 251 CURVE SMOOTH",
"25 385 OFFCURVE",
"85 439 OFFCURVE",
"213 439 CURVE SMOOTH"
);
},
{
closed = 1;
nodes = (
"403 501 LINE",
"551 501 LINE",
"551 9 LINE",
"403 9 LINE"
);
},
{
closed = 1;
nodes = (
"-10 607 LINE",
"651 607 LINE",
"651 500 LINE",
"-10 500 LINE"
);
}
);
width = 611;
},
{
associatedMasterId = "632BC717-227E-41E7-B05B-9781150E6210";
layerId = "5218A8F0-54AC-43CC-8084-5214CB39FC4B";
name = "Regular Mar 31 16, 12:58";
paths = (
{
closed = 1;
nodes = (
"269 446 OFFCURVE",
"318 438 OFFCURVE",
"357 427 CURVE",
"357 307 LINE",
"353 306 LINE",
"330 311 OFFCURVE",
"301 314 OFFCURVE",
"270 314 CURVE SMOOTH",
"207 314 OFFCURVE",
"188 307 OFFCURVE",
"188 249 CURVE SMOOTH",
"188 191 OFFCURVE",
"207 181 OFFCURVE",
"288 181 CURVE SMOOTH",
"348 181 OFFCURVE",
"394 191 OFFCURVE",
"423 208 CURVE",
"450 92 LINE",
"419 74 OFFCURVE",
"351 52 OFFCURVE",
"259 52 CURVE SMOOTH",
"91 52 OFFCURVE",
"23 95 OFFCURVE",
"23 247 CURVE SMOOTH",
"23 399 OFFCURVE",
"70 446 OFFCURVE",
"199 446 CURVE SMOOTH"
);
},
{
closed = 1;
nodes = (
"410 501 LINE",
"558 501 LINE",
"558 9 LINE",
"410 9 LINE"
);
},
{
closed = 1;
nodes = (
"-20 607 LINE",
"658 607 LINE",
"658 500 LINE",
"-20 500 LINE"
);
}
);
width = 608;
}
);
rightMetricsKey = dvmAA;
unicode = 0935;
},
{
color = 6;
glyphname = dvSHA;
lastChange = "2016-05-19 21:47:13 +0000";
layers = (
{
background = {
paths = (
{
closed = 1;
nodes = (
"211 434 LINE",
"209 440 OFFCURVE",
"208 448 OFFCURVE",
"208 455 CURVE SMOOTH",
"208 481 OFFCURVE",
"220 500 OFFCURVE",
"255 500 CURVE SMOOTH",
"289 500 OFFCURVE",
"303 484 OFFCURVE",
"303 444 CURVE SMOOTH",
"303 385 OFFCURVE",
"267 366 OFFCURVE",
"175 366 CURVE",
"60 366 LINE",
"60 321 LINE SMOOTH",
"60 148 OFFCURVE",
"140 67 OFFCURVE",
"337 67 CURVE SMOOTH",
"454 67 OFFCURVE",
"534 101 OFFCURVE",
"580 137 CURVE",
"561 261 LINE",
"512 223 OFFCURVE",
"443 196 OFFCURVE",
"354 196 CURVE SMOOTH",
"260 196 OFFCURVE",
"205 217 OFFCURVE",
"202 265 CURVE",
"215 264 OFFCURVE",
"229 263 OFFCURVE",
"241 263 CURVE SMOOTH",
"370 263 OFFCURVE",
"436 322 OFFCURVE",
"436 443 CURVE SMOOTH",
"436 559 OFFCURVE",
"376 616 OFFCURVE",
"262 616 CURVE SMOOTH",
"148 616 OFFCURVE",
"85 572 OFFCURVE",
"85 465 CURVE SMOOTH",
"85 454 OFFCURVE",
"86 443 OFFCURVE",
"88 432 CURVE",
"211 432 LINE"
);
}
);
};
layerId = "632BC717-227E-41E7-B05B-9781150E6210";
paths = (
{
closed = 1;
nodes = (
"496 501 LINE",
"644 501 LINE",
"644 9 LINE",
"496 9 LINE"
);
},
{
closed = 1;
nodes = (
"496 607 LINE",
"744 607 LINE",
"744 500 LINE",
"496 500 LINE"
);
},
{
closed = 1;
nodes = (
"69 432 LINE",
"67 441 OFFCURVE",
"65 455 OFFCURVE",
"65 467 CURVE SMOOTH",
"65 563 OFFCURVE",
"121 615 OFFCURVE",
"241 615 CURVE SMOOTH",
"361 615 OFFCURVE",
"417 557 OFFCURVE",
"417 433 CURVE SMOOTH",
"417 317 OFFCURVE",
"342 230 OFFCURVE",
"194 230 CURVE SMOOTH",
"176 230 OFFCURVE",
"177 231 OFFCURVE",
"156 235 CURVE",
"40 224 LINE",
"40 343 LINE",
"135 343 LINE",
"237 343 OFFCURVE",
"283 383 OFFCURVE",
"283 442 CURVE SMOOTH",
"283 487 OFFCURVE",
"268 506 OFFCURVE",
"236 506 CURVE SMOOTH",
"203 506 OFFCURVE",
"188 487 OFFCURVE",
"188 457 CURVE SMOOTH",
"188 448 OFFCURVE",
"189 440 OFFCURVE",
"191 434 CURVE",
"191 432 LINE"
);
},
{
closed = 1;
nodes = (
"40 223 LINE",
"40 250 LINE",
"179 232 LINE",
"179 228 LINE",
"255 176 OFFCURVE",
"324 110 OFFCURVE",
"404 11 CURVE",
"404 9 LINE",
"226 9 LINE"
);
}
);
width = 704;
},
{
associatedMasterId = "632BC717-227E-41E7-B05B-9781150E6210";
background = {
paths = (
{
closed = 1;
nodes = (
"182 433 LINE",
"180 438 OFFCURVE",
"178 446 OFFCURVE",
"178 454 CURVE SMOOTH",
"178 480 OFFCURVE",
"190 499 OFFCURVE",
"225 499 CURVE SMOOTH",
"259 499 OFFCURVE",
"273 483 OFFCURVE",
"273 443 CURVE SMOOTH",
"273 394 OFFCURVE",
"247 365 OFFCURVE",
"105 365 CURVE",
"30 365 LINE",
"30 300 LINE SMOOTH",
"30 132 OFFCURVE",
"120 73 OFFCURVE",
"317 73 CURVE SMOOTH",
"424 73 OFFCURVE",
"504 101 OFFCURVE",
"550 141 CURVE",
"531 260 LINE",
"482 215 OFFCURVE",
"420 200 OFFCURVE",
"331 200 CURVE SMOOTH",
"237 200 OFFCURVE",
"176 213 OFFCURVE",
"168 264 CURVE",
"181 263 OFFCURVE",
"194 262 OFFCURVE",
"206 262 CURVE SMOOTH",
"335 262 OFFCURVE",
"406 321 OFFCURVE",
"406 442 CURVE SMOOTH",
"406 558 OFFCURVE",
"346 615 OFFCURVE",
"232 615 CURVE SMOOTH",
"118 615 OFFCURVE",
"55 571 OFFCURVE",
"55 464 CURVE SMOOTH",
"55 453 OFFCURVE",
"56 443 OFFCURVE",
"58 432 CURVE",
"182 432 LINE"
);
}
);
};
layerId = "FE5F5676-891E-46F2-8206-8E32299D89BE";
name = "Regular Mar 30 16, 16:35";
paths = (
{
closed = 1;
nodes = (
"614 9 LINE",
"614 501 LINE",
"466 501 LINE",
"466 9 LINE"
);
},
{
closed = 1;
nodes = (
"714 500 LINE",
"714 607 LINE",
"466 607 LINE",
"466 500 LINE"
);
},
{
closed = 1;
nodes = (
"383 16 LINE",
"330 94 OFFCURVE",
"241 184 OFFCURVE",
"158 236 CURVE",
"30 225 LINE",
"217 9 LINE",
"383 9 LINE"
);
},
{
closed = 1;
nodes = (
"181 434 LINE",
"179 440 OFFCURVE",
"178 448 OFFCURVE",
"178 457 CURVE SMOOTH",
"178 481 OFFCURVE",
"193 499 OFFCURVE",
"226 499 CURVE SMOOTH",
"259 499 OFFCURVE",
"273 481 OFFCURVE",
"273 432 CURVE SMOOTH",
"273 373 OFFCURVE",
"227 343 OFFCURVE",
"125 343 CURVE",
"30 343 LINE",
"30 224 LINE",
"146 235 LINE",
"167 231 OFFCURVE",
"166 230 OFFCURVE",
"184 230 CURVE SMOOTH",
"332 230 OFFCURVE",
"407 308 OFFCURVE",
"407 423 CURVE SMOOTH",
"407 538 OFFCURVE",
"351 615 OFFCURVE",
"231 615 CURVE SMOOTH",
"111 615 OFFCURVE",
"55 563 OFFCURVE",
"55 467 CURVE SMOOTH",
"55 455 OFFCURVE",
"57 441 OFFCURVE",
"59 432 CURVE",
"181 432 LINE"
);
}
);
width = 664;
}
);
rightMetricsKey = dvmAA;
unicode = 0936;
},
{
color = 6;
glyphname = dvSSA;
lastChange = "2016-05-19 21:47:13 +0000";
layers = (
{
layerId = "632BC717-227E-41E7-B05B-9781150E6210";
paths = (
{
closed = 1;
nodes = (
"144 427 LINE",
"183 485 LINE",
"429 313 LINE",
"389 257 LINE"
);
},
{
closed = 1;
nodes = (
"388 501 LINE",
"529 501 LINE",
"529 9 LINE",
"388 9 LINE"
);
},
{
closed = 1;
nodes = (
"-50 607 LINE",
"629 607 LINE",
"629 500 LINE",
"-50 500 LINE"
);
},
{
closed = 1;
nodes = (
"96 100 OFFCURVE",
"50 148 OFFCURVE",
"50 317 CURVE SMOOTH",
"50 513 LINE",
"186 514 LINE",
"186 302 LINE SMOOTH",
"186 239 OFFCURVE",
"219 219 OFFCURVE",
"294 219 CURVE SMOOTH",
"335 219 OFFCURVE",
"364 225 OFFCURVE",
"390 240 CURVE",
"394 125 LINE",
"388 120 LINE",
"384 122 LINE",
"346 107 OFFCURVE",
"298 100 OFFCURVE",
"246 100 CURVE SMOOTH"
);
}
);
width = 589;
},
{
associatedMasterId = "632BC717-227E-41E7-B05B-9781150E6210";
layerId = "C402B2DB-EAA6-4B85-9285-51FAFAB9D369";
name = "Regular Mar 30 16, 10:55";
paths = (
{
closed = 1;
nodes = (
"306 98 OFFCURVE",
"367 108 OFFCURVE",
"397 122 CURVE",
"381 248 LINE",
"362 233 OFFCURVE",
"324 224 OFFCURVE",
"288 224 CURVE SMOOTH",
"214 224 OFFCURVE",
"185 244 OFFCURVE",
"185 295 CURVE SMOOTH",
"185 514 LINE",
"37 513 LINE",
"37 317 LINE SMOOTH",
"37 163 OFFCURVE",
"97 98 OFFCURVE",
"255 98 CURVE SMOOTH"
);
},
{
closed = 1;
nodes = (
"419 317 LINE",
"173 489 LINE",
"130 427 LINE",
"375 257 LINE"
);
},
{
closed = 1;
nodes = (
"519 9 LINE",
"519 501 LINE",
"370 501 LINE",
"370 9 LINE"
);
},
{
closed = 1;
nodes = (
"619 500 LINE",
"619 607 LINE",
"-33 607 LINE",
"-33 500 LINE"
);
}
);
width = 569;
}
);
leftMetricsKey = dvPA;
rightMetricsKey = dvmAA;
unicode = 0937;
},
{
color = 6;
glyphname = dvSA;
lastChange = "2016-05-19 21:47:13 +0000";
layers = (
{
background = {
paths = (
{
closed = 1;
nodes = (
"153 234 LINE",
"172 220 OFFCURVE",
"198 214 OFFCURVE",
"221 214 CURVE SMOOTH",
"319 214 OFFCURVE",
"353 260 OFFCURVE",
"353 362 CURVE SMOOTH",
"353 572 LINE",
"208 573 LINE",
"208 379 LINE SMOOTH",
"208 325 OFFCURVE",
"191 307 OFFCURVE",
"123 307 CURVE SMOOTH",
"71 307 LINE",
"71 191 LINE"
);
},
{
closed = 1;
nodes = (
"463 500 LINE",
"463 607 LINE",
"12 607 LINE",
"12 500 LINE"
);
},
{
closed = 1;
nodes = (
"395 11 LINE",
"342 89 OFFCURVE",
"253 184 OFFCURVE",
"170 236 CURVE",
"71 228 LINE",
"71 191 LINE",
"229 9 LINE",
"395 9 LINE"
);
}
);
};
layerId = "632BC717-227E-41E7-B05B-9781150E6210";
paths = (
{
closed = 1;
nodes = (
"34 307 LINE",
"86 307 LINE",
"154 307 OFFCURVE",
"168 335 OFFCURVE",
"168 382 CURVE SMOOTH",
"168 573 LINE",
"316 572 LINE",
"316 422 LINE SMOOTH",
"316 346 OFFCURVE",
"293 309 OFFCURVE",
"232 284 CURVE",
"224 205 OFFCURVE",
"148 199 OFFCURVE",
"86 230 CURVE",
"34 191 LINE"
);
},
{
closed = 1;
nodes = (
"34 191 LINE",
"34 228 LINE",
"133 236 LINE",
"153 223 OFFCURVE",
"167 212 OFFCURVE",
"187 195 CURVE",
"187 191 LINE",
"252 147 OFFCURVE",
"319 68 OFFCURVE",
"358 11 CURVE",
"358 9 LINE",
"192 9 LINE"
);
},
{
closed = 1;
nodes = (
"157 309 LINE",
"487 309 LINE",
"487 195 LINE",
"157 195 LINE"
);
},
{
closed = 1;
nodes = (
"-25 607 LINE",
"459 607 LINE",
"459 500 LINE",
"-25 500 LINE"
);
},
{
closed = 1;
nodes = (
"479 501 LINE",
"627 501 LINE",
"627 9 LINE",
"479 9 LINE"
);
},
{
closed = 1;
nodes = (
"336 607 LINE",
"727 607 LINE",
"727 500 LINE",
"336 500 LINE"
);
}
);
width = 687;
},
{
associatedMasterId = "632BC717-227E-41E7-B05B-9781150E6210";
background = {
paths = (
{
closed = 1;
nodes = (
"158 234 LINE",
"177 220 OFFCURVE",
"203 214 OFFCURVE",
"226 214 CURVE SMOOTH",
"324 214 OFFCURVE",
"358 260 OFFCURVE",
"358 362 CURVE SMOOTH",
"358 572 LINE",
"213 573 LINE",
"213 379 LINE SMOOTH",
"213 325 OFFCURVE",
"196 307 OFFCURVE",
"128 307 CURVE SMOOTH",
"76 307 LINE",
"76 191 LINE"
);
},
{
closed = 1;
nodes = (
"468 500 LINE",
"468 607 LINE",
"17 607 LINE",
"17 500 LINE"
);
},
{
closed = 1;
nodes = (
"400 11 LINE",
"347 89 OFFCURVE",
"258 184 OFFCURVE",
"175 236 CURVE",
"76 228 LINE",
"76 191 LINE",
"234 9 LINE",
"400 9 LINE"
);
}
);
};
layerId = "94C46903-46A0-452B-8134-C9E41C89EC55";
name = "Regular Apr 1 16, 15:57";
paths = (
{
closed = 1;
nodes = (
"532 185 LINE",
"532 303 LINE",
"152 303 LINE",
"152 185 LINE"
);
},
{
closed = 1;
nodes = (
"752 500 LINE",
"752 607 LINE",
"0 607 LINE",
"0 500 LINE"
);
},
{
closed = 1;
nodes = (
"652 9 LINE",
"652 501 LINE",
"504 501 LINE",
"504 9 LINE"
);
},
{
closed = 1;
nodes = (
"108 234 LINE",
"127 220 OFFCURVE",
"153 214 OFFCURVE",
"176 214 CURVE",
"304 303 LINE",
"304 305 LINE",
"332 325 OFFCURVE",
"351 362 OFFCURVE",
"351 408 CURVE SMOOTH",
"351 572 LINE",
"203 573 LINE",
"203 404 LINE SMOOTH",
"203 340 OFFCURVE",
"167 307 OFFCURVE",
"78 307 CURVE SMOOTH",
"26 307 LINE",
"26 191 LINE"
);
},
{
closed = 1;
nodes = (
"410 6 LINE",
"410 9 LINE",
"332 98 OFFCURVE",
"267 149 OFFCURVE",
"201 181 CURVE",
"201 185 LINE",
"125 236 LINE",
"26 228 LINE",
"26 191 LINE",
"224 6 LINE"
);
}
);
width = 717;
},
{
associatedMasterId = "632BC717-227E-41E7-B05B-9781150E6210";
background = {
paths = (
{
closed = 1;
nodes = (
"158 234 LINE",
"177 220 OFFCURVE",
"203 214 OFFCURVE",
"226 214 CURVE SMOOTH",
"324 214 OFFCURVE",
"358 260 OFFCURVE",
"358 362 CURVE SMOOTH",
"358 572 LINE",
"213 573 LINE",
"213 379 LINE SMOOTH",
"213 325 OFFCURVE",
"196 307 OFFCURVE",
"128 307 CURVE SMOOTH",
"76 307 LINE",
"76 191 LINE"
);
},
{
closed = 1;
nodes = (
"468 500 LINE",
"468 607 LINE",
"17 607 LINE",
"17 500 LINE"
);
},
{
closed = 1;
nodes = (
"400 11 LINE",
"347 89 OFFCURVE",
"258 184 OFFCURVE",
"175 236 CURVE",
"76 228 LINE",
"76 191 LINE",
"234 9 LINE",
"400 9 LINE"
);
}
);
};
layerId = "9EB56573-7C0E-4156-9E69-CA80E904D7CC";
name = "Regular Apr 1 16, 17:50";
paths = (
{
closed = 1;
nodes = (
"484 516 LINE",
"484 9 LINE",
"632 9 LINE",
"632 516 LINE"
);
},
{
closed = 1;
nodes = (
"173 516 LINE",
"173 382 LINE SMOOTH",
"173 335 OFFCURVE",
"159 307 OFFCURVE",
"91 307 CURVE SMOOTH",
"39 307 LINE",
"39 191 LINE",
"197 9 LINE",
"363 9 LINE",
"363 11 LINE",
"313 81 OFFCURVE",
"247 148 OFFCURVE",
"182 192 CURVE",
"182 195 LINE",
"500 195 LINE",
"500 316 LINE",
"280 316 LINE",
"279 318 LINE",
"308 346 OFFCURVE",
"321 375 OFFCURVE",
"321 422 CURVE SMOOTH",
"321 516 LINE"
);
},
{
closed = 1;
nodes = (
"732 500 LINE",
"732 607 LINE",
"-20 607 LINE",
"-20 500 LINE"
);
}
);
width = 697;
visible = 1;
}
);
rightMetricsKey = dvmAA;
unicode = 0938;
},
{
color = 5;
glyphname = dvHA;
lastChange = "2016-05-21 01:29:09 +0000";
layers = (
{
anchors = (
{
name = abvm.bindu;
position = "{468, 607}";
},
{
name = abvm.e;
position = "{469, 607}";
},
{
name = blwm.u;
position = "{323, -91}";
},
{
name = blwm.virama;
position = "{211, -71}";
}
);
background = {
paths = (
{
closed = 1;
nodes = (
"58 155 LINE",
"123 137 OFFCURVE",
"188 127 OFFCURVE",
"265 127 CURVE SMOOTH",
"341 127 OFFCURVE",
"349 134 OFFCURVE",
"349 166 CURVE SMOOTH",
"349 196 OFFCURVE",
"341 200 OFFCURVE",
"265 200 CURVE SMOOTH",
"224 200 LINE SMOOTH",
"106 200 OFFCURVE",
"60 226 OFFCURVE",
"60 331 CURVE SMOOTH",
"60 436 OFFCURVE",
"105 461 OFFCURVE",
"223 461 CURVE SMOOTH",
"461 461 LINE",
"461 354 LINE",
"241 354 LINE SMOOTH",
"210 354 OFFCURVE",
"201 353 OFFCURVE",
"201 325 CURVE SMOOTH",
"201 302 OFFCURVE",
"210 295 OFFCURVE",
"241 295 CURVE SMOOTH",
"292 295 LINE SMOOTH",
"446 295 OFFCURVE",
"490 271 OFFCURVE",
"490 161 CURVE SMOOTH",
"490 53 OFFCURVE",
"439 14 OFFCURVE",
"292 14 CURVE SMOOTH",
"203 14 OFFCURVE",
"125 25 OFFCURVE",
"53 42 CURVE",
"53 152 LINE"
);
}
);
};
layerId = "632BC717-227E-41E7-B05B-9781150E6210";
paths = (
{
closed = 1;
nodes = (
"109 -20 OFFCURVE",
"37 17 OFFCURVE",
"37 122 CURVE SMOOTH",
"37 199 OFFCURVE",
"68 226 OFFCURVE",
"122 236 CURVE",
"122 239 LINE",
"70 250 OFFCURVE",
"46 280 OFFCURVE",
"46 338 CURVE SMOOTH",
"46 410 OFFCURVE",
"81 449 OFFCURVE",
"203 449 CURVE SMOOTH",
"470 449 LINE",
"470 347 LINE",
"244 347 LINE SMOOTH",
"195 347 OFFCURVE",
"183 342 OFFCURVE",
"183 315 CURVE SMOOTH",
"183 288 OFFCURVE",
"195 284 OFFCURVE",
"264 284 CURVE",
"333 284 LINE",
"449 284 OFFCURVE",
"483 257 OFFCURVE",
"483 176 CURVE SMOOTH",
"483 144 LINE",
"341 144 LINE",
"341 152 LINE SMOOTH",
"341 180 OFFCURVE",
"338 185 OFFCURVE",
"249 185 CURVE SMOOTH",
"190 185 OFFCURVE",
"167 175 OFFCURVE",
"167 139 CURVE SMOOTH",
"167 101 OFFCURVE",
"196 90 OFFCURVE",
"301 90 CURVE SMOOTH",
"362 90 OFFCURVE",
"444 92 OFFCURVE",
"478 96 CURVE",
"480 95 LINE",
"480 -7 LINE",
"443 -14 OFFCURVE",
"367 -20 OFFCURVE",
"289 -20 CURVE SMOOTH"
);
},
{
closed = 1;
nodes = (
"-33 607 LINE",
"560 607 LINE",
"560 500 LINE",
"-33 500 LINE"
);
},
{
closed = 1;
nodes = (
"347 517 LINE",
"470 517 LINE",
"470 370 LINE",
"347 370 LINE"
);
}
);
width = 525;
}
);
unicode = 0939;
},
{
color = 5;
glyphname = dvLLA;
lastChange = "2016-05-21 00:55:03 +0000";
layers = (
{
anchors = (
{
name = blwm.u;
position = "{669, -71}";
}
);
layerId = "632BC717-227E-41E7-B05B-9781150E6210";
paths = (
{
closed = 1;
nodes = (
"372 10 OFFCURVE",
"408 29 OFFCURVE",
"431 81 CURVE",
"434 81 LINE",
"454 29 OFFCURVE",
"518 10 OFFCURVE",
"637 10 CURVE SMOOTH",
"801 10 OFFCURVE",
"860 51 OFFCURVE",
"860 214 CURVE SMOOTH",
"860 378 OFFCURVE",
"801 418 OFFCURVE",
"637 418 CURVE SMOOTH",
"518 418 OFFCURVE",
"457 389 OFFCURVE",
"434 337 CURVE",
"431 337 LINE",
"410 389 OFFCURVE",
"372 418 OFFCURVE",
"223 418 CURVE SMOOTH",
"89 418 OFFCURVE",
"20 378 OFFCURVE",
"20 214 CURVE SMOOTH",
"20 50 OFFCURVE",
"89 10 OFFCURVE",
"223 10 CURVE SMOOTH"
);
},
{
closed = 1;
nodes = (
"191 126 OFFCURVE",
"158 140 OFFCURVE",
"158 213 CURVE SMOOTH",
"158 288 OFFCURVE",
"191 300 OFFCURVE",
"269 300 CURVE SMOOTH",
"346 300 OFFCURVE",
"370 288 OFFCURVE",
"370 213 CURVE SMOOTH",
"370 140 OFFCURVE",
"346 126 OFFCURVE",
"269 126 CURVE SMOOTH"
);
},
{
closed = 1;
nodes = (
"910 500 LINE",
"910 607 LINE",
"-30 607 LINE",
"-30 500 LINE"
);
},
{
closed = 1;
nodes = (
"710 379 LINE",
"710 501 LINE",
"582 501 LINE",
"582 379 LINE"
);
},
{
closed = 1;
nodes = (
"542 126 OFFCURVE",
"509 140 OFFCURVE",
"509 213 CURVE SMOOTH",
"509 288 OFFCURVE",
"542 300 OFFCURVE",
"610 300 CURVE SMOOTH",
"697 300 OFFCURVE",
"721 288 OFFCURVE",
"721 213 CURVE SMOOTH",
"721 140 OFFCURVE",
"697 126 OFFCURVE",
"610 126 CURVE SMOOTH"
);
}
);
width = 880;
},
{
associatedMasterId = "632BC717-227E-41E7-B05B-9781150E6210";
layerId = "81509BE3-3AD1-44BB-A422-5009E5097C53";
name = "Regular Mar 11 16, 12:24";
paths = (
{
closed = 1;
nodes = (
"380 501 LINE",
"498 501 LINE",
"498 379 LINE",
"380 379 LINE"
);
},
{
closed = 1;
nodes = (
"-40 608 LINE",
"628 608 LINE",
"628 501 LINE",
"-40 501 LINE"
);
},
{
closed = 1;
nodes = (
"-31 386 OFFCURVE",
"-11 412 OFFCURVE",
"138 412 CURVE SMOOTH",
"216 412 OFFCURVE",
"284 399 OFFCURVE",
"285 330 CURVE",
"290 330 LINE",
"289 398 OFFCURVE",
"333 412 OFFCURVE",
"447 412 CURVE SMOOTH",
"607 412 OFFCURVE",
"618 386 OFFCURVE",
"618 229 CURVE SMOOTH",
"618 78 OFFCURVE",
"607 52 OFFCURVE",
"447 52 CURVE SMOOTH",
"353 52 OFFCURVE",
"290 67 OFFCURVE",
"290 122 CURVE",
"285 122 LINE",
"285 67 OFFCURVE",
"226 52 OFFCURVE",
"138 52 CURVE SMOOTH",
"-11 52 OFFCURVE",
"-31 78 OFFCURVE",
"-31 229 CURVE SMOOTH"
);
},
{
closed = 1;
nodes = (
"75 168 OFFCURVE",
"90 159 OFFCURVE",
"148 159 CURVE SMOOTH",
"219 159 OFFCURVE",
"234 168 OFFCURVE",
"234 229 CURVE SMOOTH",
"234 295 OFFCURVE",
"219 305 OFFCURVE",
"148 305 CURVE SMOOTH",
"90 305 OFFCURVE",
"75 295 OFFCURVE",
"75 229 CURVE SMOOTH"
);
},
{
closed = 1;
nodes = (
"356 168 OFFCURVE",
"371 159 OFFCURVE",
"437 159 CURVE SMOOTH",
"499 159 OFFCURVE",
"515 168 OFFCURVE",
"515 229 CURVE SMOOTH",
"515 295 OFFCURVE",
"499 305 OFFCURVE",
"437 305 CURVE SMOOTH",
"371 305 OFFCURVE",
"356 295 OFFCURVE",
"356 229 CURVE SMOOTH"
);
},
{
closed = 1;
nodes = (
"-566 450 OFFCURVE",
"-589 443 OFFCURVE",
"-623 398 CURVE",
"-659 446 OFFCURVE",
"-676 453 OFFCURVE",
"-753 453 CURVE SMOOTH",
"-913 453 OFFCURVE",
"-936 431 OFFCURVE",
"-936 279 CURVE SMOOTH",
"-936 212 LINE SMOOTH",
"-936 58 OFFCURVE",
"-913 35 OFFCURVE",
"-753 35 CURVE SMOOTH",
"-677 35 OFFCURVE",
"-661 42 OFFCURVE",
"-623 89 CURVE",
"-584 42 OFFCURVE",
"-568 35 OFFCURVE",
"-494 35 CURVE SMOOTH",
"-338 35 OFFCURVE",
"-315 58 OFFCURVE",
"-315 212 CURVE SMOOTH",
"-315 276 LINE SMOOTH",
"-315 428 OFFCURVE",
"-331 450 OFFCURVE",
"-445 450 CURVE SMOOTH"
);
},
{
closed = 1;
nodes = (
"-807 275 LINE SMOOTH",
"-807 326 OFFCURVE",
"-799 334 OFFCURVE",
"-748 334 CURVE SMOOTH",
"-696 334 OFFCURVE",
"-688 326 OFFCURVE",
"-688 275 CURVE SMOOTH",
"-688 215 LINE SMOOTH",
"-688 163 OFFCURVE",
"-696 155 OFFCURVE",
"-748 155 CURVE SMOOTH",
"-799 155 OFFCURVE",
"-807 163 OFFCURVE",
"-807 215 CURVE SMOOTH"
);
},
{
closed = 1;
nodes = (
"-558 275 LINE SMOOTH",
"-558 326 OFFCURVE",
"-549 334 OFFCURVE",
"-498 334 CURVE SMOOTH",
"-447 334 OFFCURVE",
"-439 326 OFFCURVE",
"-439 275 CURVE SMOOTH",
"-439 215 LINE SMOOTH",
"-439 163 OFFCURVE",
"-446 155 OFFCURVE",
"-497 155 CURVE SMOOTH",
"-549 155 OFFCURVE",
"-558 163 OFFCURVE",
"-558 215 CURVE SMOOTH"
);
}
);
width = 600;
},
{
associatedMasterId = "632BC717-227E-41E7-B05B-9781150E6210";
background = {
paths = (
{
closed = 1;
nodes = (
"156 125 OFFCURVE",
"144 137 OFFCURVE",
"144 185 CURVE SMOOTH",
"144 245 LINE SMOOTH",
"144 292 OFFCURVE",
"156 304 OFFCURVE",
"203 304 CURVE SMOOTH",
"251 304 OFFCURVE",
"263 292 OFFCURVE",
"263 245 CURVE SMOOTH",
"263 185 LINE SMOOTH",
"263 137 OFFCURVE",
"251 125 OFFCURVE",
"203 125 CURVE SMOOTH"
);
},
{
closed = 1;
nodes = (
"405 125 OFFCURVE",
"393 137 OFFCURVE",
"393 185 CURVE SMOOTH",
"393 245 LINE SMOOTH",
"393 292 OFFCURVE",
"405 304 OFFCURVE",
"453 304 CURVE SMOOTH",
"500 304 OFFCURVE",
"512 292 OFFCURVE",
"512 245 CURVE SMOOTH",
"512 185 LINE SMOOTH",
"512 137 OFFCURVE",
"500 125 OFFCURVE",
"454 125 CURVE SMOOTH"
);
},
{
closed = 1;
nodes = (
"687 500 LINE",
"687 607 LINE",
"-31 607 LINE",
"-31 500 LINE"
);
},
{
closed = 1;
nodes = (
"537 379 LINE",
"537 501 LINE",
"419 501 LINE",
"419 379 LINE"
);
},
{
closed = 1;
nodes = (
"15 40 OFFCURVE",
"52 5 OFFCURVE",
"198 5 CURVE SMOOTH",
"267 5 OFFCURVE",
"293 16 OFFCURVE",
"328 59 CURVE",
"364 16 OFFCURVE",
"390 5 OFFCURVE",
"457 5 CURVE SMOOTH",
"600 5 OFFCURVE",
"636 40 OFFCURVE",
"636 182 CURVE SMOOTH",
"636 246 LINE SMOOTH",
"636 385 OFFCURVE",
"610 420 OFFCURVE",
"506 420 CURVE SMOOTH",
"396 420 OFFCURVE",
"360 410 OFFCURVE",
"328 368 CURVE",
"295 412 OFFCURVE",
"269 423 OFFCURVE",
"198 423 CURVE SMOOTH",
"52 423 OFFCURVE",
"15 388 OFFCURVE",
"15 249 CURVE SMOOTH",
"15 182 LINE SMOOTH"
);
}
);
};
layerId = "7CBA7509-383E-4097-BE34-9404D36EB134";
name = "Regular Mar 16 16, 20:17";
paths = (
{
closed = 1;
nodes = (
"355 10 OFFCURVE",
"389 33 OFFCURVE",
"389 91 CURVE",
"392 91 LINE",
"392 33 OFFCURVE",
"430 10 OFFCURVE",
"576 10 CURVE SMOOTH",
"721 10 OFFCURVE",
"753 40 OFFCURVE",
"753 214 CURVE SMOOTH",
"753 388 OFFCURVE",
"721 418 OFFCURVE",
"576 418 CURVE SMOOTH",
"430 418 OFFCURVE",
"394 392 OFFCURVE",
"394 322 CURVE",
"391 322 LINE",
"391 392 OFFCURVE",
"355 418 OFFCURVE",
"209 418 CURVE SMOOTH",
"64 418 OFFCURVE",
"32 388 OFFCURVE",
"32 214 CURVE SMOOTH",
"32 40 OFFCURVE",
"64 10 OFFCURVE",
"209 10 CURVE SMOOTH"
);
},
{
closed = 1;
nodes = (
"174 134 OFFCURVE",
"167 146 OFFCURVE",
"167 215 CURVE SMOOTH",
"167 276 OFFCURVE",
"178 295 OFFCURVE",
"240 295 CURVE SMOOTH",
"307 295 OFFCURVE",
"318 276 OFFCURVE",
"318 215 CURVE SMOOTH",
"318 148 OFFCURVE",
"313 134 OFFCURVE",
"240 134 CURVE SMOOTH"
);
},
{
closed = 1;
nodes = (
"474 134 OFFCURVE",
"467 145 OFFCURVE",
"467 215 CURVE SMOOTH",
"467 276 OFFCURVE",
"478 295 OFFCURVE",
"543 295 CURVE SMOOTH",
"607 295 OFFCURVE",
"618 276 OFFCURVE",
"618 215 CURVE SMOOTH",
"618 149 OFFCURVE",
"613 134 OFFCURVE",
"544 134 CURVE SMOOTH"
);
},
{
closed = 1;
nodes = (
"818 500 LINE",
"818 607 LINE",
"-20 607 LINE",
"-20 500 LINE"
);
},
{
closed = 1;
nodes = (
"644 379 LINE",
"644 501 LINE",
"516 501 LINE",
"516 379 LINE"
);
}
);
width = 768;
}
);
unicode = 0933;
},
{
color = 6;
glyphname = dvK_SSA;
lastChange = "2016-05-19 21:47:13 +0000";
layers = (
{
layerId = "632BC717-227E-41E7-B05B-9781150E6210";
paths = (
{
closed = 1;
nodes = (
"302 262 LINE SMOOTH",
"229 262 OFFCURVE",
"212 250 OFFCURVE",
"212 203 CURVE SMOOTH",
"212 159 OFFCURVE",
"225 146 OFFCURVE",
"294 146 CURVE SMOOTH",
"370 146 OFFCURVE",
"386 156 OFFCURVE",
"386 179 CURVE SMOOTH",
"386 205 LINE",
"521 205 LINE",
"521 -26 LINE",
"378 -26 LINE",
"377 2 OFFCURVE",
"377 19 OFFCURVE",
"381 47 CURVE",
"379 48 LINE",
"342 33 OFFCURVE",
"307 25 OFFCURVE",
"250 25 CURVE SMOOTH",
"126 25 OFFCURVE",
"58 68 OFFCURVE",
"58 185 CURVE SMOOTH",
"58 269 OFFCURVE",
"102 308 OFFCURVE",
"153 317 CURVE",
"153 320 LINE",
"108 339 OFFCURVE",
"78 377 OFFCURVE",
"78 457 CURVE SMOOTH",
"78 560 OFFCURVE",
"148 613 OFFCURVE",
"299 613 CURVE SMOOTH",
"447 613 OFFCURVE",
"519 561 OFFCURVE",
"519 468 CURVE SMOOTH",
"519 420 OFFCURVE",
"509 395 OFFCURVE",
"488 374 CURVE",
"488 372 LINE",
"667 372 LINE",
"667 262 LINE"
);
},
{
closed = 1;
nodes = (
"363 502 OFFCURVE",
"300 502 CURVE SMOOTH",
"244 502 OFFCURVE",
"221 480 OFFCURVE",
"221 445 CURVE SMOOTH",
"221 405 OFFCURVE",
"244 390 OFFCURVE",
"300 390 CURVE SMOOTH",
"363 390 OFFCURVE",
"379 405 OFFCURVE",
"379 445 CURVE SMOOTH",
"379 480 OFFCURVE"
);
},
{
closed = 1;
nodes = (
"629 501 LINE",
"777 501 LINE",
"777 9 LINE",
"629 9 LINE"
);
},
{
closed = 1;
nodes = (
"629 500 LINE",
"629 607 LINE",
"877 607 LINE",
"877 500 LINE"
);
}
);
width = 837;
}
);
rightMetricsKey = dvmAA;
},
{
color = 6;
glyphname = dvJ_NYA;
lastChange = "2016-05-26 03:34:52 +0000";
layers = (
{
layerId = "632BC717-227E-41E7-B05B-9781150E6210";
paths = (
{
closed = 1;
nodes = (
"570 501 LINE",
"719 501 LINE",
"719 9 LINE",
"570 9 LINE"
);
},
{
closed = 1;
nodes = (
"-30 607 LINE",
"819 607 LINE",
"819 500 LINE",
"-30 500 LINE"
);
},
{
closed = 1;
nodes = (
"654 340 LINE",
"220 340 LINE SMOOTH",
"197 340 OFFCURVE",
"182 336 OFFCURVE",
"182 311 CURVE SMOOTH",
"182 286 OFFCURVE",
"197 282 OFFCURVE",
"220 282 CURVE SMOOTH",
"312 282 LINE SMOOTH",
"448 282 OFFCURVE",
"496 241 OFFCURVE",
"496 141 CURVE SMOOTH",
"496 41 OFFCURVE",
"435 0 OFFCURVE",
"284 0 CURVE SMOOTH",
"228 0 OFFCURVE",
"169 7 OFFCURVE",
"141 19 CURVE",
"138 16 LINE",
"148 -12 OFFCURVE",
"150 -36 OFFCURVE",
"150 -74 CURVE",
"25 -74 LINE",
"25 157 LINE",
"128 157 LINE",
"128 149 LINE SMOOTH",
"128 120 OFFCURVE",
"165 113 OFFCURVE",
"242 113 CURVE SMOOTH",
"331 113 OFFCURVE",
"356 120 OFFCURVE",
"356 149 CURVE SMOOTH",
"356 178 OFFCURVE",
"343 185 OFFCURVE",
"269 185 CURVE SMOOTH",
"204 185 LINE SMOOTH",
"87 185 OFFCURVE",
"42 222 OFFCURVE",
"42 318 CURVE SMOOTH",
"42 413 OFFCURVE",
"94 447 OFFCURVE",
"216 447 CURVE SMOOTH",
"654 447 LINE"
);
}
);
width = 779;
},
{
associatedMasterId = "632BC717-227E-41E7-B05B-9781150E6210";
layerId = "733168FC-E11C-4D81-A653-14ABF47409F1";
name = "Regular Mar 16 16, 18:21";
paths = (
{
closed = 1;
nodes = (
"570 501 LINE",
"719 501 LINE",
"719 9 LINE",
"570 9 LINE"
);
},
{
closed = 1;
nodes = (
"600 349 LINE",
"216 349 LINE SMOOTH",
"195 349 OFFCURVE",
"188 343 OFFCURVE",
"188 321 CURVE SMOOTH",
"188 300 OFFCURVE",
"195 294 OFFCURVE",
"216 294 CURVE SMOOTH",
"289 294 LINE SMOOTH",
"432 294 OFFCURVE",
"495 278 OFFCURVE",
"495 156 CURVE SMOOTH",
"495 34 OFFCURVE",
"433 9 OFFCURVE",
"289 9 CURVE SMOOTH",
"215 9 OFFCURVE",
"166 19 OFFCURVE",
"143 39 CURVE",
"138 35 LINE",
"166 -3 OFFCURVE",
"170 -22 OFFCURVE",
"170 -82 CURVE",
"24 -82 LINE",
"24 167 LINE",
"140 167 LINE",
"140 143 LINE SMOOTH",
"140 132 OFFCURVE",
"146 126 OFFCURVE",
"162 123 CURVE SMOOTH",
"180 120 OFFCURVE",
"210 117 OFFCURVE",
"268 117 CURVE SMOOTH",
"315 117 OFFCURVE",
"352 120 OFFCURVE",
"352 160 CURVE SMOOTH",
"352 200 OFFCURVE",
"317 198 OFFCURVE",
"243 198 CURVE SMOOTH",
"186 198 LINE SMOOTH",
"88 198 OFFCURVE",
"48 223 OFFCURVE",
"48 321 CURVE SMOOTH",
"48 416 OFFCURVE",
"85 446 OFFCURVE",
"189 446 CURVE SMOOTH",
"600 446 LINE"
);
},
{
closed = 1;
nodes = (
"-30 607 LINE",
"819 607 LINE",
"819 500 LINE",
"-30 500 LINE"
);
}
);
width = 769;
},
{
associatedMasterId = "632BC717-227E-41E7-B05B-9781150E6210";
layerId = "9C20C530-6505-4811-B132-7F87F80BA05C";
name = "Bold May 26 16, 09:01";
paths = (
{
closed = 1;
nodes = (
"570 501 LINE",
"719 501 LINE",
"719 9 LINE",
"570 9 LINE"
);
},
{
closed = 1;
nodes = (
"600 349 LINE",
"226 349 LINE SMOOTH",
"207 349 OFFCURVE",
"198 343 OFFCURVE",
"198 321 CURVE SMOOTH",
"198 300 OFFCURVE",
"207 294 OFFCURVE",
"226 294 CURVE SMOOTH",
"289 294 LINE SMOOTH",
"432 294 OFFCURVE",
"501 278 OFFCURVE",
"501 156 CURVE SMOOTH",
"501 34 OFFCURVE",
"433 9 OFFCURVE",
"289 9 CURVE SMOOTH",
"215 9 OFFCURVE",
"178 17 OFFCURVE",
"144 34 CURVE",
"141 30 LINE",
"156 9 OFFCURVE",
"166 -22 OFFCURVE",
"170 -82 CURVE",
"24 -82 LINE",
"24 167 LINE",
"140 167 LINE",
"140 143 LINE SMOOTH",
"140 132 OFFCURVE",
"146 126 OFFCURVE",
"162 123 CURVE SMOOTH",
"180 120 OFFCURVE",
"210 117 OFFCURVE",
"268 117 CURVE SMOOTH",
"305 117 OFFCURVE",
"342 120 OFFCURVE",
"342 160 CURVE SMOOTH",
"342 200 OFFCURVE",
"307 198 OFFCURVE",
"243 198 CURVE SMOOTH",
"186 198 LINE SMOOTH",
"88 198 OFFCURVE",
"42 223 OFFCURVE",
"42 321 CURVE SMOOTH",
"42 416 OFFCURVE",
"85 446 OFFCURVE",
"189 446 CURVE SMOOTH",
"600 446 LINE"
);
},
{
closed = 1;
nodes = (
"-30 607 LINE",
"819 607 LINE",
"819 500 LINE",
"-30 500 LINE"
);
}
);
width = 779;
visible = 1;
}
);
rightMetricsKey = dvmAA;
},
{
color = 6;
glyphname = dvKxA;
lastChange = "2016-05-26 02:15:55 +0000";
layers = (
{
components = (
{
name = dvKA;
}
);
layerId = "632BC717-227E-41E7-B05B-9781150E6210";
paths = (
{
closed = 1;
nodes = (
"235.738 -17.651 OFFCURVE",
"236.709 -32.216 OFFCURVE",
"236.709 -47.752 CURVE SMOOTH",
"236.709 -63.288 OFFCURVE",
"235.738 -78.824 OFFCURVE",
"233.796 -99.215 CURVE",
"208.55 -104.07 OFFCURVE",
"184.275 -106.983 OFFCURVE",
"160 -106.983 CURVE SMOOTH",
"136.696 -106.983 OFFCURVE",
"113.392 -104.07 OFFCURVE",
"89.117 -99.215 CURVE",
"86.204 -79.795 OFFCURVE",
"85.233 -64.259 OFFCURVE",
"85.233 -48.723 CURVE SMOOTH",
"85.233 -34.158 OFFCURVE",
"86.204 -17.651 OFFCURVE",
"89.117 3.711 CURVE",
"113.392 8.566 OFFCURVE",
"137.667 10.508 OFFCURVE",
"161.942 10.508 CURVE SMOOTH",
"185.246 10.508 OFFCURVE",
"209.521 8.566 OFFCURVE",
"233.796 3.711 CURVE"
);
}
);
width = 920;
}
);
leftMetricsKey = dvKA;
rightMetricsKey = dvKA;
},
{
color = 6;
glyphname = dvKHxA;
lastChange = "2016-05-26 02:13:58 +0000";
layers = (
{
components = (
{
name = dvKHA;
}
);
layerId = "632BC717-227E-41E7-B05B-9781150E6210";
paths = (
{
closed = 1;
nodes = (
"226.738 -78.651 OFFCURVE",
"227.709 -93.216 OFFCURVE",
"227.709 -108.752 CURVE SMOOTH",
"227.709 -124.288 OFFCURVE",
"226.738 -139.824 OFFCURVE",
"224.796 -160.215 CURVE",
"199.55 -165.07 OFFCURVE",
"175.275 -167.983 OFFCURVE",
"151 -167.983 CURVE SMOOTH",
"127.696 -167.983 OFFCURVE",
"104.392 -165.07 OFFCURVE",
"80.117 -160.215 CURVE",
"77.204 -140.795 OFFCURVE",
"76.233 -125.259 OFFCURVE",
"76.233 -109.723 CURVE SMOOTH",
"76.233 -95.158 OFFCURVE",
"77.204 -78.651 OFFCURVE",
"80.117 -57.289 CURVE",
"104.392 -52.434 OFFCURVE",
"128.667 -50.492 OFFCURVE",
"152.942 -50.492 CURVE SMOOTH",
"176.246 -50.492 OFFCURVE",
"200.521 -52.434 OFFCURVE",
"224.796 -57.289 CURVE"
);
}
);
width = 896;
}
);
leftMetricsKey = dvKHA;
rightMetricsKey = dvKHA;
},
{
color = 6;
glyphname = dvGxA;
lastChange = "2016-05-26 02:14:02 +0000";
layers = (
{
components = (
{
name = dvGA;
}
);
layerId = "632BC717-227E-41E7-B05B-9781150E6210";
paths = (
{
closed = 1;
nodes = (
"196 41 OFFCURVE",
"197 26 OFFCURVE",
"197 10 CURVE SMOOTH",
"197 -6 OFFCURVE",
"196 -22 OFFCURVE",
"194 -43 CURVE",
"168 -48 OFFCURVE",
"143 -51 OFFCURVE",
"118 -51 CURVE SMOOTH",
"94 -51 OFFCURVE",
"70 -48 OFFCURVE",
"45 -43 CURVE",
"42 -23 OFFCURVE",
"41 -7 OFFCURVE",
"41 9 CURVE SMOOTH",
"41 24 OFFCURVE",
"42 41 OFFCURVE",
"45 63 CURVE",
"70 68 OFFCURVE",
"95 70 OFFCURVE",
"120 70 CURVE SMOOTH",
"144 70 OFFCURVE",
"169 68 OFFCURVE",
"194 63 CURVE"
);
}
);
width = 569;
}
);
leftMetricsKey = dvGA;
rightMetricsKey = dvGA;
},
{
color = 6;
glyphname = dvJxA;
lastChange = "2016-05-26 02:14:06 +0000";
layers = (
{
components = (
{
name = dvJA;
}
);
layerId = "632BC717-227E-41E7-B05B-9781150E6210";
paths = (
{
closed = 1;
nodes = (
"158 -81 OFFCURVE",
"159 -96 OFFCURVE",
"159 -112 CURVE SMOOTH",
"159 -128 OFFCURVE",
"158 -144 OFFCURVE",
"156 -165 CURVE",
"130 -170 OFFCURVE",
"105 -173 OFFCURVE",
"80 -173 CURVE SMOOTH",
"56 -173 OFFCURVE",
"32 -170 OFFCURVE",
"7 -165 CURVE",
"4 -145 OFFCURVE",
"3 -129 OFFCURVE",
"3 -113 CURVE SMOOTH",
"3 -98 OFFCURVE",
"4 -81 OFFCURVE",
"7 -59 CURVE",
"32 -54 OFFCURVE",
"57 -52 OFFCURVE",
"82 -52 CURVE SMOOTH",
"106 -52 OFFCURVE",
"131 -54 OFFCURVE",
"156 -59 CURVE"
);
}
);
width = 673;
}
);
leftMetricsKey = dvJA;
rightMetricsKey = dvJA;
},
{
color = 6;
glyphname = dvDDxA;
lastChange = "2016-05-26 02:14:17 +0000";
layers = (
{
anchors = (
{
name = abvm.bindu;
position = "{441, 607}";
},
{
name = abvm.e;
position = "{439, 607}";
},
{
name = blwm.u;
position = "{264, -243}";
},
{
name = blwm.virama;
position = "{184, -223}";
}
);
components = (
{
name = dvDDA;
}
);
layerId = "632BC717-227E-41E7-B05B-9781150E6210";
paths = (
{
closed = 1;
nodes = (
"334 -81 OFFCURVE",
"335 -96 OFFCURVE",
"335 -112 CURVE SMOOTH",
"335 -128 OFFCURVE",
"334 -144 OFFCURVE",
"332 -165 CURVE",
"306 -170 OFFCURVE",
"281 -173 OFFCURVE",
"256 -173 CURVE SMOOTH",
"232 -173 OFFCURVE",
"208 -170 OFFCURVE",
"183 -165 CURVE",
"180 -145 OFFCURVE",
"179 -129 OFFCURVE",
"179 -113 CURVE SMOOTH",
"179 -98 OFFCURVE",
"180 -81 OFFCURVE",
"183 -59 CURVE",
"208 -54 OFFCURVE",
"233 -52 OFFCURVE",
"258 -52 CURVE SMOOTH",
"282 -52 OFFCURVE",
"307 -54 OFFCURVE",
"332 -59 CURVE"
);
}
);
width = 498;
}
);
leftMetricsKey = dvDDA;
rightMetricsKey = dvDDA;
},
{
color = 6;
glyphname = dvDDHxA;
lastChange = "2016-05-26 02:14:14 +0000";
layers = (
{
anchors = (
{
name = abvm.bindu;
position = "{471, 607}";
},
{
name = abvm.e;
position = "{469, 607}";
},
{
name = blwm.u;
position = "{294, -243}";
},
{
name = blwm.virama;
position = "{214, -223}";
}
);
components = (
{
name = dvDDHA;
}
);
layerId = "632BC717-227E-41E7-B05B-9781150E6210";
paths = (
{
closed = 1;
nodes = (
"355 -81 OFFCURVE",
"356 -96 OFFCURVE",
"356 -112 CURVE SMOOTH",
"356 -128 OFFCURVE",
"355 -144 OFFCURVE",
"353 -165 CURVE",
"327 -170 OFFCURVE",
"302 -173 OFFCURVE",
"277 -173 CURVE SMOOTH",
"253 -173 OFFCURVE",
"229 -170 OFFCURVE",
"204 -165 CURVE",
"201 -145 OFFCURVE",
"200 -129 OFFCURVE",
"200 -113 CURVE SMOOTH",
"200 -98 OFFCURVE",
"201 -81 OFFCURVE",
"204 -59 CURVE",
"229 -54 OFFCURVE",
"254 -52 OFFCURVE",
"279 -52 CURVE SMOOTH",
"303 -52 OFFCURVE",
"328 -54 OFFCURVE",
"353 -59 CURVE"
);
}
);
width = 542;
}
);
leftMetricsKey = dvDDHA;
rightMetricsKey = dvDDHA;
},
{
color = 6;
glyphname = dvPHxA;
lastChange = "2016-05-26 16:22:50 +0000";
layers = (
{
components = (
{
name = dvPHA;
}
);
layerId = "632BC717-227E-41E7-B05B-9781150E6210";
paths = (
{
closed = 1;
nodes = (
"243 13 OFFCURVE",
"244 -2 OFFCURVE",
"244 -18 CURVE SMOOTH",
"244 -34 OFFCURVE",
"243 -50 OFFCURVE",
"241 -71 CURVE",
"215 -76 OFFCURVE",
"190 -79 OFFCURVE",
"165 -79 CURVE SMOOTH",
"141 -79 OFFCURVE",
"117 -76 OFFCURVE",
"92 -71 CURVE",
"89 -51 OFFCURVE",
"88 -35 OFFCURVE",
"88 -19 CURVE SMOOTH",
"88 -4 OFFCURVE",
"89 13 OFFCURVE",
"92 35 CURVE",
"117 40 OFFCURVE",
"142 42 OFFCURVE",
"167 42 CURVE SMOOTH",
"191 42 OFFCURVE",
"216 40 OFFCURVE",
"241 35 CURVE"
);
}
);
width = 916;
}
);
leftMetricsKey = dvPHA;
rightMetricsKey = dvPHA;
},
{
color = 6;
glyphname = dvRxA;
lastChange = "2016-05-26 02:14:28 +0000";
layers = (
{
components = (
{
name = dvRA;
}
);
layerId = "632BC717-227E-41E7-B05B-9781150E6210";
paths = (
{
closed = 1;
nodes = (
"140 -15 OFFCURVE",
"141 -30 OFFCURVE",
"141 -46 CURVE SMOOTH",
"141 -62 OFFCURVE",
"140 -78 OFFCURVE",
"138 -99 CURVE",
"112 -104 OFFCURVE",
"87 -107 OFFCURVE",
"62 -107 CURVE SMOOTH",
"38 -107 OFFCURVE",
"14 -104 OFFCURVE",
"-11 -99 CURVE",
"-14 -79 OFFCURVE",
"-15 -63 OFFCURVE",
"-15 -47 CURVE SMOOTH",
"-15 -32 OFFCURVE",
"-14 -15 OFFCURVE",
"-11 7 CURVE",
"14 12 OFFCURVE",
"39 14 OFFCURVE",
"64 14 CURVE SMOOTH",
"88 14 OFFCURVE",
"113 12 OFFCURVE",
"138 7 CURVE"
);
}
);
width = 411;
}
);
},
{
color = 7;
glyphname = dvAnusvara;
lastChange = "2016-05-21 01:05:22 +0000";
layers = (
{
anchors = (
{
name = _abvm.bindu;
position = "{-57, 609}";
}
);
layerId = "632BC717-227E-41E7-B05B-9781150E6210";
paths = (
{
closed = 1;
nodes = (
"-55 750 OFFCURVE",
"-54 735 OFFCURVE",
"-54 719 CURVE SMOOTH",
"-54 703 OFFCURVE",
"-55 687 OFFCURVE",
"-57 666 CURVE",
"-83 661 OFFCURVE",
"-108 658 OFFCURVE",
"-133 658 CURVE SMOOTH",
"-157 658 OFFCURVE",
"-181 661 OFFCURVE",
"-206 666 CURVE",
"-209 686 OFFCURVE",
"-210 702 OFFCURVE",
"-210 718 CURVE SMOOTH",
"-210 733 OFFCURVE",
"-209 750 OFFCURVE",
"-206 772 CURVE",
"-181 777 OFFCURVE",
"-156 779 OFFCURVE",
"-131 779 CURVE SMOOTH",
"-107 779 OFFCURVE",
"-82 777 OFFCURVE",
"-57 772 CURVE"
);
}
);
width = 0;
}
);
unicode = 0902;
},
{
color = 7;
glyphname = dvCandrabindu;
lastChange = "2016-05-21 02:15:18 +0000";
layers = (
{
anchors = (
{
name = _abvm.bindu;
position = "{-66, 607}";
}
);
layerId = "632BC717-227E-41E7-B05B-9781150E6210";
paths = (
{
closed = 1;
nodes = (
"-55 941 OFFCURVE",
"-54 926 OFFCURVE",
"-54 910 CURVE SMOOTH",
"-54 894 OFFCURVE",
"-55 878 OFFCURVE",
"-57 857 CURVE",
"-83 852 OFFCURVE",
"-108 849 OFFCURVE",
"-133 849 CURVE SMOOTH",
"-157 849 OFFCURVE",
"-181 852 OFFCURVE",
"-206 857 CURVE",
"-209 877 OFFCURVE",
"-210 893 OFFCURVE",
"-210 909 CURVE SMOOTH",
"-210 924 OFFCURVE",
"-209 941 OFFCURVE",
"-206 963 CURVE",
"-181 968 OFFCURVE",
"-156 970 OFFCURVE",
"-131 970 CURVE SMOOTH",
"-107 970 OFFCURVE",
"-82 968 OFFCURVE",
"-57 963 CURVE"
);
},
{
closed = 1;
nodes = (
"78 837 LINE",
"78 704 OFFCURVE",
"45 674 OFFCURVE",
"-131 674 CURVE SMOOTH",
"-318 674 OFFCURVE",
"-344 704 OFFCURVE",
"-344 837 CURVE",
"-214 837 LINE",
"-214 789 OFFCURVE",
"-206 781 OFFCURVE",
"-131 780 CURVE SMOOTH",
"-56 779 OFFCURVE",
"-51 789 OFFCURVE",
"-51 837 CURVE"
);
}
);
width = 0;
}
);
unicode = 0901;
},
{
color = 7;
glyphname = dvVisarga;
lastChange = "2016-05-25 19:35:13 +0000";
layers = (
{
layerId = "632BC717-227E-41E7-B05B-9781150E6210";
paths = (
{
closed = 1;
nodes = (
"173 475 OFFCURVE",
"174 461 OFFCURVE",
"174 444 CURVE SMOOTH",
"174 428 OFFCURVE",
"173 412 OFFCURVE",
"171 391 CURVE",
"145 386 OFFCURVE",
"120 383 OFFCURVE",
"95 383 CURVE SMOOTH",
"71 383 OFFCURVE",
"47 386 OFFCURVE",
"21 391 CURVE",
"18 411 OFFCURVE",
"18 427 OFFCURVE",
"18 443 CURVE SMOOTH",
"18 458 OFFCURVE",
"18 475 OFFCURVE",
"21 497 CURVE",
"47 502 OFFCURVE",
"72 504 OFFCURVE",
"97 504 CURVE SMOOTH",
"121 504 OFFCURVE",
"146 502 OFFCURVE",
"171 497 CURVE"
);
},
{
closed = 1;
nodes = (
"173 185 OFFCURVE",
"174 171 OFFCURVE",
"174 154 CURVE SMOOTH",
"174 139 OFFCURVE",
"173 122 OFFCURVE",
"171 101 CURVE",
"145 96 OFFCURVE",
"120 93 OFFCURVE",
"95 93 CURVE SMOOTH",
"71 93 OFFCURVE",
"47 96 OFFCURVE",
"22 101 CURVE",
"18 121 OFFCURVE",
"18 137 OFFCURVE",
"18 153 CURVE SMOOTH",
"18 169 OFFCURVE",
"18 185 OFFCURVE",
"22 208 CURVE",
"47 212 OFFCURVE",
"72 214 OFFCURVE",
"97 214 CURVE SMOOTH",
"121 214 OFFCURVE",
"146 212 OFFCURVE",
"171 208 CURVE"
);
}
);
width = 192;
}
);
unicode = 0903;
},
{
color = 6;
glyphname = dvAvagraha;
lastChange = "2016-05-23 03:05:01 +0000";
layers = (
{
layerId = "632BC717-227E-41E7-B05B-9781150E6210";
paths = (
{
closed = 1;
nodes = (
"476 155 CURVE SMOOTH",
"476 245 OFFCURVE",
"439 280 OFFCURVE",
"380 317 CURVE SMOOTH",
"249 399 LINE SMOOTH",
"209 424 OFFCURVE",
"195 442 OFFCURVE",
"195 460 CURVE SMOOTH",
"195 483 OFFCURVE",
"201 491 OFFCURVE",
"247 491 CURVE SMOOTH",
"462 491 LINE",
"462 608 LINE",
"248 608 LINE SMOOTH",
"95 608 OFFCURVE",
"47 570 OFFCURVE",
"47 467 CURVE SMOOTH",
"47 404 OFFCURVE",
"80 353 OFFCURVE",
"136 318 CURVE SMOOTH",
"236 256 LINE SMOOTH",
"284 226 OFFCURVE",
"327 206 OFFCURVE",
"327 175 CURVE SMOOTH",
"327 133 OFFCURVE",
"308 119 OFFCURVE",
"248 119 CURVE SMOOTH",
"182 119 OFFCURVE",
"168 133 OFFCURVE",
"168 175 CURVE SMOOTH",
"168 199 LINE",
"20 199 LINE",
"20 155 LINE SMOOTH",
"20 46 OFFCURVE",
"78 2 OFFCURVE",
"248 2 CURVE SMOOTH",
"422 2 OFFCURVE",
"476 43 OFFCURVE"
);
}
);
width = 511;
}
);
unicode = 093D;
},
{
color = 7;
glyphname = dvVirama;
lastChange = "2016-05-21 02:05:29 +0000";
layers = (
{
anchors = (
{
name = _blwm.virama;
position = "{-209, -51}";
}
);
layerId = "632BC717-227E-41E7-B05B-9781150E6210";
paths = (
{
closed = 1;
nodes = (
"-209 -51 LINE",
"-71 -51 LINE",
"-8 -87 OFFCURVE",
"52 -129 OFFCURVE",
"105 -180 CURVE",
"105 -185 LINE",
"-35 -222 LINE",
"-209 -56 LINE"
);
}
);
width = 0;
},
{
associatedMasterId = "632BC717-227E-41E7-B05B-9781150E6210";
layerId = "863DDE26-44C6-40DB-893B-D581BB227F30";
name = "Regular Apr 9 16, 16:55";
paths = (
{
closed = 1;
nodes = (
"-92 -32 LINE",
"54 -32 LINE",
"174 -199 LINE",
"175 -207 LINE",
"31 -207 LINE"
);
}
);
width = 0;
visible = 1;
}
);
unicode = 094D;
},
{
color = 7;
glyphname = dvNukta;
lastChange = "2016-05-19 22:11:41 +0000";
layers = (
{
layerId = "632BC717-227E-41E7-B05B-9781150E6210";
paths = (
{
closed = 1;
nodes = (
"78 -81 OFFCURVE",
"79 -96 OFFCURVE",
"79 -112 CURVE SMOOTH",
"79 -128 OFFCURVE",
"78 -144 OFFCURVE",
"76 -165 CURVE",
"50 -170 OFFCURVE",
"25 -173 OFFCURVE",
"0 -173 CURVE SMOOTH",
"-24 -173 OFFCURVE",
"-48 -170 OFFCURVE",
"-73 -165 CURVE",
"-76 -145 OFFCURVE",
"-77 -129 OFFCURVE",
"-77 -113 CURVE SMOOTH",
"-77 -98 OFFCURVE",
"-76 -81 OFFCURVE",
"-73 -59 CURVE",
"-48 -54 OFFCURVE",
"-23 -52 OFFCURVE",
"2 -52 CURVE SMOOTH",
"26 -52 OFFCURVE",
"51 -54 OFFCURVE",
"76 -59 CURVE"
);
}
);
width = 0;
}
);
unicode = 093C;
},
